%TF.GenerationSoftware,KiCad,Pcbnew,8.0.6*%
%TF.CreationDate,2024-11-22T22:30:10-05:00*%
%TF.ProjectId,EFUSE2024,45465553-4532-4303-9234-2e6b69636164,rev?*%
%TF.SameCoordinates,Original*%
%TF.FileFunction,Copper,L2,Bot*%
%TF.FilePolarity,Positive*%
%FSLAX46Y46*%
G04 Gerber Fmt 4.6, Leading zero omitted, Abs format (unit mm)*
G04 Created by KiCad (PCBNEW 8.0.6) date 2024-11-22 22:30:10*
%MOMM*%
%LPD*%
G01*
G04 APERTURE LIST*
G04 Aperture macros list*
%AMRoundRect*
0 Rectangle with rounded corners*
0 $1 Rounding radius*
0 $2 $3 $4 $5 $6 $7 $8 $9 X,Y pos of 4 corners*
0 Add a 4 corners polygon primitive as box body*
4,1,4,$2,$3,$4,$5,$6,$7,$8,$9,$2,$3,0*
0 Add four circle primitives for the rounded corners*
1,1,$1+$1,$2,$3*
1,1,$1+$1,$4,$5*
1,1,$1+$1,$6,$7*
1,1,$1+$1,$8,$9*
0 Add four rect primitives between the rounded corners*
20,1,$1+$1,$2,$3,$4,$5,0*
20,1,$1+$1,$4,$5,$6,$7,0*
20,1,$1+$1,$6,$7,$8,$9,0*
20,1,$1+$1,$8,$9,$2,$3,0*%
G04 Aperture macros list end*
%TA.AperFunction,ComponentPad*%
%ADD10RoundRect,0.250002X-1.699998X-1.699998X1.699998X-1.699998X1.699998X1.699998X-1.699998X1.699998X0*%
%TD*%
%TA.AperFunction,ComponentPad*%
%ADD11C,3.900000*%
%TD*%
%TA.AperFunction,ComponentPad*%
%ADD12C,0.300000*%
%TD*%
%TA.AperFunction,ViaPad*%
%ADD13C,0.500000*%
%TD*%
%TA.AperFunction,Conductor*%
%ADD14C,0.250000*%
%TD*%
G04 APERTURE END LIST*
D10*
%TO.P,J1,1,Pin_1*%
%TO.N,Net-(J1-Pin_1)*%
X113400000Y-73800000D03*
D11*
%TO.P,J1,2,Pin_2*%
%TO.N,Net-(J1-Pin_2)*%
X121200000Y-73800000D03*
%TO.P,J1,3,Pin_3*%
%TO.N,GND*%
X129000000Y-73800000D03*
%TD*%
D12*
%TO.P,U7,11,MODE*%
%TO.N,GND*%
X107900000Y-80500000D03*
X109000000Y-79400000D03*
X109000000Y-80500000D03*
X109000000Y-81600000D03*
X110100000Y-80500000D03*
%TD*%
%TO.P,U2,11,MODE*%
%TO.N,GND*%
X107487500Y-103762500D03*
X108587500Y-102662500D03*
X108587500Y-103762500D03*
X108587500Y-104862500D03*
X109687500Y-103762500D03*
%TD*%
%TO.P,U3,11,MODE*%
%TO.N,GND*%
X107487500Y-114250000D03*
X108587500Y-113150000D03*
X108587500Y-114250000D03*
X108587500Y-115350000D03*
X109687500Y-114250000D03*
%TD*%
%TO.P,U1,11,MODE*%
%TO.N,GND*%
X107587500Y-93150000D03*
X108687500Y-92050000D03*
X108687500Y-93150000D03*
X108687500Y-94250000D03*
X109787500Y-93150000D03*
%TD*%
D13*
%TO.N,Net-(J1-Pin_2)*%
X105840000Y-82270000D03*
X95200000Y-80000000D03*
X105060000Y-93825000D03*
X105740000Y-104720000D03*
X97025000Y-104258173D03*
X96960000Y-93590000D03*
%TO.N,GND*%
X128340000Y-97590000D03*
X95720000Y-78390000D03*
X109600000Y-86200000D03*
X130800000Y-98400000D03*
X130800000Y-88400000D03*
X128340000Y-108360000D03*
X128340000Y-88360000D03*
X98800000Y-72400000D03*
X110760000Y-98240000D03*
X116800000Y-82200000D03*
X96800000Y-72400000D03*
X98800000Y-73400000D03*
X118070000Y-117030000D03*
X95700000Y-79170000D03*
X110600000Y-108600000D03*
X129440000Y-116960000D03*
X97800000Y-72400000D03*
X97800000Y-73400000D03*
X129570000Y-107930000D03*
X97800000Y-74200000D03*
X101470000Y-99220000D03*
X130830000Y-87530000D03*
X109990000Y-97740000D03*
X110200000Y-86800000D03*
X128340000Y-107590000D03*
X129570000Y-97930000D03*
X128210000Y-116620000D03*
X95000000Y-79200000D03*
X118850000Y-117560000D03*
X116400000Y-81400000D03*
X101990000Y-99910000D03*
X130700000Y-116560000D03*
X130670000Y-117430000D03*
X103800000Y-86840000D03*
X130830000Y-107530000D03*
X129570000Y-87930000D03*
X97800000Y-71400000D03*
X98800000Y-74200000D03*
X109800000Y-108000000D03*
X95050000Y-78370000D03*
X98800000Y-71400000D03*
X130830000Y-97530000D03*
X107800000Y-88800000D03*
X128210000Y-117390000D03*
X107000000Y-88200000D03*
X103220000Y-86120000D03*
X130800000Y-108400000D03*
X96800000Y-73400000D03*
X128340000Y-87590000D03*
X96800000Y-71400000D03*
X128340000Y-98360000D03*
X112200000Y-88200000D03*
X112800000Y-88800000D03*
X96800000Y-74200000D03*
%TO.N,Net-(U1-dVdT)*%
X106175000Y-107800000D03*
X106200000Y-96600000D03*
X108270000Y-116860000D03*
X106400000Y-84600000D03*
%TO.N,Net-(U1-UVLO)*%
X96400000Y-105600000D03*
X105760000Y-94640000D03*
X105890000Y-83180000D03*
X96510000Y-86529000D03*
X94975000Y-89134835D03*
X96400000Y-94400000D03*
X105510000Y-105480000D03*
%TO.N,Net-(U1-OVP)*%
X105795420Y-83873583D03*
X107000000Y-116800000D03*
X105514555Y-106179987D03*
X101630000Y-86370000D03*
X105600000Y-96000000D03*
%TO.N,Net-(U1-IMON)*%
X111800000Y-82000000D03*
X118600000Y-104990000D03*
X111300000Y-105320000D03*
X113000000Y-86400000D03*
X118600000Y-86600000D03*
X118600000Y-94400000D03*
X111800000Y-94400000D03*
%TO.N,Net-(U7-PGOOD)*%
X123800000Y-82200000D03*
X111800000Y-80200000D03*
%TO.N,Net-(U1-~{SHDN})*%
X110200000Y-106200000D03*
X110470000Y-116420000D03*
X111200000Y-95800000D03*
X110675000Y-83400000D03*
%TO.N,Net-(U1-PGOOD)*%
X112400000Y-93000000D03*
X122600000Y-96000000D03*
%TO.N,Net-(U1-DRV)*%
X106312287Y-80872556D03*
X97400000Y-92400000D03*
X97281828Y-84025001D03*
X105800000Y-103830000D03*
X104980000Y-93040000D03*
X97600000Y-103400000D03*
%TO.N,Net-(U1-B_GATE)*%
X96267500Y-82197500D03*
X105760000Y-92640000D03*
X105000000Y-103425000D03*
X104000000Y-80275000D03*
X98000000Y-91800000D03*
X98400000Y-102800000D03*
X106320000Y-80000000D03*
%TO.N,Net-(U2-PGOOD)*%
X122730000Y-102230000D03*
X111210000Y-103370000D03*
%TO.N,Net-(U3-PGOOD)*%
X111400000Y-114000000D03*
X122800000Y-112590000D03*
%TD*%
D14*
%TO.N,Net-(J1-Pin_2)*%
X97000000Y-104400000D02*
X97100000Y-104500000D01*
X101516826Y-84600000D02*
X97000000Y-84600000D01*
X97100000Y-104500000D02*
X105520000Y-104500000D01*
X105060000Y-93825000D02*
X104960000Y-93925000D01*
X105520000Y-104500000D02*
X105740000Y-104720000D01*
X95200000Y-82800000D02*
X95200000Y-80000000D01*
X105840000Y-82270000D02*
X103846826Y-82270000D01*
X97000000Y-84600000D02*
X95200000Y-82800000D01*
X97375000Y-93925000D02*
X97000000Y-93550000D01*
X103846826Y-82270000D02*
X101516826Y-84600000D01*
X104960000Y-93925000D02*
X97375000Y-93925000D01*
%TO.N,Net-(U1-dVdT)*%
X106785000Y-92215431D02*
X106785000Y-95064569D01*
X107860000Y-116860000D02*
X108270000Y-116860000D01*
X106050000Y-107675000D02*
X106050000Y-106457715D01*
X107225000Y-116225000D02*
X107238173Y-116225000D01*
X107575000Y-116575000D02*
X107860000Y-116860000D01*
X106175000Y-107800000D02*
X106050000Y-107925000D01*
X106825000Y-105682715D02*
X106825000Y-103405431D01*
X107238173Y-116225000D02*
X107575000Y-116561827D01*
X106050000Y-102630431D02*
X106050000Y-96750000D01*
X106825000Y-103405431D02*
X106050000Y-102630431D01*
X107575000Y-116561827D02*
X107575000Y-116575000D01*
X106400000Y-91830431D02*
X106785000Y-92215431D01*
X106050000Y-115050000D02*
X107225000Y-116225000D01*
X106785000Y-95064569D02*
X106200000Y-95649569D01*
X106175000Y-107800000D02*
X106050000Y-107675000D01*
X106050000Y-107925000D02*
X106050000Y-115050000D01*
X106400000Y-84600000D02*
X106400000Y-91830431D01*
X106050000Y-96750000D02*
X106200000Y-96600000D01*
X106050000Y-106457715D02*
X106825000Y-105682715D01*
X106200000Y-95649569D02*
X106200000Y-96600000D01*
%TO.N,Net-(U1-UVLO)*%
X97400000Y-105000000D02*
X105030000Y-105000000D01*
X105890000Y-83180000D02*
X103573222Y-83180000D01*
X94975000Y-89134835D02*
X96510000Y-87599835D01*
X105760000Y-94640000D02*
X105520000Y-94400000D01*
X96360000Y-105560000D02*
X96840000Y-105560000D01*
X96840000Y-105560000D02*
X97400000Y-105000000D01*
X103573222Y-83180000D02*
X101703222Y-85050000D01*
X96510000Y-87599835D02*
X96510000Y-86529000D01*
X105030000Y-105000000D02*
X105510000Y-105480000D01*
X105520000Y-94400000D02*
X96600000Y-94400000D01*
X97989000Y-85050000D02*
X96510000Y-86529000D01*
X101703222Y-85050000D02*
X97989000Y-85050000D01*
%TO.N,Net-(U1-OVP)*%
X106375000Y-105428173D02*
X106375000Y-103591827D01*
X105795420Y-83873583D02*
X105800000Y-83878163D01*
X105600000Y-106200000D02*
X105745000Y-106055000D01*
X101600000Y-85800000D02*
X101600000Y-86400000D01*
X105748173Y-106055000D02*
X106375000Y-105428173D01*
X103560000Y-83840000D02*
X101600000Y-85800000D01*
X105795420Y-83873583D02*
X105761837Y-83840000D01*
X106335000Y-92401827D02*
X106335000Y-94878173D01*
X105600000Y-96000000D02*
X105600000Y-102816827D01*
X105761837Y-83840000D02*
X103560000Y-83840000D01*
X105600000Y-115400000D02*
X105600000Y-106200000D01*
X105800000Y-91866827D02*
X106335000Y-92401827D01*
X106335000Y-94878173D02*
X105600000Y-95613173D01*
X105745000Y-106055000D02*
X105748173Y-106055000D01*
X105600000Y-95613173D02*
X105600000Y-96000000D01*
X107000000Y-116800000D02*
X105600000Y-115400000D01*
X105800000Y-83878163D02*
X105800000Y-91866827D01*
X106375000Y-103591827D02*
X105600000Y-102816827D01*
%TO.N,Net-(U1-IMON)*%
X112800000Y-83000000D02*
X111800000Y-82000000D01*
X113000000Y-86600000D02*
X112800000Y-86400000D01*
X118400000Y-86400000D02*
X113000000Y-86400000D01*
X112800000Y-86400000D02*
X112800000Y-83000000D01*
X118600000Y-104990000D02*
X111630000Y-104990000D01*
X111630000Y-104990000D02*
X111300000Y-105320000D01*
X118600000Y-94400000D02*
X111800000Y-94400000D01*
X118600000Y-86600000D02*
X118400000Y-86400000D01*
%TO.N,Net-(U7-PGOOD)*%
X121900000Y-80200000D02*
X111800000Y-80200000D01*
X123900000Y-82200000D02*
X121900000Y-80200000D01*
%TO.N,Net-(U1-~{SHDN})*%
X110635000Y-102828604D02*
X110635000Y-105765000D01*
X110635000Y-105765000D02*
X110200000Y-106200000D01*
X111200000Y-112527500D02*
X111200000Y-107200000D01*
X111200000Y-83925000D02*
X111200000Y-95800000D01*
X110470000Y-113257500D02*
X111200000Y-112527500D01*
X111200000Y-95800000D02*
X111400000Y-96000000D01*
X110675000Y-83400000D02*
X111200000Y-83925000D01*
X110470000Y-116420000D02*
X110470000Y-113257500D01*
X111200000Y-107200000D02*
X110200000Y-106200000D01*
X111400000Y-96000000D02*
X111400000Y-102063604D01*
X111400000Y-102063604D02*
X110635000Y-102828604D01*
%TO.N,Net-(U1-PGOOD)*%
X119600000Y-93000000D02*
X122600000Y-96000000D01*
X112400000Y-93000000D02*
X119600000Y-93000000D01*
%TO.N,Net-(U1-DRV)*%
X98200000Y-104000000D02*
X105630000Y-104000000D01*
X101330430Y-84150000D02*
X97406827Y-84150000D01*
X104545000Y-93475000D02*
X104980000Y-93040000D01*
X103660430Y-81820000D02*
X101330430Y-84150000D01*
X97400000Y-92400000D02*
X98475000Y-93475000D01*
X97600000Y-103400000D02*
X98200000Y-104000000D01*
X105630000Y-104000000D02*
X105800000Y-103830000D01*
X106312287Y-80872556D02*
X106312287Y-80984540D01*
X97406827Y-84150000D02*
X97281828Y-84025001D01*
X106312287Y-80984540D02*
X105476827Y-81820000D01*
X105476827Y-81820000D02*
X103660430Y-81820000D01*
X98475000Y-93475000D02*
X104545000Y-93475000D01*
%TO.N,Net-(U1-B_GATE)*%
X96267500Y-82197500D02*
X97770000Y-83700000D01*
X105725000Y-92465000D02*
X105770000Y-92510000D01*
X99225000Y-93025000D02*
X103975000Y-93025000D01*
X106045000Y-80275000D02*
X106320000Y-80000000D01*
X103975000Y-93025000D02*
X104535000Y-92465000D01*
X104900000Y-103525000D02*
X99125000Y-103525000D01*
X104000000Y-80844034D02*
X104000000Y-80275000D01*
X105000000Y-103425000D02*
X104900000Y-103525000D01*
X98000000Y-91800000D02*
X99225000Y-93025000D01*
X104000000Y-80275000D02*
X106045000Y-80275000D01*
X104535000Y-92465000D02*
X105725000Y-92465000D01*
X101144034Y-83700000D02*
X104000000Y-80844034D01*
X97770000Y-83700000D02*
X101144034Y-83700000D01*
X99125000Y-103525000D02*
X98400000Y-102800000D01*
%TO.N,Net-(U2-PGOOD)*%
X111900000Y-102200000D02*
X111210000Y-102890000D01*
X111210000Y-102890000D02*
X111210000Y-103370000D01*
X122700000Y-102200000D02*
X111900000Y-102200000D01*
%TO.N,Net-(U3-PGOOD)*%
X121400000Y-114000000D02*
X122800000Y-112600000D01*
X111400000Y-114000000D02*
X121400000Y-114000000D01*
%TD*%
%TA.AperFunction,Conductor*%
%TO.N,Net-(J1-Pin_2)*%
G36*
X105345403Y-104378226D02*
G01*
X105822177Y-104485980D01*
X105829491Y-104491146D01*
X105831010Y-104499971D01*
X105830424Y-104501829D01*
X105741897Y-104717809D01*
X105739321Y-104721668D01*
X105572173Y-104887877D01*
X105563890Y-104891281D01*
X105555627Y-104887831D01*
X105555026Y-104887179D01*
X105333929Y-104628282D01*
X105331126Y-104620684D01*
X105331126Y-104389639D01*
X105334553Y-104381366D01*
X105342826Y-104377939D01*
X105345403Y-104378226D01*
G37*
%TD.AperFunction*%
%TD*%
%TA.AperFunction,Conductor*%
%TO.N,Net-(U1-DRV)*%
G36*
X104758434Y-92948183D02*
G01*
X104976175Y-93037435D01*
X104982531Y-93043744D01*
X104982564Y-93043824D01*
X105071815Y-93261564D01*
X105071782Y-93270518D01*
X105066894Y-93276101D01*
X104722629Y-93477385D01*
X104713758Y-93478603D01*
X104708451Y-93475558D01*
X104544441Y-93311548D01*
X104541014Y-93303275D01*
X104542612Y-93297374D01*
X104743899Y-92953103D01*
X104751032Y-92947692D01*
X104758434Y-92948183D01*
G37*
%TD.AperFunction*%
%TD*%
%TA.AperFunction,Conductor*%
%TO.N,Net-(U2-PGOOD)*%
G36*
X111149295Y-102801011D02*
G01*
X111310884Y-102962600D01*
X111313420Y-102966396D01*
X111436499Y-103263535D01*
X111436499Y-103272489D01*
X111430184Y-103278815D01*
X111213800Y-103368831D01*
X111204845Y-103368844D01*
X111204789Y-103368821D01*
X111042442Y-103300870D01*
X110988941Y-103278477D01*
X110982633Y-103272122D01*
X110982322Y-103264102D01*
X111129886Y-102805697D01*
X111135682Y-102798874D01*
X111144607Y-102798147D01*
X111149295Y-102801011D01*
G37*
%TD.AperFunction*%
%TD*%
%TA.AperFunction,Conductor*%
%TO.N,Net-(U1-UVLO)*%
G36*
X95246548Y-88699276D02*
G01*
X95410558Y-88863286D01*
X95413985Y-88871559D01*
X95412385Y-88877464D01*
X95211101Y-89221729D01*
X95203967Y-89227142D01*
X95196564Y-89226650D01*
X94978824Y-89137399D01*
X94972468Y-89131090D01*
X94972435Y-89131010D01*
X94883184Y-88913270D01*
X94883217Y-88904316D01*
X94888103Y-88898734D01*
X95232373Y-88697448D01*
X95241241Y-88696231D01*
X95246548Y-88699276D01*
G37*
%TD.AperFunction*%
%TD*%
%TA.AperFunction,Conductor*%
%TO.N,Net-(U1-dVdT)*%
G36*
X106203393Y-96602412D02*
G01*
X106369627Y-96769586D01*
X106373031Y-96777869D01*
X106370677Y-96784875D01*
X106248337Y-96947301D01*
X106183813Y-97032969D01*
X106178511Y-97040008D01*
X106170796Y-97044555D01*
X106169165Y-97044669D01*
X105937377Y-97044669D01*
X105929104Y-97041242D01*
X105925677Y-97032969D01*
X105925695Y-97032312D01*
X105940061Y-96776777D01*
X105949381Y-96610996D01*
X105953267Y-96602931D01*
X105961013Y-96599955D01*
X106195108Y-96599019D01*
X106203393Y-96602412D01*
G37*
%TD.AperFunction*%
%TD*%
%TA.AperFunction,Conductor*%
%TO.N,Net-(J1-Pin_2)*%
G36*
X95421591Y-80091745D02*
G01*
X95427900Y-80098101D01*
X95428392Y-80105504D01*
X95327289Y-80491266D01*
X95321876Y-80498400D01*
X95315971Y-80500000D01*
X95084029Y-80500000D01*
X95075756Y-80496573D01*
X95072711Y-80491266D01*
X94971607Y-80105504D01*
X94972825Y-80096633D01*
X94978406Y-80091746D01*
X95195484Y-80000889D01*
X95204437Y-80000857D01*
X95421591Y-80091745D01*
G37*
%TD.AperFunction*%
%TD*%
%TA.AperFunction,Conductor*%
%TO.N,Net-(U1-IMON)*%
G36*
X118196604Y-86277474D02*
G01*
X118590409Y-86348275D01*
X118597945Y-86353111D01*
X118600038Y-86359743D01*
X118600980Y-86595107D01*
X118597586Y-86603394D01*
X118597530Y-86603450D01*
X118431689Y-86768357D01*
X118423406Y-86771761D01*
X118415143Y-86768311D01*
X118414977Y-86768140D01*
X118186080Y-86528391D01*
X118182842Y-86520312D01*
X118182842Y-86288990D01*
X118186269Y-86280717D01*
X118194542Y-86277290D01*
X118196604Y-86277474D01*
G37*
%TD.AperFunction*%
%TD*%
%TA.AperFunction,Conductor*%
%TO.N,Net-(U1-IMON)*%
G36*
X112291267Y-94272711D02*
G01*
X112298400Y-94278123D01*
X112300000Y-94284028D01*
X112300000Y-94515971D01*
X112296573Y-94524244D01*
X112291266Y-94527289D01*
X111905504Y-94628392D01*
X111896633Y-94627174D01*
X111891745Y-94621591D01*
X111800889Y-94404515D01*
X111800857Y-94395563D01*
X111891746Y-94178406D01*
X111898101Y-94172099D01*
X111905504Y-94171607D01*
X112291267Y-94272711D01*
G37*
%TD.AperFunction*%
%TD*%
%TA.AperFunction,Conductor*%
%TO.N,Net-(U1-OVP)*%
G36*
X105821591Y-96091745D02*
G01*
X105827900Y-96098101D01*
X105828392Y-96105504D01*
X105727289Y-96491266D01*
X105721876Y-96498400D01*
X105715971Y-96500000D01*
X105484029Y-96500000D01*
X105475756Y-96496573D01*
X105472711Y-96491266D01*
X105371607Y-96105504D01*
X105372825Y-96096633D01*
X105378406Y-96091746D01*
X105595484Y-96000889D01*
X105604437Y-96000857D01*
X105821591Y-96091745D01*
G37*
%TD.AperFunction*%
%TD*%
%TA.AperFunction,Conductor*%
%TO.N,Net-(U1-dVdT)*%
G36*
X106177188Y-107799915D02*
G01*
X106393207Y-107890329D01*
X106399515Y-107896684D01*
X106399482Y-107905638D01*
X106398581Y-107907369D01*
X106178443Y-108255921D01*
X106171128Y-108261086D01*
X106168551Y-108261373D01*
X105937200Y-108261373D01*
X105928927Y-108257946D01*
X105925500Y-108249673D01*
X105925500Y-107811651D01*
X105928927Y-107803378D01*
X105937152Y-107799951D01*
X106172627Y-107799009D01*
X106177188Y-107799915D01*
G37*
%TD.AperFunction*%
%TD*%
%TA.AperFunction,Conductor*%
%TO.N,Net-(U1-DRV)*%
G36*
X97387466Y-83800518D02*
G01*
X97389197Y-83801419D01*
X97447524Y-83838257D01*
X97449549Y-83839876D01*
X97570138Y-83960465D01*
X97570139Y-83960466D01*
X97570141Y-83960467D01*
X97644358Y-84003317D01*
X97644362Y-84003319D01*
X97709649Y-84020811D01*
X97727144Y-84025499D01*
X97727146Y-84025500D01*
X97731502Y-84025500D01*
X97739775Y-84028927D01*
X97743202Y-84037200D01*
X97743202Y-84262800D01*
X97739775Y-84271073D01*
X97731502Y-84274500D01*
X97293479Y-84274500D01*
X97285206Y-84271073D01*
X97281779Y-84262847D01*
X97281779Y-84262800D01*
X97280837Y-84027372D01*
X97281743Y-84022813D01*
X97372157Y-83806792D01*
X97378512Y-83800485D01*
X97387466Y-83800518D01*
G37*
%TD.AperFunction*%
%TD*%
%TA.AperFunction,Conductor*%
%TO.N,GND*%
G36*
X131959191Y-69518907D02*
G01*
X131995155Y-69568407D01*
X132000000Y-69599000D01*
X132000000Y-119401000D01*
X131981093Y-119459191D01*
X131931593Y-119495155D01*
X131901000Y-119500000D01*
X92099000Y-119500000D01*
X92040809Y-119481093D01*
X92004845Y-119431593D01*
X92000000Y-119401000D01*
X92000000Y-89134832D01*
X94519867Y-89134832D01*
X94519867Y-89134837D01*
X94538302Y-89263060D01*
X94566795Y-89325449D01*
X94592118Y-89380898D01*
X94676951Y-89478802D01*
X94676952Y-89478803D01*
X94785926Y-89548836D01*
X94785931Y-89548839D01*
X94910228Y-89585335D01*
X94910230Y-89585335D01*
X95039770Y-89585335D01*
X95039772Y-89585335D01*
X95164069Y-89548839D01*
X95273049Y-89478802D01*
X95357882Y-89380898D01*
X95371419Y-89351253D01*
X95387405Y-89326690D01*
X95388504Y-89325452D01*
X95584496Y-88990238D01*
X95599949Y-88970211D01*
X96709859Y-87860301D01*
X96709862Y-87860300D01*
X96770465Y-87799697D01*
X96791891Y-87762585D01*
X96813318Y-87725474D01*
X96835500Y-87642688D01*
X96835500Y-87556982D01*
X96835500Y-87087317D01*
X96838734Y-87062218D01*
X96841806Y-87050499D01*
X96929161Y-86717188D01*
X96939463Y-86692320D01*
X96959982Y-86657226D01*
X97119496Y-86384401D01*
X97134953Y-86364373D01*
X98094832Y-85404496D01*
X98149348Y-85376719D01*
X98164835Y-85375500D01*
X101325166Y-85375500D01*
X101383357Y-85394407D01*
X101419321Y-85443907D01*
X101419321Y-85505093D01*
X101395171Y-85544501D01*
X101339535Y-85600138D01*
X101339532Y-85600141D01*
X101339531Y-85600142D01*
X101296683Y-85674356D01*
X101274500Y-85757148D01*
X101274500Y-85821738D01*
X101271599Y-85841745D01*
X101272291Y-85841878D01*
X101199149Y-86222232D01*
X101195095Y-86234925D01*
X101195296Y-86234984D01*
X101193302Y-86241773D01*
X101187442Y-86282530D01*
X101186669Y-86287131D01*
X101180862Y-86317330D01*
X101180860Y-86317341D01*
X101178136Y-86336181D01*
X101177922Y-86338384D01*
X101176850Y-86351974D01*
X101176666Y-86351959D01*
X101176242Y-86360429D01*
X101174867Y-86369996D01*
X101174867Y-86370002D01*
X101193302Y-86498225D01*
X101207357Y-86529000D01*
X101247118Y-86616063D01*
X101304209Y-86681950D01*
X101331952Y-86713968D01*
X101397567Y-86756136D01*
X101440931Y-86784004D01*
X101565228Y-86820500D01*
X101565230Y-86820500D01*
X101694770Y-86820500D01*
X101694772Y-86820500D01*
X101819069Y-86784004D01*
X101928049Y-86713967D01*
X102012882Y-86616063D01*
X102066697Y-86498226D01*
X102074659Y-86442851D01*
X102085133Y-86370002D01*
X102085133Y-86369997D01*
X102066698Y-86241778D01*
X102066697Y-86241776D01*
X102066697Y-86241774D01*
X102060273Y-86227708D01*
X102052194Y-86199654D01*
X102051920Y-86197599D01*
X102051920Y-86197597D01*
X102009427Y-86073101D01*
X101993878Y-86027546D01*
X101993878Y-86027545D01*
X101972807Y-85965815D01*
X101971903Y-85904636D01*
X101996493Y-85863832D01*
X103665830Y-84194496D01*
X103720347Y-84166719D01*
X103735834Y-84165500D01*
X105235975Y-84165500D01*
X105268758Y-84171086D01*
X105372379Y-84207451D01*
X105421026Y-84244561D01*
X105435076Y-84274700D01*
X105470980Y-84405720D01*
X105474500Y-84431885D01*
X105474500Y-91823974D01*
X105474500Y-91909680D01*
X105482448Y-91939342D01*
X105496683Y-91992471D01*
X105499166Y-91998464D01*
X105497561Y-91999128D01*
X105508557Y-92050844D01*
X105483673Y-92106740D01*
X105430687Y-92137336D01*
X105410099Y-92139500D01*
X105392563Y-92139500D01*
X105381076Y-92138831D01*
X105368934Y-92137412D01*
X105356952Y-92136366D01*
X105355624Y-92136290D01*
X105355616Y-92136286D01*
X105355609Y-92136289D01*
X105355257Y-92136268D01*
X105355255Y-92136268D01*
X105344472Y-92138101D01*
X105327888Y-92139500D01*
X104583932Y-92139500D01*
X104583916Y-92139499D01*
X104577853Y-92139499D01*
X104492147Y-92139499D01*
X104492144Y-92139499D01*
X104414456Y-92160317D01*
X104410722Y-92161317D01*
X104409357Y-92161683D01*
X104335138Y-92204534D01*
X104274534Y-92265137D01*
X104274535Y-92265138D01*
X103869169Y-92670504D01*
X103814652Y-92698281D01*
X103799165Y-92699500D01*
X99400834Y-92699500D01*
X99342643Y-92680593D01*
X99330830Y-92670504D01*
X98624952Y-91964625D01*
X98609492Y-91944590D01*
X98413504Y-91609382D01*
X98413503Y-91609381D01*
X98409953Y-91605083D01*
X98396229Y-91583163D01*
X98395509Y-91581588D01*
X98382882Y-91553937D01*
X98298049Y-91456033D01*
X98298048Y-91456032D01*
X98298047Y-91456031D01*
X98189073Y-91385998D01*
X98189070Y-91385996D01*
X98189069Y-91385996D01*
X98189066Y-91385995D01*
X98064774Y-91349500D01*
X98064772Y-91349500D01*
X97935228Y-91349500D01*
X97935225Y-91349500D01*
X97810933Y-91385995D01*
X97810926Y-91385998D01*
X97701952Y-91456031D01*
X97617117Y-91553938D01*
X97563302Y-91671774D01*
X97544867Y-91799997D01*
X97544867Y-91800001D01*
X97550102Y-91836410D01*
X97539669Y-91896699D01*
X97495791Y-91939342D01*
X97452110Y-91949500D01*
X97335225Y-91949500D01*
X97210933Y-91985995D01*
X97210926Y-91985998D01*
X97101952Y-92056031D01*
X97017117Y-92153938D01*
X96963302Y-92271774D01*
X96944867Y-92399997D01*
X96944867Y-92400002D01*
X96963302Y-92528225D01*
X96989686Y-92585996D01*
X97017118Y-92646063D01*
X97063421Y-92699500D01*
X97101952Y-92743968D01*
X97201021Y-92807635D01*
X97205607Y-92810767D01*
X97209377Y-92813500D01*
X97209382Y-92813504D01*
X97528359Y-93000002D01*
X97544592Y-93009493D01*
X97564627Y-93024953D01*
X97970170Y-93430496D01*
X97997947Y-93485013D01*
X97988376Y-93545445D01*
X97945111Y-93588710D01*
X97900166Y-93599500D01*
X97584039Y-93599500D01*
X97525848Y-93580593D01*
X97505008Y-93560124D01*
X97350617Y-93355460D01*
X97346381Y-93349382D01*
X97342883Y-93343939D01*
X97342882Y-93343938D01*
X97342882Y-93343937D01*
X97337666Y-93337918D01*
X97333469Y-93332728D01*
X97308901Y-93300160D01*
X97306619Y-93297338D01*
X97300186Y-93289382D01*
X97299216Y-93288263D01*
X97299207Y-93288252D01*
X97299157Y-93288195D01*
X97297590Y-93286408D01*
X97295119Y-93284640D01*
X97277922Y-93268968D01*
X97258049Y-93246033D01*
X97228394Y-93226975D01*
X97149073Y-93175998D01*
X97149070Y-93175996D01*
X97149069Y-93175996D01*
X97149066Y-93175995D01*
X97024774Y-93139500D01*
X97024772Y-93139500D01*
X96895228Y-93139500D01*
X96895225Y-93139500D01*
X96770933Y-93175995D01*
X96770926Y-93175998D01*
X96661952Y-93246031D01*
X96577117Y-93343938D01*
X96523302Y-93461774D01*
X96504867Y-93589997D01*
X96504867Y-93590002D01*
X96523302Y-93718225D01*
X96565141Y-93809838D01*
X96572116Y-93870625D01*
X96542030Y-93923902D01*
X96486374Y-93949320D01*
X96471852Y-93949112D01*
X96471852Y-93949500D01*
X96335225Y-93949500D01*
X96210933Y-93985995D01*
X96210926Y-93985998D01*
X96101952Y-94056031D01*
X96017117Y-94153938D01*
X95963302Y-94271774D01*
X95944867Y-94399997D01*
X95944867Y-94400002D01*
X95963302Y-94528225D01*
X96017117Y-94646061D01*
X96017118Y-94646063D01*
X96086448Y-94726075D01*
X96101952Y-94743968D01*
X96125498Y-94759100D01*
X96210931Y-94814004D01*
X96335228Y-94850500D01*
X96335230Y-94850500D01*
X96464771Y-94850500D01*
X96464772Y-94850500D01*
X96464773Y-94850499D01*
X96464777Y-94850499D01*
X96507096Y-94838072D01*
X96529994Y-94831348D01*
X96551955Y-94827516D01*
X96557603Y-94827178D01*
X96889190Y-94740273D01*
X96933220Y-94728734D01*
X96958319Y-94725500D01*
X105205380Y-94725500D01*
X105263571Y-94744407D01*
X105283932Y-94764245D01*
X105373284Y-94880730D01*
X105376669Y-94885546D01*
X105377422Y-94886415D01*
X105381146Y-94890981D01*
X105399421Y-94914805D01*
X105412070Y-94931294D01*
X105417126Y-94937466D01*
X105420399Y-94941461D01*
X105420407Y-94941470D01*
X105420411Y-94941475D01*
X105421398Y-94942604D01*
X105422497Y-94943850D01*
X105425208Y-94945785D01*
X105442510Y-94961530D01*
X105461951Y-94983967D01*
X105461953Y-94983968D01*
X105545449Y-95037628D01*
X105584180Y-95084994D01*
X105587674Y-95146079D01*
X105561930Y-95190915D01*
X105339535Y-95413310D01*
X105339531Y-95413315D01*
X105296682Y-95487533D01*
X105296681Y-95487533D01*
X105296682Y-95487534D01*
X105274500Y-95570320D01*
X105274500Y-95605368D01*
X105264598Y-95648525D01*
X105189463Y-95803640D01*
X105187110Y-95808668D01*
X105186831Y-95809287D01*
X105184556Y-95819768D01*
X105177865Y-95839886D01*
X105163303Y-95871774D01*
X105163301Y-95871780D01*
X105144867Y-95999997D01*
X105144867Y-96000002D01*
X105163302Y-96128225D01*
X105165137Y-96132243D01*
X105171391Y-96152950D01*
X105171588Y-96152899D01*
X105172820Y-96157603D01*
X105172821Y-96157604D01*
X105205057Y-96280602D01*
X105271266Y-96533220D01*
X105274500Y-96558319D01*
X105274500Y-102859679D01*
X105280177Y-102880867D01*
X105276974Y-102941968D01*
X105238468Y-102989518D01*
X105179368Y-103005353D01*
X105156660Y-103001479D01*
X105064777Y-102974501D01*
X105064773Y-102974500D01*
X105064772Y-102974500D01*
X104935228Y-102974500D01*
X104935225Y-102974500D01*
X104810931Y-103010995D01*
X104810926Y-103010998D01*
X104810290Y-103011407D01*
X104799798Y-103016917D01*
X104799799Y-103016918D01*
X104795521Y-103019221D01*
X104795521Y-103019222D01*
X104703886Y-103068578D01*
X104482795Y-103187661D01*
X104435849Y-103199500D01*
X99300834Y-103199500D01*
X99242643Y-103180593D01*
X99230830Y-103170504D01*
X99024954Y-102964628D01*
X99009494Y-102944593D01*
X98813504Y-102609382D01*
X98813503Y-102609381D01*
X98809953Y-102605083D01*
X98796229Y-102583163D01*
X98795509Y-102581588D01*
X98782882Y-102553937D01*
X98698049Y-102456033D01*
X98698048Y-102456032D01*
X98698047Y-102456031D01*
X98589073Y-102385998D01*
X98589070Y-102385996D01*
X98589069Y-102385996D01*
X98589066Y-102385995D01*
X98464774Y-102349500D01*
X98464772Y-102349500D01*
X98335228Y-102349500D01*
X98335225Y-102349500D01*
X98210933Y-102385995D01*
X98210926Y-102385998D01*
X98101952Y-102456031D01*
X98017117Y-102553938D01*
X97963302Y-102671774D01*
X97944867Y-102799997D01*
X97944867Y-102800004D01*
X97959341Y-102900678D01*
X97948908Y-102960967D01*
X97905029Y-103003609D01*
X97844467Y-103012316D01*
X97807826Y-102998050D01*
X97789073Y-102985998D01*
X97789070Y-102985996D01*
X97789069Y-102985996D01*
X97789066Y-102985995D01*
X97664774Y-102949500D01*
X97664772Y-102949500D01*
X97535228Y-102949500D01*
X97535225Y-102949500D01*
X97410933Y-102985995D01*
X97410926Y-102985998D01*
X97301952Y-103056031D01*
X97217117Y-103153938D01*
X97163302Y-103271774D01*
X97144867Y-103399997D01*
X97144867Y-103400002D01*
X97163302Y-103528225D01*
X97216863Y-103645504D01*
X97217118Y-103646063D01*
X97227604Y-103658165D01*
X97251421Y-103714524D01*
X97237562Y-103774119D01*
X97191321Y-103814187D01*
X97130360Y-103819422D01*
X97124893Y-103817985D01*
X97089774Y-103807673D01*
X97089772Y-103807673D01*
X96960228Y-103807673D01*
X96960225Y-103807673D01*
X96835933Y-103844168D01*
X96835926Y-103844171D01*
X96726952Y-103914204D01*
X96642117Y-104012111D01*
X96588302Y-104129947D01*
X96569867Y-104258170D01*
X96569867Y-104258175D01*
X96588302Y-104386398D01*
X96589604Y-104389248D01*
X96642118Y-104504236D01*
X96726951Y-104602140D01*
X96759584Y-104623112D01*
X96776064Y-104636391D01*
X96839535Y-104699862D01*
X96839534Y-104699862D01*
X96883610Y-104743937D01*
X96900138Y-104760465D01*
X96965328Y-104798102D01*
X97006268Y-104843571D01*
X97012664Y-104904421D01*
X96985830Y-104953842D01*
X96767401Y-105172270D01*
X96712885Y-105200047D01*
X96675694Y-105198858D01*
X96550315Y-105170685D01*
X96543659Y-105170231D01*
X96522505Y-105166451D01*
X96506793Y-105161838D01*
X96464774Y-105149500D01*
X96464772Y-105149500D01*
X96335228Y-105149500D01*
X96335225Y-105149500D01*
X96210933Y-105185995D01*
X96210926Y-105185998D01*
X96101952Y-105256031D01*
X96017117Y-105353938D01*
X95963302Y-105471774D01*
X95944867Y-105599997D01*
X95944867Y-105600002D01*
X95963302Y-105728225D01*
X96012531Y-105836020D01*
X96017118Y-105846063D01*
X96093248Y-105933923D01*
X96101952Y-105943968D01*
X96209669Y-106013193D01*
X96210931Y-106014004D01*
X96335228Y-106050500D01*
X96335230Y-106050500D01*
X96464770Y-106050500D01*
X96464772Y-106050500D01*
X96589069Y-106014004D01*
X96589072Y-106014001D01*
X96589252Y-106013949D01*
X96591126Y-106013193D01*
X96593698Y-106011991D01*
X96593703Y-106011990D01*
X96844493Y-105894807D01*
X96876594Y-105887678D01*
X96876419Y-105886347D01*
X96882850Y-105885500D01*
X96882853Y-105885500D01*
X96965639Y-105863318D01*
X96965641Y-105863316D01*
X96965643Y-105863316D01*
X97039857Y-105820468D01*
X97039857Y-105820467D01*
X97039862Y-105820465D01*
X97505830Y-105354495D01*
X97560347Y-105326719D01*
X97575834Y-105325500D01*
X104837917Y-105325500D01*
X104896108Y-105344407D01*
X104923380Y-105374530D01*
X105096495Y-105670617D01*
X105100048Y-105674918D01*
X105113768Y-105696833D01*
X105127116Y-105726060D01*
X105127118Y-105726064D01*
X105163274Y-105767790D01*
X105187092Y-105824149D01*
X105173233Y-105883745D01*
X105163276Y-105897450D01*
X105131673Y-105933923D01*
X105077857Y-106051761D01*
X105059422Y-106179984D01*
X105059422Y-106179989D01*
X105077856Y-106308208D01*
X105077858Y-106308213D01*
X105094592Y-106344857D01*
X105100144Y-106360282D01*
X105104871Y-106377868D01*
X105127971Y-106424611D01*
X105264254Y-106700382D01*
X105274500Y-106744243D01*
X105274500Y-115357147D01*
X105274500Y-115442853D01*
X105294062Y-115515863D01*
X105296683Y-115525643D01*
X105339531Y-115599857D01*
X105339532Y-115599858D01*
X105339533Y-115599859D01*
X105339535Y-115599862D01*
X106031447Y-116291774D01*
X106522440Y-116782767D01*
X106550217Y-116837284D01*
X106550428Y-116838682D01*
X106563302Y-116928225D01*
X106612755Y-117036510D01*
X106617118Y-117046063D01*
X106701951Y-117143967D01*
X106701952Y-117143968D01*
X106810926Y-117214001D01*
X106810931Y-117214004D01*
X106935228Y-117250500D01*
X106935230Y-117250500D01*
X107064770Y-117250500D01*
X107064772Y-117250500D01*
X107189069Y-117214004D01*
X107298049Y-117143967D01*
X107382882Y-117046063D01*
X107387245Y-117036508D01*
X107428615Y-116991431D01*
X107488581Y-116979278D01*
X107544238Y-117004694D01*
X107547279Y-117007606D01*
X107660138Y-117120465D01*
X107660140Y-117120466D01*
X107660142Y-117120468D01*
X107734357Y-117163316D01*
X107734355Y-117163316D01*
X107734359Y-117163317D01*
X107734361Y-117163318D01*
X107817147Y-117185500D01*
X107902853Y-117185500D01*
X107914147Y-117185500D01*
X107967670Y-117201216D01*
X107987564Y-117214001D01*
X108080931Y-117274004D01*
X108205228Y-117310500D01*
X108205230Y-117310500D01*
X108334770Y-117310500D01*
X108334772Y-117310500D01*
X108459069Y-117274004D01*
X108568049Y-117203967D01*
X108652882Y-117106063D01*
X108706697Y-116988226D01*
X108719246Y-116900946D01*
X108725133Y-116860002D01*
X108725133Y-116859997D01*
X108706697Y-116731774D01*
X108676687Y-116666063D01*
X108652882Y-116613937D01*
X108568049Y-116516033D01*
X108568048Y-116516032D01*
X108568047Y-116516031D01*
X108459073Y-116445998D01*
X108459070Y-116445996D01*
X108459069Y-116445996D01*
X108459066Y-116445995D01*
X108334774Y-116409500D01*
X108334772Y-116409500D01*
X108205228Y-116409500D01*
X108205225Y-116409500D01*
X108080933Y-116445995D01*
X108080927Y-116445998D01*
X108041748Y-116471176D01*
X107982572Y-116486729D01*
X107925556Y-116464530D01*
X107918222Y-116457895D01*
X107862673Y-116402346D01*
X107846943Y-116381846D01*
X107835465Y-116361965D01*
X107835462Y-116361962D01*
X107774863Y-116301362D01*
X107438035Y-115964535D01*
X107438033Y-115964533D01*
X107418158Y-115953059D01*
X107397653Y-115937326D01*
X106404496Y-114944169D01*
X106376719Y-114889652D01*
X106375500Y-114874165D01*
X106375500Y-108357395D01*
X106390794Y-108304534D01*
X106539731Y-108068717D01*
X106548598Y-108056776D01*
X106557882Y-108046063D01*
X106565136Y-108030177D01*
X106571490Y-108018433D01*
X106572329Y-108017105D01*
X106580866Y-108002250D01*
X106581767Y-108000519D01*
X106584301Y-107995483D01*
X106585481Y-107990396D01*
X106591864Y-107971651D01*
X106611697Y-107928226D01*
X106630133Y-107800000D01*
X106611697Y-107671774D01*
X106580083Y-107602549D01*
X106577751Y-107596998D01*
X106572329Y-107582894D01*
X106571484Y-107581557D01*
X106565133Y-107569815D01*
X106557882Y-107553937D01*
X106548597Y-107543222D01*
X106539726Y-107531273D01*
X106390795Y-107295465D01*
X106375500Y-107242603D01*
X106375500Y-106633548D01*
X106394407Y-106575357D01*
X106404490Y-106563550D01*
X106768043Y-106199997D01*
X109744867Y-106199997D01*
X109744867Y-106200002D01*
X109763302Y-106328225D01*
X109779927Y-106364627D01*
X109817118Y-106446063D01*
X109901951Y-106543967D01*
X109901952Y-106543968D01*
X110001021Y-106607635D01*
X110005607Y-106610767D01*
X110009377Y-106613500D01*
X110009382Y-106613504D01*
X110344592Y-106809493D01*
X110364627Y-106824953D01*
X110845504Y-107305830D01*
X110873281Y-107360347D01*
X110874500Y-107375834D01*
X110874500Y-112351665D01*
X110855593Y-112409856D01*
X110845504Y-112421669D01*
X110209531Y-113057642D01*
X110166682Y-113131860D01*
X110166681Y-113131860D01*
X110166682Y-113131861D01*
X110144500Y-113214647D01*
X110144500Y-116070789D01*
X110125593Y-116128980D01*
X110120320Y-116135619D01*
X110087118Y-116173936D01*
X110087116Y-116173940D01*
X110033302Y-116291774D01*
X110014867Y-116419997D01*
X110014867Y-116420002D01*
X110033302Y-116548225D01*
X110063313Y-116613938D01*
X110087118Y-116666063D01*
X110144056Y-116731774D01*
X110171952Y-116763968D01*
X110280926Y-116834001D01*
X110280931Y-116834004D01*
X110405228Y-116870500D01*
X110405230Y-116870500D01*
X110534770Y-116870500D01*
X110534772Y-116870500D01*
X110659069Y-116834004D01*
X110768049Y-116763967D01*
X110852882Y-116666063D01*
X110906697Y-116548226D01*
X110921395Y-116445998D01*
X110925133Y-116420002D01*
X110925133Y-116419997D01*
X110906697Y-116291774D01*
X110852883Y-116173940D01*
X110852882Y-116173937D01*
X110819679Y-116135618D01*
X110795863Y-116079259D01*
X110795500Y-116070789D01*
X110795500Y-114215884D01*
X110814407Y-114157693D01*
X110863907Y-114121729D01*
X110925093Y-114121729D01*
X110974593Y-114157693D01*
X110984553Y-114174757D01*
X111017117Y-114246061D01*
X111017118Y-114246063D01*
X111086448Y-114326075D01*
X111101952Y-114343968D01*
X111210926Y-114414001D01*
X111210931Y-114414004D01*
X111335228Y-114450500D01*
X111335230Y-114450500D01*
X111464771Y-114450500D01*
X111464772Y-114450500D01*
X111464773Y-114450499D01*
X111464777Y-114450499D01*
X111507096Y-114438072D01*
X111529994Y-114431348D01*
X111551955Y-114427516D01*
X111557603Y-114427178D01*
X111889190Y-114340273D01*
X111933220Y-114328734D01*
X111958319Y-114325500D01*
X121442851Y-114325500D01*
X121442853Y-114325500D01*
X121525639Y-114303318D01*
X121525641Y-114303316D01*
X121525643Y-114303316D01*
X121599857Y-114260468D01*
X121599857Y-114260467D01*
X121599862Y-114260465D01*
X122642168Y-113218157D01*
X122660866Y-113203494D01*
X122993595Y-113001914D01*
X122993605Y-113001905D01*
X122996769Y-112999631D01*
X122996785Y-112999654D01*
X123003085Y-112994996D01*
X123098047Y-112933968D01*
X123098046Y-112933968D01*
X123098049Y-112933967D01*
X123182882Y-112836063D01*
X123236697Y-112718226D01*
X123242842Y-112675484D01*
X123255133Y-112590002D01*
X123255133Y-112589997D01*
X123236697Y-112461774D01*
X123218381Y-112421669D01*
X123182882Y-112343937D01*
X123098049Y-112246033D01*
X123098048Y-112246032D01*
X123098047Y-112246031D01*
X122989073Y-112175998D01*
X122989070Y-112175996D01*
X122989069Y-112175996D01*
X122989066Y-112175995D01*
X122864774Y-112139500D01*
X122864772Y-112139500D01*
X122735228Y-112139500D01*
X122735225Y-112139500D01*
X122610933Y-112175995D01*
X122610926Y-112175998D01*
X122501952Y-112246031D01*
X122417116Y-112343938D01*
X122402342Y-112376290D01*
X122387482Y-112399559D01*
X122384809Y-112402679D01*
X122384806Y-112402683D01*
X122196350Y-112738116D01*
X122180043Y-112759627D01*
X121294169Y-113645503D01*
X121239652Y-113673281D01*
X121224165Y-113674500D01*
X111958319Y-113674500D01*
X111933223Y-113671266D01*
X111557604Y-113572821D01*
X111557601Y-113572820D01*
X111557595Y-113572819D01*
X111547173Y-113571826D01*
X111528676Y-113568263D01*
X111464775Y-113549500D01*
X111464772Y-113549500D01*
X111335228Y-113549500D01*
X111335225Y-113549500D01*
X111210933Y-113585995D01*
X111210926Y-113585998D01*
X111101952Y-113656031D01*
X111017117Y-113753938D01*
X110984553Y-113825242D01*
X110943181Y-113870319D01*
X110883214Y-113882470D01*
X110827558Y-113857052D01*
X110797472Y-113803774D01*
X110795500Y-113784115D01*
X110795500Y-113433334D01*
X110814407Y-113375143D01*
X110824490Y-113363336D01*
X111460465Y-112727362D01*
X111503318Y-112653139D01*
X111525500Y-112570353D01*
X111525500Y-112484647D01*
X111525500Y-107250840D01*
X111525501Y-107250827D01*
X111525501Y-107157147D01*
X111525500Y-107157145D01*
X111503319Y-107074365D01*
X111503318Y-107074364D01*
X111503318Y-107074362D01*
X111460465Y-107000138D01*
X111399862Y-106939535D01*
X111399859Y-106939533D01*
X110824953Y-106364627D01*
X110809493Y-106344592D01*
X110754169Y-106249968D01*
X110741120Y-106190190D01*
X110754169Y-106150030D01*
X110809495Y-106055404D01*
X110824948Y-106035377D01*
X110895465Y-105964862D01*
X110903277Y-105951331D01*
X110938316Y-105890643D01*
X110938316Y-105890641D01*
X110938318Y-105890639D01*
X110960500Y-105807853D01*
X110960500Y-105807850D01*
X110960826Y-105805376D01*
X110961595Y-105803762D01*
X110962179Y-105801585D01*
X110962582Y-105801693D01*
X110987167Y-105750151D01*
X111040937Y-105720956D01*
X111101599Y-105728942D01*
X111109585Y-105733389D01*
X111110926Y-105734000D01*
X111110931Y-105734004D01*
X111235228Y-105770500D01*
X111235230Y-105770500D01*
X111364770Y-105770500D01*
X111364772Y-105770500D01*
X111489069Y-105734004D01*
X111598049Y-105663967D01*
X111682882Y-105566063D01*
X111705162Y-105517277D01*
X111714128Y-105501606D01*
X111723661Y-105487996D01*
X111773564Y-105374617D01*
X111814311Y-105328975D01*
X111864175Y-105315500D01*
X118041683Y-105315500D01*
X118066779Y-105318733D01*
X118442396Y-105417178D01*
X118452814Y-105418170D01*
X118471311Y-105421732D01*
X118535228Y-105440500D01*
X118535230Y-105440500D01*
X118664770Y-105440500D01*
X118664772Y-105440500D01*
X118789069Y-105404004D01*
X118898049Y-105333967D01*
X118982882Y-105236063D01*
X119036697Y-105118226D01*
X119055133Y-104990000D01*
X119049934Y-104953842D01*
X119036697Y-104861774D01*
X119020131Y-104825500D01*
X118982882Y-104743937D01*
X118898049Y-104646033D01*
X118898048Y-104646032D01*
X118898047Y-104646031D01*
X118789073Y-104575998D01*
X118789070Y-104575996D01*
X118789069Y-104575996D01*
X118789066Y-104575995D01*
X118664774Y-104539500D01*
X118664772Y-104539500D01*
X118535228Y-104539500D01*
X118535227Y-104539500D01*
X118470004Y-104558650D01*
X118448058Y-104562480D01*
X118442402Y-104562820D01*
X118442398Y-104562820D01*
X118442396Y-104562821D01*
X118131986Y-104644175D01*
X118066777Y-104661266D01*
X118041678Y-104664500D01*
X111587147Y-104664500D01*
X111504362Y-104686682D01*
X111481534Y-104699862D01*
X111430135Y-104729537D01*
X111401591Y-104758080D01*
X111375016Y-104777041D01*
X111120708Y-104901170D01*
X111115703Y-104903816D01*
X111104500Y-104908934D01*
X111103668Y-104907113D01*
X111053831Y-104920205D01*
X110996818Y-104897996D01*
X110963748Y-104846518D01*
X110960500Y-104821367D01*
X110960500Y-103898507D01*
X110979407Y-103840316D01*
X111028907Y-103804352D01*
X111087387Y-103803517D01*
X111145228Y-103820500D01*
X111145230Y-103820500D01*
X111274770Y-103820500D01*
X111274772Y-103820500D01*
X111399069Y-103784004D01*
X111508049Y-103713967D01*
X111592882Y-103616063D01*
X111646697Y-103498226D01*
X111658609Y-103415374D01*
X111665133Y-103370002D01*
X111665133Y-103369997D01*
X111648155Y-103251916D01*
X111646697Y-103241774D01*
X111635497Y-103217250D01*
X111628452Y-103195434D01*
X111628371Y-103195027D01*
X111626356Y-103184894D01*
X111578175Y-103068577D01*
X111573375Y-103007581D01*
X111599635Y-102960690D01*
X112005831Y-102554496D01*
X112060347Y-102526719D01*
X112075834Y-102525500D01*
X122170784Y-102525500D01*
X122202763Y-102530807D01*
X122557597Y-102651920D01*
X122572045Y-102654094D01*
X122585198Y-102657001D01*
X122665228Y-102680500D01*
X122665229Y-102680500D01*
X122794770Y-102680500D01*
X122794772Y-102680500D01*
X122919069Y-102644004D01*
X123028049Y-102573967D01*
X123112882Y-102476063D01*
X123166697Y-102358226D01*
X123185133Y-102230000D01*
X123166697Y-102101774D01*
X123112882Y-101983937D01*
X123028049Y-101886033D01*
X123028048Y-101886032D01*
X123028047Y-101886031D01*
X122919073Y-101815998D01*
X122919070Y-101815996D01*
X122919069Y-101815996D01*
X122919066Y-101815995D01*
X122794774Y-101779500D01*
X122794772Y-101779500D01*
X122665228Y-101779500D01*
X122633355Y-101788857D01*
X122624163Y-101791085D01*
X122203028Y-101872068D01*
X122202957Y-101871702D01*
X122181930Y-101874500D01*
X111857147Y-101874500D01*
X111850119Y-101876383D01*
X111789018Y-101873178D01*
X111741469Y-101834671D01*
X111725500Y-101780755D01*
X111725500Y-96050840D01*
X111725501Y-96050827D01*
X111725501Y-95957146D01*
X111725500Y-95957144D01*
X111703318Y-95874361D01*
X111686427Y-95845106D01*
X111667911Y-95813035D01*
X111667910Y-95813034D01*
X111667910Y-95813031D01*
X111666725Y-95810980D01*
X111655015Y-95778979D01*
X111653981Y-95773228D01*
X111652298Y-95768294D01*
X111648005Y-95750428D01*
X111636697Y-95671774D01*
X111634880Y-95667795D01*
X111634862Y-95667755D01*
X111628610Y-95647050D01*
X111628411Y-95647103D01*
X111627178Y-95642399D01*
X111627178Y-95642396D01*
X111528733Y-95266779D01*
X111525500Y-95241683D01*
X111525500Y-94921167D01*
X111544407Y-94862976D01*
X111593907Y-94827012D01*
X111652389Y-94826177D01*
X111735228Y-94850500D01*
X111735230Y-94850500D01*
X111864771Y-94850500D01*
X111864772Y-94850500D01*
X111864773Y-94850499D01*
X111864777Y-94850499D01*
X111907096Y-94838072D01*
X111929994Y-94831348D01*
X111951955Y-94827516D01*
X111957603Y-94827178D01*
X112289190Y-94740273D01*
X112333220Y-94728734D01*
X112358319Y-94725500D01*
X118041683Y-94725500D01*
X118066779Y-94728733D01*
X118442396Y-94827178D01*
X118452814Y-94828170D01*
X118471311Y-94831732D01*
X118535228Y-94850500D01*
X118535230Y-94850500D01*
X118664770Y-94850500D01*
X118664772Y-94850500D01*
X118789069Y-94814004D01*
X118898049Y-94743967D01*
X118982882Y-94646063D01*
X119036697Y-94528226D01*
X119055133Y-94400000D01*
X119036697Y-94271774D01*
X118982882Y-94153937D01*
X118898049Y-94056033D01*
X118898048Y-94056032D01*
X118898047Y-94056031D01*
X118789073Y-93985998D01*
X118789070Y-93985996D01*
X118789069Y-93985996D01*
X118785728Y-93985015D01*
X118664774Y-93949500D01*
X118664772Y-93949500D01*
X118535228Y-93949500D01*
X118535227Y-93949500D01*
X118470004Y-93968650D01*
X118448058Y-93972480D01*
X118442402Y-93972820D01*
X118442398Y-93972820D01*
X118442396Y-93972821D01*
X118177920Y-94042137D01*
X118066777Y-94071266D01*
X118041678Y-94074500D01*
X112358319Y-94074500D01*
X112333223Y-94071266D01*
X111957604Y-93972821D01*
X111957601Y-93972820D01*
X111957595Y-93972819D01*
X111947173Y-93971826D01*
X111928676Y-93968263D01*
X111864775Y-93949500D01*
X111864772Y-93949500D01*
X111735228Y-93949500D01*
X111735224Y-93949500D01*
X111652391Y-93973822D01*
X111591230Y-93972074D01*
X111542778Y-93934711D01*
X111525500Y-93878832D01*
X111525500Y-92999997D01*
X111944867Y-92999997D01*
X111944867Y-93000002D01*
X111963302Y-93128225D01*
X111985119Y-93175996D01*
X112017118Y-93246063D01*
X112086448Y-93326075D01*
X112101952Y-93343968D01*
X112206250Y-93410996D01*
X112210931Y-93414004D01*
X112335228Y-93450500D01*
X112335230Y-93450500D01*
X112464771Y-93450500D01*
X112464772Y-93450500D01*
X112464773Y-93450499D01*
X112464777Y-93450499D01*
X112507096Y-93438072D01*
X112529994Y-93431348D01*
X112551955Y-93427516D01*
X112557603Y-93427178D01*
X112907789Y-93335399D01*
X112933220Y-93328734D01*
X112958319Y-93325500D01*
X119424165Y-93325500D01*
X119482356Y-93344407D01*
X119494169Y-93354496D01*
X121975045Y-95835371D01*
X121990505Y-95855406D01*
X122186495Y-96190617D01*
X122190048Y-96194918D01*
X122203768Y-96216833D01*
X122217116Y-96246060D01*
X122217117Y-96246061D01*
X122217118Y-96246063D01*
X122247046Y-96280602D01*
X122301952Y-96343968D01*
X122314774Y-96352208D01*
X122410931Y-96414004D01*
X122535228Y-96450500D01*
X122535230Y-96450500D01*
X122664770Y-96450500D01*
X122664772Y-96450500D01*
X122789069Y-96414004D01*
X122898049Y-96343967D01*
X122982882Y-96246063D01*
X123036697Y-96128226D01*
X123055133Y-96000000D01*
X123048971Y-95957144D01*
X123036697Y-95871774D01*
X123009871Y-95813035D01*
X122982882Y-95753937D01*
X122898049Y-95656033D01*
X122898048Y-95656032D01*
X122798972Y-95592359D01*
X122794401Y-95589237D01*
X122790618Y-95586495D01*
X122455407Y-95390506D01*
X122435372Y-95375046D01*
X121130259Y-94069933D01*
X119799862Y-92739535D01*
X119799859Y-92739533D01*
X119799857Y-92739531D01*
X119725642Y-92696683D01*
X119725644Y-92696683D01*
X119693521Y-92688076D01*
X119642853Y-92674500D01*
X119642851Y-92674500D01*
X112958319Y-92674500D01*
X112933223Y-92671266D01*
X112557604Y-92572821D01*
X112557601Y-92572820D01*
X112557595Y-92572819D01*
X112547173Y-92571826D01*
X112528676Y-92568263D01*
X112464775Y-92549500D01*
X112464772Y-92549500D01*
X112335228Y-92549500D01*
X112335225Y-92549500D01*
X112210933Y-92585995D01*
X112210926Y-92585998D01*
X112101952Y-92656031D01*
X112017117Y-92753938D01*
X111963302Y-92871774D01*
X111944867Y-92999997D01*
X111525500Y-92999997D01*
X111525500Y-83882148D01*
X111525500Y-83882147D01*
X111509468Y-83822314D01*
X111509468Y-83822313D01*
X111509468Y-83822312D01*
X111505535Y-83807635D01*
X111503318Y-83799361D01*
X111471337Y-83743968D01*
X111460468Y-83725142D01*
X111460464Y-83725137D01*
X111299952Y-83564624D01*
X111284492Y-83544590D01*
X111088504Y-83209382D01*
X111088503Y-83209381D01*
X111084953Y-83205083D01*
X111071229Y-83183163D01*
X111060809Y-83160347D01*
X111057882Y-83153937D01*
X110973049Y-83056033D01*
X110973048Y-83056032D01*
X110973047Y-83056031D01*
X110864073Y-82985998D01*
X110864070Y-82985996D01*
X110864069Y-82985996D01*
X110864066Y-82985995D01*
X110739774Y-82949500D01*
X110739772Y-82949500D01*
X110610228Y-82949500D01*
X110610225Y-82949500D01*
X110485933Y-82985995D01*
X110485926Y-82985998D01*
X110376952Y-83056031D01*
X110292117Y-83153938D01*
X110238302Y-83271774D01*
X110219867Y-83399997D01*
X110219867Y-83400002D01*
X110238302Y-83528225D01*
X110292117Y-83646061D01*
X110292118Y-83646063D01*
X110376951Y-83743967D01*
X110376952Y-83743968D01*
X110476021Y-83807635D01*
X110480607Y-83810767D01*
X110484377Y-83813500D01*
X110484382Y-83813504D01*
X110626805Y-83896775D01*
X110819590Y-84009492D01*
X110839625Y-84024952D01*
X110845504Y-84030831D01*
X110873281Y-84085348D01*
X110874500Y-84100835D01*
X110874500Y-95241682D01*
X110871266Y-95266777D01*
X110840380Y-95384624D01*
X110772817Y-95642409D01*
X110772536Y-95643996D01*
X110765120Y-95667795D01*
X110763302Y-95671776D01*
X110744867Y-95799997D01*
X110744867Y-95800002D01*
X110763302Y-95928225D01*
X110796080Y-95999997D01*
X110817118Y-96046063D01*
X110826278Y-96056635D01*
X110873535Y-96111173D01*
X110879731Y-96119104D01*
X110889951Y-96133657D01*
X111043865Y-96280605D01*
X111072896Y-96334461D01*
X111074500Y-96352208D01*
X111074500Y-101887769D01*
X111055593Y-101945960D01*
X111045504Y-101957773D01*
X110374531Y-102628746D01*
X110331682Y-102702964D01*
X110331681Y-102702964D01*
X110331682Y-102702965D01*
X110309500Y-102785751D01*
X110309500Y-105554226D01*
X110290593Y-105612417D01*
X110260469Y-105639690D01*
X110009377Y-105786497D01*
X110006106Y-105788782D01*
X110006073Y-105788735D01*
X110001708Y-105791921D01*
X109901952Y-105856032D01*
X109901951Y-105856032D01*
X109901951Y-105856033D01*
X109878951Y-105882577D01*
X109817117Y-105953938D01*
X109763302Y-106071774D01*
X109744867Y-106199997D01*
X106768043Y-106199997D01*
X107024859Y-105943181D01*
X107024862Y-105943180D01*
X107085465Y-105882577D01*
X107128318Y-105808353D01*
X107130778Y-105799173D01*
X107150501Y-105725567D01*
X107150501Y-105639862D01*
X107150501Y-105633800D01*
X107150500Y-105633782D01*
X107150500Y-103456271D01*
X107150501Y-103456258D01*
X107150501Y-103362578D01*
X107150500Y-103362576D01*
X107128319Y-103279796D01*
X107128318Y-103279794D01*
X107128318Y-103279793D01*
X107111406Y-103250500D01*
X107111405Y-103250498D01*
X107111405Y-103250497D01*
X107085468Y-103205573D01*
X107085466Y-103205571D01*
X107085465Y-103205569D01*
X107024862Y-103144966D01*
X107024859Y-103144964D01*
X106404496Y-102524600D01*
X106376719Y-102470083D01*
X106375500Y-102454596D01*
X106375500Y-97153154D01*
X106394407Y-97094963D01*
X106395421Y-97093593D01*
X106434747Y-97041380D01*
X106434748Y-97041376D01*
X106534824Y-96908511D01*
X106538899Y-96900774D01*
X106551666Y-96882088D01*
X106582882Y-96846063D01*
X106636697Y-96728226D01*
X106655133Y-96600000D01*
X106636697Y-96471774D01*
X106636428Y-96471186D01*
X106634862Y-96467755D01*
X106628610Y-96447050D01*
X106628411Y-96447103D01*
X106627178Y-96442399D01*
X106627178Y-96442396D01*
X106528733Y-96066779D01*
X106525500Y-96041683D01*
X106525500Y-95825403D01*
X106544407Y-95767212D01*
X106554490Y-95755405D01*
X107045465Y-95264431D01*
X107088318Y-95190208D01*
X107110500Y-95107422D01*
X107110500Y-95021716D01*
X107110500Y-92172578D01*
X107106725Y-92158490D01*
X107088318Y-92089792D01*
X107088316Y-92089789D01*
X107088316Y-92089787D01*
X107045468Y-92015573D01*
X107045464Y-92015568D01*
X106754496Y-91724599D01*
X106726719Y-91670083D01*
X106725500Y-91654596D01*
X106725500Y-85158317D01*
X106728734Y-85133218D01*
X106827178Y-84757603D01*
X106827178Y-84757598D01*
X106827453Y-84756051D01*
X106834881Y-84732201D01*
X106836697Y-84728226D01*
X106855133Y-84600000D01*
X106836697Y-84471774D01*
X106782882Y-84353937D01*
X106698049Y-84256033D01*
X106698048Y-84256032D01*
X106698047Y-84256031D01*
X106589073Y-84185998D01*
X106589070Y-84185996D01*
X106589069Y-84185996D01*
X106589066Y-84185995D01*
X106464774Y-84149500D01*
X106464772Y-84149500D01*
X106335228Y-84149500D01*
X106335226Y-84149500D01*
X106333716Y-84149717D01*
X106332462Y-84149500D01*
X106328148Y-84149500D01*
X106328148Y-84148753D01*
X106273428Y-84139281D01*
X106230787Y-84095401D01*
X106222083Y-84034838D01*
X106223004Y-84030488D01*
X106223168Y-84029518D01*
X106223305Y-84029070D01*
X106223620Y-84027585D01*
X106224199Y-84025282D01*
X106224447Y-84025344D01*
X106230743Y-84004815D01*
X106232117Y-84001809D01*
X106250553Y-83873583D01*
X106250409Y-83872582D01*
X106232117Y-83745357D01*
X106177127Y-83624948D01*
X106170152Y-83564162D01*
X106192360Y-83518991D01*
X106272882Y-83426063D01*
X106326697Y-83308226D01*
X106341527Y-83205083D01*
X106345133Y-83180002D01*
X106345133Y-83179997D01*
X106326697Y-83051774D01*
X106302987Y-82999857D01*
X106272882Y-82933937D01*
X106188049Y-82836033D01*
X106119870Y-82792217D01*
X106081139Y-82744851D01*
X106077647Y-82683765D01*
X106110726Y-82632293D01*
X106119864Y-82625653D01*
X106138049Y-82613967D01*
X106222882Y-82516063D01*
X106276697Y-82398226D01*
X106284768Y-82342090D01*
X106295133Y-82270002D01*
X106295133Y-82269997D01*
X106276697Y-82141774D01*
X106270509Y-82128225D01*
X106222882Y-82023937D01*
X106202138Y-81999997D01*
X111344867Y-81999997D01*
X111344867Y-82000002D01*
X111363302Y-82128225D01*
X111396080Y-82199997D01*
X111417118Y-82246063D01*
X111488311Y-82328225D01*
X111501952Y-82343968D01*
X111601021Y-82407635D01*
X111605607Y-82410767D01*
X111609377Y-82413500D01*
X111609382Y-82413504D01*
X111922744Y-82596719D01*
X111944592Y-82609493D01*
X111964627Y-82624953D01*
X112445504Y-83105830D01*
X112473281Y-83160347D01*
X112474500Y-83175834D01*
X112474500Y-86357147D01*
X112474500Y-86442853D01*
X112489337Y-86498225D01*
X112496683Y-86525643D01*
X112539531Y-86599857D01*
X112539535Y-86599862D01*
X112800138Y-86860464D01*
X112800140Y-86860466D01*
X112874358Y-86903316D01*
X112874361Y-86903318D01*
X112957144Y-86925500D01*
X112957146Y-86925501D01*
X112957147Y-86925501D01*
X113042854Y-86925501D01*
X113042854Y-86925500D01*
X113125639Y-86903318D01*
X113199862Y-86860465D01*
X113241016Y-86819309D01*
X113285920Y-86793547D01*
X113533219Y-86728733D01*
X113558318Y-86725500D01*
X118047791Y-86725500D01*
X118105982Y-86744407D01*
X118119393Y-86756132D01*
X118266342Y-86910048D01*
X118267527Y-86911279D01*
X118267693Y-86911450D01*
X118271881Y-86914302D01*
X118290972Y-86931296D01*
X118301952Y-86943968D01*
X118410926Y-87014001D01*
X118410931Y-87014004D01*
X118535228Y-87050500D01*
X118535230Y-87050500D01*
X118664770Y-87050500D01*
X118664772Y-87050500D01*
X118789069Y-87014004D01*
X118898049Y-86943967D01*
X118982882Y-86846063D01*
X119036697Y-86728226D01*
X119043358Y-86681899D01*
X119055133Y-86600002D01*
X119055133Y-86599997D01*
X119036697Y-86471774D01*
X119004272Y-86400774D01*
X118982882Y-86353937D01*
X118898049Y-86256033D01*
X118898048Y-86256032D01*
X118898047Y-86256031D01*
X118789073Y-86185998D01*
X118789070Y-86185996D01*
X118789069Y-86185996D01*
X118789066Y-86185995D01*
X118664774Y-86149500D01*
X118664772Y-86149500D01*
X118652816Y-86149500D01*
X118631608Y-86146554D01*
X118631550Y-86146877D01*
X118621004Y-86144980D01*
X118589031Y-86133281D01*
X118525640Y-86096682D01*
X118498043Y-86089288D01*
X118442853Y-86074500D01*
X118442851Y-86074500D01*
X118234240Y-86074500D01*
X118221079Y-86073620D01*
X118214869Y-86072787D01*
X118214268Y-86072733D01*
X118212783Y-86072600D01*
X118206063Y-86072113D01*
X118206058Y-86072113D01*
X118203194Y-86072600D01*
X118200244Y-86073101D01*
X118183660Y-86074500D01*
X113558319Y-86074500D01*
X113533223Y-86071266D01*
X113240884Y-85994647D01*
X113201655Y-85974132D01*
X113160168Y-85938664D01*
X113128224Y-85886479D01*
X113125500Y-85863415D01*
X113125500Y-83050840D01*
X113125501Y-83050827D01*
X113125501Y-82957147D01*
X113125500Y-82957145D01*
X113123451Y-82949500D01*
X113103318Y-82874362D01*
X113085126Y-82842853D01*
X113076156Y-82827316D01*
X113060467Y-82800141D01*
X113060466Y-82800140D01*
X113060465Y-82800138D01*
X112999862Y-82739535D01*
X112999859Y-82739533D01*
X112424954Y-82164628D01*
X112409494Y-82144593D01*
X112213504Y-81809382D01*
X112213503Y-81809381D01*
X112209953Y-81805083D01*
X112196229Y-81783163D01*
X112195509Y-81781588D01*
X112182882Y-81753937D01*
X112098049Y-81656033D01*
X112098048Y-81656032D01*
X112098047Y-81656031D01*
X111989073Y-81585998D01*
X111989070Y-81585996D01*
X111989069Y-81585996D01*
X111989066Y-81585995D01*
X111864774Y-81549500D01*
X111864772Y-81549500D01*
X111735228Y-81549500D01*
X111735225Y-81549500D01*
X111610933Y-81585995D01*
X111610926Y-81585998D01*
X111501952Y-81656031D01*
X111417117Y-81753938D01*
X111363302Y-81871774D01*
X111344867Y-81999997D01*
X106202138Y-81999997D01*
X106138049Y-81926033D01*
X106054548Y-81872370D01*
X106015818Y-81825005D01*
X106012325Y-81763919D01*
X106038067Y-81719085D01*
X106227563Y-81529589D01*
X106250567Y-81512462D01*
X106253431Y-81510918D01*
X106601355Y-81223137D01*
X106609944Y-81216862D01*
X106610332Y-81216525D01*
X106610336Y-81216523D01*
X106610338Y-81216519D01*
X106611801Y-81215252D01*
X106616929Y-81210007D01*
X106617219Y-81209743D01*
X106617235Y-81209730D01*
X106618018Y-81209020D01*
X106620436Y-81205600D01*
X106626441Y-81197934D01*
X106695169Y-81118619D01*
X106748984Y-81000782D01*
X106767420Y-80872556D01*
X106758169Y-80808216D01*
X106748984Y-80744330D01*
X106737773Y-80719782D01*
X106695169Y-80626493D01*
X106610336Y-80528589D01*
X106610335Y-80528588D01*
X106610334Y-80528587D01*
X106600146Y-80522040D01*
X106561415Y-80474674D01*
X106557921Y-80413589D01*
X106591001Y-80362116D01*
X106600133Y-80355480D01*
X106618049Y-80343967D01*
X106702882Y-80246063D01*
X106723920Y-80199997D01*
X111344867Y-80199997D01*
X111344867Y-80200002D01*
X111363302Y-80328225D01*
X111408823Y-80427899D01*
X111417118Y-80446063D01*
X111501430Y-80543366D01*
X111501952Y-80543968D01*
X111610926Y-80614001D01*
X111610931Y-80614004D01*
X111735228Y-80650500D01*
X111735230Y-80650500D01*
X111864771Y-80650500D01*
X111864772Y-80650500D01*
X111864773Y-80650499D01*
X111864777Y-80650499D01*
X111907096Y-80638072D01*
X111929994Y-80631348D01*
X111951955Y-80627516D01*
X111957603Y-80627178D01*
X112316111Y-80533218D01*
X112333220Y-80528734D01*
X112358319Y-80525500D01*
X121724165Y-80525500D01*
X121782356Y-80544407D01*
X121794169Y-80554496D01*
X123221953Y-81982280D01*
X123244593Y-82017383D01*
X123338133Y-82265681D01*
X123338135Y-82265686D01*
X123339760Y-82270000D01*
X123341287Y-82274052D01*
X123341287Y-82274053D01*
X123367625Y-82343968D01*
X123372468Y-82356822D01*
X123373605Y-82359774D01*
X123373728Y-82360085D01*
X123373729Y-82360086D01*
X123383365Y-82374839D01*
X123390532Y-82387850D01*
X123415975Y-82443561D01*
X123417118Y-82446063D01*
X123499785Y-82541467D01*
X123501952Y-82543968D01*
X123606263Y-82611004D01*
X123610931Y-82614004D01*
X123735228Y-82650500D01*
X123735230Y-82650500D01*
X123864770Y-82650500D01*
X123864772Y-82650500D01*
X123989069Y-82614004D01*
X124098049Y-82543967D01*
X124182882Y-82446063D01*
X124236697Y-82328226D01*
X124248510Y-82246063D01*
X124255133Y-82200002D01*
X124255133Y-82199997D01*
X124236697Y-82071774D01*
X124203919Y-82000002D01*
X124182882Y-81953937D01*
X124098049Y-81856033D01*
X124095634Y-81854481D01*
X124087378Y-81848553D01*
X123925341Y-81719083D01*
X123731236Y-81563991D01*
X123731228Y-81563986D01*
X123727937Y-81562164D01*
X123705882Y-81545555D01*
X122904657Y-80744330D01*
X122099862Y-79939535D01*
X122099859Y-79939533D01*
X122099858Y-79939532D01*
X122099857Y-79939531D01*
X122025642Y-79896683D01*
X122025644Y-79896683D01*
X121993521Y-79888076D01*
X121942853Y-79874500D01*
X121942851Y-79874500D01*
X112358319Y-79874500D01*
X112333223Y-79871266D01*
X111957604Y-79772821D01*
X111957601Y-79772820D01*
X111957595Y-79772819D01*
X111947173Y-79771826D01*
X111928676Y-79768263D01*
X111864775Y-79749500D01*
X111864772Y-79749500D01*
X111735228Y-79749500D01*
X111735225Y-79749500D01*
X111610933Y-79785995D01*
X111610926Y-79785998D01*
X111501952Y-79856031D01*
X111417117Y-79953938D01*
X111363302Y-80071774D01*
X111344867Y-80199997D01*
X106723920Y-80199997D01*
X106756697Y-80128226D01*
X106764814Y-80071774D01*
X106775133Y-80000002D01*
X106775133Y-79999997D01*
X106756697Y-79871774D01*
X106725258Y-79802933D01*
X106702882Y-79753937D01*
X106618049Y-79656033D01*
X106618048Y-79656032D01*
X106618047Y-79656031D01*
X106509073Y-79585998D01*
X106509070Y-79585996D01*
X106509069Y-79585996D01*
X106509066Y-79585995D01*
X106384774Y-79549500D01*
X106384772Y-79549500D01*
X106255228Y-79549500D01*
X106255225Y-79549500D01*
X106130933Y-79585995D01*
X106130926Y-79585998D01*
X106021952Y-79656031D01*
X105937116Y-79753939D01*
X105925990Y-79778299D01*
X105912317Y-79798559D01*
X105913003Y-79799093D01*
X105910018Y-79802928D01*
X105910015Y-79802933D01*
X105852009Y-79894801D01*
X105850821Y-79896683D01*
X105846607Y-79903357D01*
X105799551Y-79942465D01*
X105762898Y-79949500D01*
X104558319Y-79949500D01*
X104533223Y-79946266D01*
X104157604Y-79847821D01*
X104157601Y-79847820D01*
X104157595Y-79847819D01*
X104147173Y-79846826D01*
X104128676Y-79843263D01*
X104064775Y-79824500D01*
X104064772Y-79824500D01*
X103935228Y-79824500D01*
X103935225Y-79824500D01*
X103810933Y-79860995D01*
X103810926Y-79860998D01*
X103701952Y-79931031D01*
X103617117Y-80028938D01*
X103563302Y-80146774D01*
X103544867Y-80274997D01*
X103544867Y-80275002D01*
X103563302Y-80403225D01*
X103565137Y-80407243D01*
X103571391Y-80427950D01*
X103571588Y-80427899D01*
X103572820Y-80432603D01*
X103572821Y-80432604D01*
X103579622Y-80458552D01*
X103636976Y-80677388D01*
X103633439Y-80738471D01*
X103611214Y-80772491D01*
X101038203Y-83345504D01*
X100983686Y-83373281D01*
X100968199Y-83374500D01*
X97945835Y-83374500D01*
X97887644Y-83355593D01*
X97875831Y-83345504D01*
X96892452Y-82362125D01*
X96876992Y-82342090D01*
X96681004Y-82006882D01*
X96681003Y-82006881D01*
X96677453Y-82002583D01*
X96663729Y-81980663D01*
X96663009Y-81979088D01*
X96650382Y-81951437D01*
X96565549Y-81853533D01*
X96565548Y-81853532D01*
X96565547Y-81853531D01*
X96456573Y-81783498D01*
X96456570Y-81783496D01*
X96456569Y-81783496D01*
X96455435Y-81783163D01*
X96332274Y-81747000D01*
X96332272Y-81747000D01*
X96202728Y-81747000D01*
X96202725Y-81747000D01*
X96078433Y-81783495D01*
X96078426Y-81783498D01*
X95969452Y-81853531D01*
X95884617Y-81951438D01*
X95830802Y-82069274D01*
X95812367Y-82197497D01*
X95812367Y-82197502D01*
X95830802Y-82325725D01*
X95863913Y-82398226D01*
X95884618Y-82443563D01*
X95947437Y-82516061D01*
X95969452Y-82541468D01*
X96068521Y-82605135D01*
X96073107Y-82608267D01*
X96076877Y-82611000D01*
X96076882Y-82611004D01*
X96386820Y-82792217D01*
X96412090Y-82806992D01*
X96432125Y-82822452D01*
X97083757Y-83474084D01*
X97111534Y-83528601D01*
X97101963Y-83589033D01*
X97067277Y-83627372D01*
X96983779Y-83681033D01*
X96898945Y-83778938D01*
X96876765Y-83827505D01*
X96835391Y-83872582D01*
X96775424Y-83884731D01*
X96719769Y-83859313D01*
X96716708Y-83856381D01*
X95554496Y-82694169D01*
X95526719Y-82639652D01*
X95525500Y-82624165D01*
X95525500Y-80558317D01*
X95528734Y-80533218D01*
X95627178Y-80157603D01*
X95627178Y-80157598D01*
X95627453Y-80156051D01*
X95634881Y-80132201D01*
X95636697Y-80128226D01*
X95644814Y-80071774D01*
X95655133Y-80000002D01*
X95655133Y-79999997D01*
X95636697Y-79871774D01*
X95605258Y-79802933D01*
X95582882Y-79753937D01*
X95498049Y-79656033D01*
X95498048Y-79656032D01*
X95498047Y-79656031D01*
X95389073Y-79585998D01*
X95389070Y-79585996D01*
X95389069Y-79585996D01*
X95389066Y-79585995D01*
X95264774Y-79549500D01*
X95264772Y-79549500D01*
X95135228Y-79549500D01*
X95135225Y-79549500D01*
X95010933Y-79585995D01*
X95010926Y-79585998D01*
X94901952Y-79656031D01*
X94817117Y-79753938D01*
X94763302Y-79871774D01*
X94744867Y-79999997D01*
X94744867Y-80000002D01*
X94763302Y-80128225D01*
X94765137Y-80132243D01*
X94771391Y-80152950D01*
X94771588Y-80152899D01*
X94772820Y-80157603D01*
X94772821Y-80157604D01*
X94848422Y-80446061D01*
X94871266Y-80533220D01*
X94874500Y-80558317D01*
X94874500Y-82757147D01*
X94874500Y-82842853D01*
X94876754Y-82851265D01*
X94896683Y-82925643D01*
X94939531Y-82999857D01*
X94939532Y-82999858D01*
X94939533Y-82999859D01*
X94939535Y-82999862D01*
X95913411Y-83973738D01*
X96739534Y-84799861D01*
X96739535Y-84799862D01*
X96739534Y-84799862D01*
X96800135Y-84860462D01*
X96800138Y-84860465D01*
X96874362Y-84903318D01*
X96957147Y-84925500D01*
X97042853Y-84925500D01*
X97414165Y-84925500D01*
X97472356Y-84944407D01*
X97508320Y-84993907D01*
X97508320Y-85055093D01*
X97484168Y-85094504D01*
X96674623Y-85904047D01*
X96654589Y-85919507D01*
X96319377Y-86115497D01*
X96316106Y-86117782D01*
X96316073Y-86117735D01*
X96311708Y-86120921D01*
X96211952Y-86185032D01*
X96211951Y-86185032D01*
X96211951Y-86185033D01*
X96211117Y-86185996D01*
X96127117Y-86282938D01*
X96073302Y-86400774D01*
X96054867Y-86528997D01*
X96054867Y-86529002D01*
X96073302Y-86657225D01*
X96075137Y-86661243D01*
X96081391Y-86681950D01*
X96081588Y-86681899D01*
X96082820Y-86686603D01*
X96082821Y-86686604D01*
X96139619Y-86903318D01*
X96181266Y-87062220D01*
X96184500Y-87087319D01*
X96184500Y-87423999D01*
X96165593Y-87482190D01*
X96155504Y-87494003D01*
X95139624Y-88509882D01*
X95119589Y-88525342D01*
X94784377Y-88721332D01*
X94781106Y-88723617D01*
X94781073Y-88723570D01*
X94776708Y-88726756D01*
X94676952Y-88790867D01*
X94592117Y-88888773D01*
X94538302Y-89006609D01*
X94519867Y-89134832D01*
X92000000Y-89134832D01*
X92000000Y-72045727D01*
X111249500Y-72045727D01*
X111249500Y-75554272D01*
X111252353Y-75584693D01*
X111252355Y-75584702D01*
X111297206Y-75712880D01*
X111325830Y-75751663D01*
X111377851Y-75822149D01*
X111487119Y-75902793D01*
X111615302Y-75947646D01*
X111645727Y-75950499D01*
X111645729Y-75950500D01*
X111645736Y-75950500D01*
X115154271Y-75950500D01*
X115154271Y-75950499D01*
X115184698Y-75947646D01*
X115312881Y-75902793D01*
X115422149Y-75822149D01*
X115502793Y-75712881D01*
X115547646Y-75584698D01*
X115550499Y-75554271D01*
X115550500Y-75554271D01*
X115550500Y-73799997D01*
X119044475Y-73799997D01*
X119044475Y-73800002D01*
X119064551Y-74093507D01*
X119064552Y-74093511D01*
X119124408Y-74381554D01*
X119222928Y-74658764D01*
X119358278Y-74919976D01*
X119527935Y-75160326D01*
X119728740Y-75375335D01*
X119956951Y-75560999D01*
X119956957Y-75561003D01*
X119956959Y-75561004D01*
X120208313Y-75713856D01*
X120208325Y-75713863D01*
X120353147Y-75776766D01*
X120478159Y-75831067D01*
X120761445Y-75910440D01*
X121052902Y-75950500D01*
X121052908Y-75950500D01*
X121347092Y-75950500D01*
X121347098Y-75950500D01*
X121638555Y-75910440D01*
X121921841Y-75831067D01*
X122112413Y-75748290D01*
X122191674Y-75713863D01*
X122191677Y-75713860D01*
X122191682Y-75713859D01*
X122443049Y-75560999D01*
X122671260Y-75375335D01*
X122872065Y-75160326D01*
X123041722Y-74919976D01*
X123177072Y-74658764D01*
X123275592Y-74381554D01*
X123335448Y-74093511D01*
X123355525Y-73800000D01*
X123335448Y-73506489D01*
X123275592Y-73218446D01*
X123177072Y-72941236D01*
X123041722Y-72680024D01*
X122872065Y-72439674D01*
X122671260Y-72224665D01*
X122443049Y-72039001D01*
X122443044Y-72038998D01*
X122443040Y-72038995D01*
X122191686Y-71886143D01*
X122191674Y-71886136D01*
X121961475Y-71786148D01*
X121921841Y-71768933D01*
X121638555Y-71689560D01*
X121347098Y-71649500D01*
X121052902Y-71649500D01*
X120761445Y-71689560D01*
X120478159Y-71768933D01*
X120478155Y-71768934D01*
X120478154Y-71768935D01*
X120208325Y-71886136D01*
X120208313Y-71886143D01*
X119956959Y-72038995D01*
X119956945Y-72039005D01*
X119728745Y-72224660D01*
X119728744Y-72224661D01*
X119527934Y-72439675D01*
X119527929Y-72439681D01*
X119358278Y-72680023D01*
X119222926Y-72941240D01*
X119124407Y-73218450D01*
X119064553Y-73506483D01*
X119064551Y-73506492D01*
X119044475Y-73799997D01*
X115550500Y-73799997D01*
X115550500Y-72045729D01*
X115550499Y-72045727D01*
X115547646Y-72015306D01*
X115547646Y-72015302D01*
X115502793Y-71887119D01*
X115422149Y-71777851D01*
X115312881Y-71697207D01*
X115312880Y-71697206D01*
X115184702Y-71652355D01*
X115184693Y-71652353D01*
X115154272Y-71649500D01*
X115154264Y-71649500D01*
X111645736Y-71649500D01*
X111645727Y-71649500D01*
X111615306Y-71652353D01*
X111615297Y-71652355D01*
X111487119Y-71697206D01*
X111377852Y-71777850D01*
X111377850Y-71777852D01*
X111297206Y-71887119D01*
X111252355Y-72015297D01*
X111252353Y-72015306D01*
X111249500Y-72045727D01*
X92000000Y-72045727D01*
X92000000Y-69599000D01*
X92018907Y-69540809D01*
X92068407Y-69504845D01*
X92099000Y-69500000D01*
X131901000Y-69500000D01*
X131959191Y-69518907D01*
G37*
%TD.AperFunction*%
%TD*%
%TA.AperFunction,Conductor*%
%TO.N,Net-(U1-OVP)*%
G36*
X105834793Y-105810965D02*
G01*
X105835405Y-105811535D01*
X105994414Y-105970544D01*
X105997841Y-105978817D01*
X105995188Y-105986236D01*
X105699487Y-106346818D01*
X105691591Y-106351042D01*
X105683021Y-106348446D01*
X105682200Y-106347705D01*
X105515533Y-106182366D01*
X105512947Y-106178497D01*
X105423503Y-105960285D01*
X105423536Y-105951331D01*
X105429892Y-105945022D01*
X105430282Y-105944871D01*
X105467858Y-105931204D01*
X105471857Y-105930500D01*
X105574772Y-105930500D01*
X105699069Y-105894004D01*
X105808049Y-105823967D01*
X105818292Y-105812145D01*
X105826296Y-105808138D01*
X105834793Y-105810965D01*
G37*
%TD.AperFunction*%
%TD*%
%TA.AperFunction,Conductor*%
%TO.N,Net-(U1-B_GATE)*%
G36*
X98230518Y-91708217D02*
G01*
X98236101Y-91713105D01*
X98437385Y-92057371D01*
X98438603Y-92066241D01*
X98435558Y-92071548D01*
X98271548Y-92235558D01*
X98263275Y-92238985D01*
X98257371Y-92237385D01*
X97913105Y-92036101D01*
X97907692Y-92028967D01*
X97908183Y-92021565D01*
X97997436Y-91803822D01*
X98003743Y-91797468D01*
X98221565Y-91708184D01*
X98230518Y-91708217D01*
G37*
%TD.AperFunction*%
%TD*%
%TA.AperFunction,Conductor*%
%TO.N,Net-(U1-UVLO)*%
G36*
X105374154Y-94278982D02*
G01*
X105842865Y-94405571D01*
X105849958Y-94411036D01*
X105851109Y-94419917D01*
X105850640Y-94421303D01*
X105761897Y-94637809D01*
X105759321Y-94641668D01*
X105592658Y-94807395D01*
X105584375Y-94810799D01*
X105576112Y-94807349D01*
X105575125Y-94806220D01*
X105361827Y-94528150D01*
X105359410Y-94521029D01*
X105359410Y-94290278D01*
X105362837Y-94282005D01*
X105371110Y-94278578D01*
X105374154Y-94278982D01*
G37*
%TD.AperFunction*%
%TD*%
%TA.AperFunction,Conductor*%
%TO.N,Net-(J1-Pin_2)*%
G36*
X97254040Y-104167004D02*
G01*
X97260362Y-104173346D01*
X97293977Y-104256334D01*
X97341188Y-104372886D01*
X97342044Y-104377279D01*
X97342044Y-104608831D01*
X97338617Y-104617104D01*
X97330344Y-104620531D01*
X97326686Y-104619944D01*
X96941260Y-104493070D01*
X96934473Y-104487229D01*
X96933805Y-104478299D01*
X96934082Y-104477546D01*
X97022148Y-104262689D01*
X97028455Y-104256335D01*
X97245085Y-104166991D01*
X97254040Y-104167004D01*
G37*
%TD.AperFunction*%
%TD*%
%TA.AperFunction,Conductor*%
%TO.N,Net-(U1-dVdT)*%
G36*
X106176824Y-107342054D02*
G01*
X106178443Y-107344079D01*
X106398581Y-107692630D01*
X106400102Y-107701455D01*
X106394937Y-107708770D01*
X106393206Y-107709671D01*
X106177189Y-107800083D01*
X106172625Y-107800990D01*
X105937153Y-107800048D01*
X105928894Y-107796588D01*
X105925500Y-107788348D01*
X105925500Y-107350327D01*
X105928927Y-107342054D01*
X105937200Y-107338627D01*
X106168551Y-107338627D01*
X106176824Y-107342054D01*
G37*
%TD.AperFunction*%
%TD*%
%TA.AperFunction,Conductor*%
%TO.N,Net-(J1-Pin_2)*%
G36*
X105743367Y-82042825D02*
G01*
X105748254Y-82048408D01*
X105839109Y-82265483D01*
X105839142Y-82274437D01*
X105839109Y-82274517D01*
X105748254Y-82491591D01*
X105741898Y-82497900D01*
X105734495Y-82498392D01*
X105348734Y-82397289D01*
X105341600Y-82391876D01*
X105340000Y-82385971D01*
X105340000Y-82157200D01*
X105343427Y-82148927D01*
X105351700Y-82145500D01*
X105519681Y-82145500D01*
X105519681Y-82145499D01*
X105561073Y-82134409D01*
X105602464Y-82123319D01*
X105602468Y-82123317D01*
X105627207Y-82109033D01*
X105676689Y-82080465D01*
X105706578Y-82050575D01*
X105711876Y-82047535D01*
X105734495Y-82041607D01*
X105743367Y-82042825D01*
G37*
%TD.AperFunction*%
%TD*%
%TA.AperFunction,Conductor*%
%TO.N,Net-(U1-B_GATE)*%
G36*
X106098126Y-79908080D02*
G01*
X106316486Y-79998138D01*
X106322828Y-80004460D01*
X106322851Y-80004517D01*
X106410998Y-80219571D01*
X106410965Y-80228525D01*
X106404609Y-80234834D01*
X106404046Y-80235048D01*
X105949482Y-80394535D01*
X105940540Y-80394041D01*
X105934568Y-80387369D01*
X105933908Y-80383495D01*
X105933908Y-80153385D01*
X105935715Y-80147138D01*
X106025769Y-80004517D01*
X106083776Y-79912648D01*
X106091090Y-79907485D01*
X106098126Y-79908080D01*
G37*
%TD.AperFunction*%
%TD*%
%TA.AperFunction,Conductor*%
%TO.N,Net-(U1-~{SHDN})*%
G36*
X110471548Y-105764441D02*
G01*
X110635558Y-105928451D01*
X110638985Y-105936724D01*
X110637385Y-105942629D01*
X110436101Y-106286894D01*
X110428967Y-106292307D01*
X110421564Y-106291815D01*
X110203824Y-106202564D01*
X110197468Y-106196255D01*
X110197435Y-106196175D01*
X110108184Y-105978435D01*
X110108217Y-105969481D01*
X110113103Y-105963899D01*
X110457373Y-105762613D01*
X110466241Y-105761396D01*
X110471548Y-105764441D01*
G37*
%TD.AperFunction*%
%TD*%
%TA.AperFunction,Conductor*%
%TO.N,Net-(U1-B_GATE)*%
G36*
X105345083Y-92341524D02*
G01*
X105749700Y-92388796D01*
X105757518Y-92393160D01*
X105760041Y-92400370D01*
X105760980Y-92635107D01*
X105757586Y-92643394D01*
X105757530Y-92643450D01*
X105591084Y-92808959D01*
X105582801Y-92812363D01*
X105574994Y-92809347D01*
X105335896Y-92593484D01*
X105332051Y-92585397D01*
X105332036Y-92584800D01*
X105332036Y-92353146D01*
X105335463Y-92344873D01*
X105343736Y-92341446D01*
X105345083Y-92341524D01*
G37*
%TD.AperFunction*%
%TD*%
%TA.AperFunction,Conductor*%
%TO.N,Net-(U1-PGOOD)*%
G36*
X122342625Y-95562613D02*
G01*
X122686894Y-95763898D01*
X122692307Y-95771032D01*
X122691815Y-95778435D01*
X122602564Y-95996175D01*
X122596255Y-96002531D01*
X122596175Y-96002564D01*
X122378435Y-96091815D01*
X122369481Y-96091782D01*
X122363898Y-96086894D01*
X122162613Y-95742626D01*
X122161396Y-95733758D01*
X122164439Y-95728453D01*
X122328452Y-95564440D01*
X122336724Y-95561014D01*
X122342625Y-95562613D01*
G37*
%TD.AperFunction*%
%TD*%
%TA.AperFunction,Conductor*%
%TO.N,Net-(U1-~{SHDN})*%
G36*
X111324244Y-95303427D02*
G01*
X111327289Y-95308734D01*
X111428392Y-95694495D01*
X111427174Y-95703366D01*
X111421591Y-95708254D01*
X111204517Y-95799109D01*
X111195563Y-95799142D01*
X111195483Y-95799109D01*
X110978408Y-95708254D01*
X110972099Y-95701898D01*
X110971607Y-95694495D01*
X111072711Y-95308734D01*
X111078124Y-95301600D01*
X111084029Y-95300000D01*
X111315971Y-95300000D01*
X111324244Y-95303427D01*
G37*
%TD.AperFunction*%
%TD*%
%TA.AperFunction,Conductor*%
%TO.N,Net-(U1-DRV)*%
G36*
X105630946Y-103660903D02*
G01*
X105797530Y-103826549D01*
X105800980Y-103834812D01*
X105800980Y-103834892D01*
X105800042Y-104069499D01*
X105796582Y-104077758D01*
X105789556Y-104081089D01*
X105381609Y-104123652D01*
X105373025Y-104121102D01*
X105368758Y-104113229D01*
X105368695Y-104112015D01*
X105368695Y-103880323D01*
X105372122Y-103872050D01*
X105372701Y-103871509D01*
X105615012Y-103660377D01*
X105623499Y-103657527D01*
X105630946Y-103660903D01*
G37*
%TD.AperFunction*%
%TD*%
%TA.AperFunction,Conductor*%
%TO.N,Net-(J1-Pin_2)*%
G36*
X97143811Y-93422724D02*
G01*
X97144845Y-93423918D01*
X97427856Y-93799084D01*
X97430103Y-93807752D01*
X97426789Y-93814403D01*
X97262739Y-93978453D01*
X97254466Y-93981880D01*
X97249983Y-93980987D01*
X97140123Y-93935403D01*
X96875089Y-93825434D01*
X96868761Y-93819098D01*
X96868747Y-93810191D01*
X96958394Y-93591485D01*
X96960975Y-93587624D01*
X97127267Y-93422657D01*
X97135552Y-93419264D01*
X97143811Y-93422724D01*
G37*
%TD.AperFunction*%
%TD*%
%TA.AperFunction,Conductor*%
%TO.N,Net-(U1-IMON)*%
G36*
X118503366Y-104762825D02*
G01*
X118508254Y-104768408D01*
X118599109Y-104985483D01*
X118599142Y-104994437D01*
X118599109Y-104994517D01*
X118508254Y-105211591D01*
X118501898Y-105217900D01*
X118494495Y-105218392D01*
X118108734Y-105117289D01*
X118101600Y-105111876D01*
X118100000Y-105105971D01*
X118100000Y-104874028D01*
X118103427Y-104865755D01*
X118108731Y-104862711D01*
X118494495Y-104761607D01*
X118503366Y-104762825D01*
G37*
%TD.AperFunction*%
%TD*%
%TA.AperFunction,Conductor*%
%TO.N,Net-(U1-DRV)*%
G36*
X106092661Y-80781535D02*
G01*
X106310798Y-80870949D01*
X106314666Y-80873534D01*
X106480043Y-81040240D01*
X106483437Y-81048527D01*
X106479977Y-81056786D01*
X106479194Y-81057496D01*
X106122454Y-81352567D01*
X106113895Y-81355199D01*
X106106724Y-81351824D01*
X105942697Y-81187797D01*
X105939270Y-81179524D01*
X105939943Y-81175614D01*
X105987941Y-81040240D01*
X106077214Y-80788455D01*
X106083207Y-80781805D01*
X106092150Y-80781340D01*
X106092661Y-80781535D01*
G37*
%TD.AperFunction*%
%TD*%
%TA.AperFunction,Conductor*%
%TO.N,Net-(U1-UVLO)*%
G36*
X105793366Y-82952825D02*
G01*
X105798254Y-82958408D01*
X105889109Y-83175483D01*
X105889142Y-83184437D01*
X105889109Y-83184517D01*
X105798254Y-83401591D01*
X105791898Y-83407900D01*
X105784495Y-83408392D01*
X105398734Y-83307289D01*
X105391600Y-83301876D01*
X105390000Y-83295971D01*
X105390000Y-83064028D01*
X105393427Y-83055755D01*
X105398731Y-83052711D01*
X105784495Y-82951607D01*
X105793366Y-82952825D01*
G37*
%TD.AperFunction*%
%TD*%
%TA.AperFunction,Conductor*%
%TO.N,Net-(U1-DRV)*%
G36*
X97830518Y-103308217D02*
G01*
X97836101Y-103313105D01*
X98037385Y-103657371D01*
X98038603Y-103666241D01*
X98035558Y-103671548D01*
X97871548Y-103835558D01*
X97863275Y-103838985D01*
X97857371Y-103837385D01*
X97513105Y-103636101D01*
X97507692Y-103628967D01*
X97508183Y-103621565D01*
X97597436Y-103403822D01*
X97603743Y-103397468D01*
X97821565Y-103308184D01*
X97830518Y-103308217D01*
G37*
%TD.AperFunction*%
%TD*%
%TA.AperFunction,Conductor*%
%TO.N,Net-(U1-OVP)*%
G36*
X105600096Y-95454134D02*
G01*
X105603269Y-95456391D01*
X105765999Y-95619121D01*
X105769150Y-95624867D01*
X105828853Y-95894762D01*
X105827294Y-95903580D01*
X105821923Y-95908092D01*
X105603800Y-95998831D01*
X105594845Y-95998844D01*
X105594789Y-95998821D01*
X105380430Y-95909100D01*
X105374121Y-95902744D01*
X105374154Y-95893790D01*
X105374417Y-95893207D01*
X105584468Y-95459562D01*
X105591157Y-95453612D01*
X105600096Y-95454134D01*
G37*
%TD.AperFunction*%
%TD*%
%TA.AperFunction,Conductor*%
%TO.N,Net-(U1-OVP)*%
G36*
X105790403Y-83627997D02*
G01*
X105795280Y-83635507D01*
X105795476Y-83637592D01*
X105796410Y-83871208D01*
X105795503Y-83875772D01*
X105704007Y-84094377D01*
X105697651Y-84100686D01*
X105689340Y-84100900D01*
X105309926Y-83967746D01*
X105303254Y-83961773D01*
X105302100Y-83956706D01*
X105302100Y-83724730D01*
X105305527Y-83716457D01*
X105311665Y-83713227D01*
X105781646Y-83626135D01*
X105790403Y-83627997D01*
G37*
%TD.AperFunction*%
%TD*%
%TA.AperFunction,Conductor*%
%TO.N,Net-(U1-B_GATE)*%
G36*
X104221591Y-80366745D02*
G01*
X104227900Y-80373101D01*
X104228392Y-80380504D01*
X104127289Y-80766266D01*
X104121876Y-80773400D01*
X104115971Y-80775000D01*
X103884029Y-80775000D01*
X103875756Y-80771573D01*
X103872711Y-80766266D01*
X103771607Y-80380504D01*
X103772825Y-80371633D01*
X103778406Y-80366746D01*
X103995484Y-80275889D01*
X104004437Y-80275857D01*
X104221591Y-80366745D01*
G37*
%TD.AperFunction*%
%TD*%
%TA.AperFunction,Conductor*%
%TO.N,Net-(U1-OVP)*%
G36*
X106017108Y-83965369D02*
G01*
X106023416Y-83971724D01*
X106023937Y-83979013D01*
X105927224Y-84363824D01*
X105921884Y-84371012D01*
X105915877Y-84372672D01*
X105683925Y-84372672D01*
X105675652Y-84369245D01*
X105672641Y-84364064D01*
X105567167Y-83979169D01*
X105568286Y-83970285D01*
X105573932Y-83965285D01*
X105790904Y-83874472D01*
X105799857Y-83874440D01*
X106017108Y-83965369D01*
G37*
%TD.AperFunction*%
%TD*%
%TA.AperFunction,Conductor*%
%TO.N,Net-(U1-OVP)*%
G36*
X101724904Y-85879394D02*
G01*
X101727703Y-85883886D01*
X101799395Y-86093929D01*
X101857437Y-86263979D01*
X101856866Y-86272915D01*
X101850881Y-86278551D01*
X101632189Y-86370083D01*
X101627625Y-86370990D01*
X101394106Y-86370056D01*
X101385847Y-86366596D01*
X101382453Y-86358309D01*
X101382664Y-86356147D01*
X101473176Y-85885458D01*
X101478103Y-85877980D01*
X101484665Y-85875967D01*
X101716631Y-85875967D01*
X101724904Y-85879394D01*
G37*
%TD.AperFunction*%
%TD*%
%TA.AperFunction,Conductor*%
%TO.N,Net-(U1-OVP)*%
G36*
X105751908Y-106179936D02*
G01*
X105760167Y-106183396D01*
X105763561Y-106191683D01*
X105763522Y-106192591D01*
X105753209Y-106318521D01*
X105751681Y-106323415D01*
X105746682Y-106332073D01*
X105746284Y-106333563D01*
X105746283Y-106333562D01*
X105746283Y-106333566D01*
X105724500Y-106414859D01*
X105724500Y-106651291D01*
X105721073Y-106659564D01*
X105712800Y-106662991D01*
X105482269Y-106662991D01*
X105473996Y-106659564D01*
X105471780Y-106656475D01*
X105312202Y-106333566D01*
X105289102Y-106286823D01*
X105288510Y-106277889D01*
X105294408Y-106271152D01*
X105295049Y-106270859D01*
X105512367Y-106179902D01*
X105516926Y-106178996D01*
X105751908Y-106179936D01*
G37*
%TD.AperFunction*%
%TD*%
%TA.AperFunction,Conductor*%
%TO.N,Net-(U1-IMON)*%
G36*
X112030518Y-81908217D02*
G01*
X112036101Y-81913105D01*
X112237385Y-82257371D01*
X112238603Y-82266241D01*
X112235558Y-82271548D01*
X112071548Y-82435558D01*
X112063275Y-82438985D01*
X112057371Y-82437385D01*
X111713105Y-82236101D01*
X111707692Y-82228967D01*
X111708183Y-82221565D01*
X111797436Y-82003822D01*
X111803743Y-81997468D01*
X112021565Y-81908184D01*
X112030518Y-81908217D01*
G37*
%TD.AperFunction*%
%TD*%
%TA.AperFunction,Conductor*%
%TO.N,Net-(U1-IMON)*%
G36*
X113491267Y-86272711D02*
G01*
X113498400Y-86278123D01*
X113500000Y-86284028D01*
X113500000Y-86515971D01*
X113496573Y-86524244D01*
X113491266Y-86527289D01*
X113105504Y-86628392D01*
X113096633Y-86627174D01*
X113091745Y-86621591D01*
X113000889Y-86404515D01*
X113000857Y-86395563D01*
X113091746Y-86178406D01*
X113098101Y-86172099D01*
X113105504Y-86171607D01*
X113491267Y-86272711D01*
G37*
%TD.AperFunction*%
%TD*%
%TA.AperFunction,Conductor*%
%TO.N,Net-(U1-dVdT)*%
G36*
X106324244Y-96103427D02*
G01*
X106327289Y-96108734D01*
X106428392Y-96494495D01*
X106427174Y-96503366D01*
X106421591Y-96508254D01*
X106204517Y-96599109D01*
X106195563Y-96599142D01*
X106195483Y-96599109D01*
X105978408Y-96508254D01*
X105972099Y-96501898D01*
X105971607Y-96494495D01*
X106072711Y-96108734D01*
X106078124Y-96101600D01*
X106084029Y-96100000D01*
X106315971Y-96100000D01*
X106324244Y-96103427D01*
G37*
%TD.AperFunction*%
%TD*%
%TA.AperFunction,Conductor*%
%TO.N,Net-(U1-UVLO)*%
G36*
X96731591Y-86620745D02*
G01*
X96737900Y-86627101D01*
X96738392Y-86634504D01*
X96637289Y-87020266D01*
X96631876Y-87027400D01*
X96625971Y-87029000D01*
X96394029Y-87029000D01*
X96385756Y-87025573D01*
X96382711Y-87020266D01*
X96281607Y-86634504D01*
X96282825Y-86625633D01*
X96288406Y-86620746D01*
X96505484Y-86529889D01*
X96514437Y-86529857D01*
X96731591Y-86620745D01*
G37*
%TD.AperFunction*%
%TD*%
%TA.AperFunction,Conductor*%
%TO.N,Net-(U1-dVdT)*%
G36*
X106621591Y-84691745D02*
G01*
X106627900Y-84698101D01*
X106628392Y-84705504D01*
X106527289Y-85091266D01*
X106521876Y-85098400D01*
X106515971Y-85100000D01*
X106284029Y-85100000D01*
X106275756Y-85096573D01*
X106272711Y-85091266D01*
X106171607Y-84705504D01*
X106172825Y-84696633D01*
X106178406Y-84691746D01*
X106395484Y-84600889D01*
X106404437Y-84600857D01*
X106621591Y-84691745D01*
G37*
%TD.AperFunction*%
%TD*%
%TA.AperFunction,Conductor*%
%TO.N,Net-(U1-~{SHDN})*%
G36*
X111440256Y-95799961D02*
G01*
X111448515Y-95803421D01*
X111451724Y-95809591D01*
X111522524Y-96203388D01*
X111520616Y-96212137D01*
X111513079Y-96216973D01*
X111511009Y-96217158D01*
X111279687Y-96217158D01*
X111271608Y-96213920D01*
X111269740Y-96212137D01*
X111031859Y-95985022D01*
X111028241Y-95976831D01*
X111031476Y-95968481D01*
X111031642Y-95968310D01*
X111196551Y-95802467D01*
X111204811Y-95799019D01*
X111440256Y-95799961D01*
G37*
%TD.AperFunction*%
%TD*%
%TA.AperFunction,Conductor*%
%TO.N,Net-(U2-PGOOD)*%
G36*
X122724918Y-101984466D02*
G01*
X122729846Y-101991944D01*
X122730056Y-101994106D01*
X122730990Y-102227625D01*
X122730083Y-102232189D01*
X122638551Y-102450881D01*
X122632195Y-102457190D01*
X122623979Y-102457437D01*
X122243888Y-102327703D01*
X122237165Y-102321787D01*
X122235967Y-102316630D01*
X122235967Y-102084664D01*
X122239394Y-102076391D01*
X122245455Y-102073175D01*
X122716149Y-101982663D01*
X122724918Y-101984466D01*
G37*
%TD.AperFunction*%
%TD*%
%TA.AperFunction,Conductor*%
%TO.N,Net-(U3-PGOOD)*%
G36*
X122578597Y-112498250D02*
G01*
X122796177Y-112587436D01*
X122802531Y-112593744D01*
X122802564Y-112593824D01*
X122891875Y-112811710D01*
X122891842Y-112820664D01*
X122887112Y-112826154D01*
X122548677Y-113031192D01*
X122539825Y-113032548D01*
X122534341Y-113029458D01*
X122370324Y-112865441D01*
X122366897Y-112857168D01*
X122368396Y-112851438D01*
X122563964Y-112503344D01*
X122571003Y-112497812D01*
X122578597Y-112498250D01*
G37*
%TD.AperFunction*%
%TD*%
%TA.AperFunction,Conductor*%
%TO.N,Net-(U1-UVLO)*%
G36*
X96785103Y-105434067D02*
G01*
X96790811Y-105437209D01*
X96953383Y-105599781D01*
X96956810Y-105608054D01*
X96953383Y-105616327D01*
X96950063Y-105618654D01*
X96506711Y-105825811D01*
X96497765Y-105826209D01*
X96491158Y-105820164D01*
X96490975Y-105819752D01*
X96401178Y-105605210D01*
X96401145Y-105596256D01*
X96401168Y-105596199D01*
X96468306Y-105434811D01*
X96491895Y-105378105D01*
X96498237Y-105371784D01*
X96505261Y-105371185D01*
X96785103Y-105434067D01*
G37*
%TD.AperFunction*%
%TD*%
%TA.AperFunction,Conductor*%
%TO.N,Net-(U1-B_GATE)*%
G36*
X104908818Y-103204901D02*
G01*
X104909310Y-103205932D01*
X105000083Y-103422810D01*
X105000990Y-103427374D01*
X105000049Y-103662721D01*
X104996589Y-103670980D01*
X104988302Y-103674374D01*
X104987738Y-103674358D01*
X104533012Y-103650579D01*
X104524929Y-103646725D01*
X104521923Y-103638895D01*
X104521923Y-103406987D01*
X104525350Y-103398714D01*
X104528072Y-103396687D01*
X104892970Y-103200147D01*
X104901878Y-103199242D01*
X104908818Y-103204901D01*
G37*
%TD.AperFunction*%
%TD*%
%TA.AperFunction,Conductor*%
%TO.N,Net-(U1-B_GATE)*%
G36*
X96498018Y-82105717D02*
G01*
X96503601Y-82110605D01*
X96704885Y-82454871D01*
X96706103Y-82463741D01*
X96703058Y-82469048D01*
X96539048Y-82633058D01*
X96530775Y-82636485D01*
X96524871Y-82634885D01*
X96180605Y-82433601D01*
X96175192Y-82426467D01*
X96175683Y-82419065D01*
X96264936Y-82201322D01*
X96271243Y-82194968D01*
X96489065Y-82105684D01*
X96498018Y-82105717D01*
G37*
%TD.AperFunction*%
%TD*%
%TA.AperFunction,Conductor*%
%TO.N,Net-(U1-IMON)*%
G36*
X118503366Y-94172825D02*
G01*
X118508254Y-94178408D01*
X118599109Y-94395483D01*
X118599142Y-94404437D01*
X118599109Y-94404517D01*
X118508254Y-94621591D01*
X118501898Y-94627900D01*
X118494495Y-94628392D01*
X118108734Y-94527289D01*
X118101600Y-94521876D01*
X118100000Y-94515971D01*
X118100000Y-94284028D01*
X118103427Y-94275755D01*
X118108731Y-94272711D01*
X118494495Y-94171607D01*
X118503366Y-94172825D01*
G37*
%TD.AperFunction*%
%TD*%
%TA.AperFunction,Conductor*%
%TO.N,Net-(U1-UVLO)*%
G36*
X96781548Y-86093441D02*
G01*
X96945558Y-86257451D01*
X96948985Y-86265724D01*
X96947385Y-86271629D01*
X96746101Y-86615894D01*
X96738967Y-86621307D01*
X96731564Y-86620815D01*
X96513824Y-86531564D01*
X96507468Y-86525255D01*
X96507435Y-86525175D01*
X96418184Y-86307435D01*
X96418217Y-86298481D01*
X96423103Y-86292899D01*
X96767373Y-86091613D01*
X96776241Y-86090396D01*
X96781548Y-86093441D01*
G37*
%TD.AperFunction*%
%TD*%
%TA.AperFunction,Conductor*%
%TO.N,Net-(U7-PGOOD)*%
G36*
X112291267Y-80072711D02*
G01*
X112298400Y-80078123D01*
X112300000Y-80084028D01*
X112300000Y-80315971D01*
X112296573Y-80324244D01*
X112291266Y-80327289D01*
X111905504Y-80428392D01*
X111896633Y-80427174D01*
X111891745Y-80421591D01*
X111800889Y-80204515D01*
X111800857Y-80195563D01*
X111891746Y-79978406D01*
X111898101Y-79972099D01*
X111905504Y-79971607D01*
X112291267Y-80072711D01*
G37*
%TD.AperFunction*%
%TD*%
%TA.AperFunction,Conductor*%
%TO.N,Net-(U1-B_GATE)*%
G36*
X104491267Y-80147711D02*
G01*
X104498400Y-80153123D01*
X104500000Y-80159028D01*
X104500000Y-80390971D01*
X104496573Y-80399244D01*
X104491266Y-80402289D01*
X104105504Y-80503392D01*
X104096633Y-80502174D01*
X104091745Y-80496591D01*
X104000889Y-80279515D01*
X104000857Y-80270563D01*
X104091746Y-80053406D01*
X104098101Y-80047099D01*
X104105504Y-80046607D01*
X104491267Y-80147711D01*
G37*
%TD.AperFunction*%
%TD*%
%TA.AperFunction,Conductor*%
%TO.N,Net-(U7-PGOOD)*%
G36*
X123602956Y-81724536D02*
G01*
X123966599Y-82015091D01*
X123970924Y-82022932D01*
X123968437Y-82031534D01*
X123967602Y-82032471D01*
X123802379Y-82199021D01*
X123798510Y-82201607D01*
X123580171Y-82291104D01*
X123571217Y-82291071D01*
X123564908Y-82284715D01*
X123564785Y-82284403D01*
X123533594Y-82201607D01*
X123420664Y-81901841D01*
X123420954Y-81892892D01*
X123423337Y-81889447D01*
X123587381Y-81725403D01*
X123595653Y-81721977D01*
X123602956Y-81724536D01*
G37*
%TD.AperFunction*%
%TD*%
%TA.AperFunction,Conductor*%
%TO.N,Net-(U1-~{SHDN})*%
G36*
X110430518Y-106108217D02*
G01*
X110436101Y-106113105D01*
X110637385Y-106457371D01*
X110638603Y-106466241D01*
X110635558Y-106471548D01*
X110471548Y-106635558D01*
X110463275Y-106638985D01*
X110457371Y-106637385D01*
X110113105Y-106436101D01*
X110107692Y-106428967D01*
X110108183Y-106421565D01*
X110197436Y-106203822D01*
X110203743Y-106197468D01*
X110421565Y-106108184D01*
X110430518Y-106108217D01*
G37*
%TD.AperFunction*%
%TD*%
%TA.AperFunction,Conductor*%
%TO.N,Net-(U1-~{SHDN})*%
G36*
X110905518Y-83308217D02*
G01*
X110911101Y-83313105D01*
X111112385Y-83657371D01*
X111113603Y-83666241D01*
X111110558Y-83671548D01*
X110946548Y-83835558D01*
X110938275Y-83838985D01*
X110932371Y-83837385D01*
X110588105Y-83636101D01*
X110582692Y-83628967D01*
X110583183Y-83621565D01*
X110672436Y-83403822D01*
X110678743Y-83397468D01*
X110896565Y-83308184D01*
X110905518Y-83308217D01*
G37*
%TD.AperFunction*%
%TD*%
%TA.AperFunction,Conductor*%
%TO.N,Net-(U1-UVLO)*%
G36*
X96891267Y-94272711D02*
G01*
X96898400Y-94278123D01*
X96900000Y-94284028D01*
X96900000Y-94515971D01*
X96896573Y-94524244D01*
X96891266Y-94527289D01*
X96505504Y-94628392D01*
X96496633Y-94627174D01*
X96491745Y-94621591D01*
X96400889Y-94404515D01*
X96400857Y-94395563D01*
X96491746Y-94178406D01*
X96498101Y-94172099D01*
X96505504Y-94171607D01*
X96891267Y-94272711D01*
G37*
%TD.AperFunction*%
%TD*%
%TA.AperFunction,Conductor*%
%TO.N,Net-(U3-PGOOD)*%
G36*
X111891267Y-113872711D02*
G01*
X111898400Y-113878123D01*
X111900000Y-113884028D01*
X111900000Y-114115971D01*
X111896573Y-114124244D01*
X111891266Y-114127289D01*
X111505504Y-114228392D01*
X111496633Y-114227174D01*
X111491745Y-114221591D01*
X111400889Y-114004515D01*
X111400857Y-113995563D01*
X111491746Y-113778406D01*
X111498101Y-113772099D01*
X111505504Y-113771607D01*
X111891267Y-113872711D01*
G37*
%TD.AperFunction*%
%TD*%
%TA.AperFunction,Conductor*%
%TO.N,Net-(J1-Pin_2)*%
G36*
X104968818Y-93604901D02*
G01*
X104969310Y-93605932D01*
X105060083Y-93822810D01*
X105060990Y-93827374D01*
X105060049Y-94062721D01*
X105056589Y-94070980D01*
X105048302Y-94074374D01*
X105047738Y-94074358D01*
X104593012Y-94050579D01*
X104584929Y-94046725D01*
X104581923Y-94038895D01*
X104581923Y-93811066D01*
X104585350Y-93802793D01*
X104590594Y-93799765D01*
X104670639Y-93778318D01*
X104744862Y-93735465D01*
X104793995Y-93686331D01*
X104796702Y-93684316D01*
X104952970Y-93600147D01*
X104961878Y-93599242D01*
X104968818Y-93604901D01*
G37*
%TD.AperFunction*%
%TD*%
%TA.AperFunction,Conductor*%
%TO.N,Net-(U1-DRV)*%
G36*
X97630518Y-92308217D02*
G01*
X97636101Y-92313105D01*
X97837385Y-92657371D01*
X97838603Y-92666241D01*
X97835558Y-92671548D01*
X97671548Y-92835558D01*
X97663275Y-92838985D01*
X97657371Y-92837385D01*
X97313105Y-92636101D01*
X97307692Y-92628967D01*
X97308183Y-92621565D01*
X97397436Y-92403822D01*
X97403743Y-92397468D01*
X97621565Y-92308184D01*
X97630518Y-92308217D01*
G37*
%TD.AperFunction*%
%TD*%
%TA.AperFunction,Conductor*%
%TO.N,Net-(U1-IMON)*%
G36*
X111662124Y-104878597D02*
G01*
X111663310Y-104883729D01*
X111663310Y-105112538D01*
X111662319Y-105117251D01*
X111535574Y-105405210D01*
X111529104Y-105411402D01*
X111520404Y-105411313D01*
X111303513Y-105321861D01*
X111297171Y-105315539D01*
X111208486Y-105099171D01*
X111208519Y-105090218D01*
X111214178Y-105084222D01*
X111646479Y-104873214D01*
X111655416Y-104872665D01*
X111662124Y-104878597D01*
G37*
%TD.AperFunction*%
%TD*%
%TA.AperFunction,Conductor*%
%TO.N,Net-(U1-IMON)*%
G36*
X112928283Y-86010786D02*
G01*
X113167188Y-86215025D01*
X113171249Y-86223006D01*
X113168478Y-86231521D01*
X113167881Y-86232168D01*
X113003450Y-86397530D01*
X112995187Y-86400980D01*
X112995107Y-86400980D01*
X112759634Y-86400038D01*
X112751375Y-86396578D01*
X112748189Y-86390538D01*
X112677659Y-86021877D01*
X112679471Y-86013108D01*
X112686952Y-86008187D01*
X112689151Y-86007979D01*
X112920680Y-86007979D01*
X112928283Y-86010786D01*
G37*
%TD.AperFunction*%
%TD*%
%TA.AperFunction,Conductor*%
%TO.N,Net-(U1-B_GATE)*%
G36*
X98630518Y-102708217D02*
G01*
X98636101Y-102713105D01*
X98837385Y-103057371D01*
X98838603Y-103066241D01*
X98835558Y-103071548D01*
X98671548Y-103235558D01*
X98663275Y-103238985D01*
X98657371Y-103237385D01*
X98313105Y-103036101D01*
X98307692Y-103028967D01*
X98308183Y-103021565D01*
X98397436Y-102803822D01*
X98403743Y-102797468D01*
X98621565Y-102708184D01*
X98630518Y-102708217D01*
G37*
%TD.AperFunction*%
%TD*%
%TA.AperFunction,Conductor*%
%TO.N,Net-(U1-PGOOD)*%
G36*
X112891267Y-92872711D02*
G01*
X112898400Y-92878123D01*
X112900000Y-92884028D01*
X112900000Y-93115971D01*
X112896573Y-93124244D01*
X112891266Y-93127289D01*
X112505504Y-93228392D01*
X112496633Y-93227174D01*
X112491745Y-93221591D01*
X112400889Y-93004515D01*
X112400857Y-92995563D01*
X112491746Y-92778406D01*
X112498101Y-92772099D01*
X112505504Y-92771607D01*
X112891267Y-92872711D01*
G37*
%TD.AperFunction*%
%TD*%
%TA.AperFunction,Conductor*%
%TO.N,Net-(U1-UVLO)*%
G36*
X105252625Y-105042613D02*
G01*
X105596894Y-105243898D01*
X105602307Y-105251032D01*
X105601815Y-105258435D01*
X105512564Y-105476175D01*
X105506255Y-105482531D01*
X105506175Y-105482564D01*
X105288435Y-105571815D01*
X105279481Y-105571782D01*
X105273898Y-105566894D01*
X105072613Y-105222626D01*
X105071396Y-105213758D01*
X105074439Y-105208453D01*
X105238452Y-105044440D01*
X105246724Y-105041014D01*
X105252625Y-105042613D01*
G37*
%TD.AperFunction*%
%TD*%
M02*
