%TF.GenerationSoftware,KiCad,Pcbnew,8.0.6*%
%TF.CreationDate,2024-11-22T22:30:10-05:00*%
%TF.ProjectId,EFUSE2024,45465553-4532-4303-9234-2e6b69636164,rev?*%
%TF.SameCoordinates,Original*%
%TF.FileFunction,Legend,Top*%
%TF.FilePolarity,Positive*%
%FSLAX46Y46*%
G04 Gerber Fmt 4.6, Leading zero omitted, Abs format (unit mm)*
G04 Created by KiCad (PCBNEW 8.0.6) date 2024-11-22 22:30:10*
%MOMM*%
%LPD*%
G01*
G04 APERTURE LIST*
%ADD10C,0.300000*%
%ADD11C,0.125000*%
%ADD12C,0.150000*%
%ADD13C,0.120000*%
%ADD14C,0.127000*%
%ADD15C,0.200000*%
G04 APERTURE END LIST*
D10*
X128140225Y-76972257D02*
X127997368Y-76900828D01*
X127997368Y-76900828D02*
X127783082Y-76900828D01*
X127783082Y-76900828D02*
X127568796Y-76972257D01*
X127568796Y-76972257D02*
X127425939Y-77115114D01*
X127425939Y-77115114D02*
X127354510Y-77257971D01*
X127354510Y-77257971D02*
X127283082Y-77543685D01*
X127283082Y-77543685D02*
X127283082Y-77757971D01*
X127283082Y-77757971D02*
X127354510Y-78043685D01*
X127354510Y-78043685D02*
X127425939Y-78186542D01*
X127425939Y-78186542D02*
X127568796Y-78329400D01*
X127568796Y-78329400D02*
X127783082Y-78400828D01*
X127783082Y-78400828D02*
X127925939Y-78400828D01*
X127925939Y-78400828D02*
X128140225Y-78329400D01*
X128140225Y-78329400D02*
X128211653Y-78257971D01*
X128211653Y-78257971D02*
X128211653Y-77757971D01*
X128211653Y-77757971D02*
X127925939Y-77757971D01*
X128854510Y-78400828D02*
X128854510Y-76900828D01*
X128854510Y-76900828D02*
X129711653Y-78400828D01*
X129711653Y-78400828D02*
X129711653Y-76900828D01*
X130425939Y-78400828D02*
X130425939Y-76900828D01*
X130425939Y-76900828D02*
X130783082Y-76900828D01*
X130783082Y-76900828D02*
X130997368Y-76972257D01*
X130997368Y-76972257D02*
X131140225Y-77115114D01*
X131140225Y-77115114D02*
X131211654Y-77257971D01*
X131211654Y-77257971D02*
X131283082Y-77543685D01*
X131283082Y-77543685D02*
X131283082Y-77757971D01*
X131283082Y-77757971D02*
X131211654Y-78043685D01*
X131211654Y-78043685D02*
X131140225Y-78186542D01*
X131140225Y-78186542D02*
X130997368Y-78329400D01*
X130997368Y-78329400D02*
X130783082Y-78400828D01*
X130783082Y-78400828D02*
X130425939Y-78400828D01*
X120654510Y-78200828D02*
X120654510Y-76700828D01*
X121368796Y-78200828D02*
X121368796Y-76700828D01*
X121368796Y-76700828D02*
X122225939Y-78200828D01*
X122225939Y-78200828D02*
X122225939Y-76700828D01*
D11*
X92820331Y-118347309D02*
X93153664Y-118347309D01*
X93296521Y-118871119D02*
X92820331Y-118871119D01*
X92820331Y-118871119D02*
X92820331Y-117871119D01*
X92820331Y-117871119D02*
X93296521Y-117871119D01*
X94058426Y-118347309D02*
X93725093Y-118347309D01*
X93725093Y-118871119D02*
X93725093Y-117871119D01*
X93725093Y-117871119D02*
X94201283Y-117871119D01*
X94582236Y-117871119D02*
X94582236Y-118680642D01*
X94582236Y-118680642D02*
X94629855Y-118775880D01*
X94629855Y-118775880D02*
X94677474Y-118823500D01*
X94677474Y-118823500D02*
X94772712Y-118871119D01*
X94772712Y-118871119D02*
X94963188Y-118871119D01*
X94963188Y-118871119D02*
X95058426Y-118823500D01*
X95058426Y-118823500D02*
X95106045Y-118775880D01*
X95106045Y-118775880D02*
X95153664Y-118680642D01*
X95153664Y-118680642D02*
X95153664Y-117871119D01*
X95582236Y-118823500D02*
X95725093Y-118871119D01*
X95725093Y-118871119D02*
X95963188Y-118871119D01*
X95963188Y-118871119D02*
X96058426Y-118823500D01*
X96058426Y-118823500D02*
X96106045Y-118775880D01*
X96106045Y-118775880D02*
X96153664Y-118680642D01*
X96153664Y-118680642D02*
X96153664Y-118585404D01*
X96153664Y-118585404D02*
X96106045Y-118490166D01*
X96106045Y-118490166D02*
X96058426Y-118442547D01*
X96058426Y-118442547D02*
X95963188Y-118394928D01*
X95963188Y-118394928D02*
X95772712Y-118347309D01*
X95772712Y-118347309D02*
X95677474Y-118299690D01*
X95677474Y-118299690D02*
X95629855Y-118252071D01*
X95629855Y-118252071D02*
X95582236Y-118156833D01*
X95582236Y-118156833D02*
X95582236Y-118061595D01*
X95582236Y-118061595D02*
X95629855Y-117966357D01*
X95629855Y-117966357D02*
X95677474Y-117918738D01*
X95677474Y-117918738D02*
X95772712Y-117871119D01*
X95772712Y-117871119D02*
X96010807Y-117871119D01*
X96010807Y-117871119D02*
X96153664Y-117918738D01*
X96582236Y-118347309D02*
X96915569Y-118347309D01*
X97058426Y-118871119D02*
X96582236Y-118871119D01*
X96582236Y-118871119D02*
X96582236Y-117871119D01*
X96582236Y-117871119D02*
X97058426Y-117871119D01*
X98106046Y-117871119D02*
X98439379Y-118871119D01*
X98439379Y-118871119D02*
X98772712Y-117871119D01*
X99629855Y-118871119D02*
X99058427Y-118871119D01*
X99344141Y-118871119D02*
X99344141Y-117871119D01*
X99344141Y-117871119D02*
X99248903Y-118013976D01*
X99248903Y-118013976D02*
X99153665Y-118109214D01*
X99153665Y-118109214D02*
X99058427Y-118156833D01*
X100820332Y-118490166D02*
X101582237Y-118490166D01*
X102772713Y-117966357D02*
X102820332Y-117918738D01*
X102820332Y-117918738D02*
X102915570Y-117871119D01*
X102915570Y-117871119D02*
X103153665Y-117871119D01*
X103153665Y-117871119D02*
X103248903Y-117918738D01*
X103248903Y-117918738D02*
X103296522Y-117966357D01*
X103296522Y-117966357D02*
X103344141Y-118061595D01*
X103344141Y-118061595D02*
X103344141Y-118156833D01*
X103344141Y-118156833D02*
X103296522Y-118299690D01*
X103296522Y-118299690D02*
X102725094Y-118871119D01*
X102725094Y-118871119D02*
X103344141Y-118871119D01*
X103963189Y-117871119D02*
X104058427Y-117871119D01*
X104058427Y-117871119D02*
X104153665Y-117918738D01*
X104153665Y-117918738D02*
X104201284Y-117966357D01*
X104201284Y-117966357D02*
X104248903Y-118061595D01*
X104248903Y-118061595D02*
X104296522Y-118252071D01*
X104296522Y-118252071D02*
X104296522Y-118490166D01*
X104296522Y-118490166D02*
X104248903Y-118680642D01*
X104248903Y-118680642D02*
X104201284Y-118775880D01*
X104201284Y-118775880D02*
X104153665Y-118823500D01*
X104153665Y-118823500D02*
X104058427Y-118871119D01*
X104058427Y-118871119D02*
X103963189Y-118871119D01*
X103963189Y-118871119D02*
X103867951Y-118823500D01*
X103867951Y-118823500D02*
X103820332Y-118775880D01*
X103820332Y-118775880D02*
X103772713Y-118680642D01*
X103772713Y-118680642D02*
X103725094Y-118490166D01*
X103725094Y-118490166D02*
X103725094Y-118252071D01*
X103725094Y-118252071D02*
X103772713Y-118061595D01*
X103772713Y-118061595D02*
X103820332Y-117966357D01*
X103820332Y-117966357D02*
X103867951Y-117918738D01*
X103867951Y-117918738D02*
X103963189Y-117871119D01*
X104677475Y-117966357D02*
X104725094Y-117918738D01*
X104725094Y-117918738D02*
X104820332Y-117871119D01*
X104820332Y-117871119D02*
X105058427Y-117871119D01*
X105058427Y-117871119D02*
X105153665Y-117918738D01*
X105153665Y-117918738D02*
X105201284Y-117966357D01*
X105201284Y-117966357D02*
X105248903Y-118061595D01*
X105248903Y-118061595D02*
X105248903Y-118156833D01*
X105248903Y-118156833D02*
X105201284Y-118299690D01*
X105201284Y-118299690D02*
X104629856Y-118871119D01*
X104629856Y-118871119D02*
X105248903Y-118871119D01*
X106106046Y-118204452D02*
X106106046Y-118871119D01*
X105867951Y-117823500D02*
X105629856Y-118537785D01*
X105629856Y-118537785D02*
X106248903Y-118537785D01*
D10*
X112440225Y-76700828D02*
X112725939Y-76700828D01*
X112725939Y-76700828D02*
X112868796Y-76772257D01*
X112868796Y-76772257D02*
X113011653Y-76915114D01*
X113011653Y-76915114D02*
X113083082Y-77200828D01*
X113083082Y-77200828D02*
X113083082Y-77700828D01*
X113083082Y-77700828D02*
X113011653Y-77986542D01*
X113011653Y-77986542D02*
X112868796Y-78129400D01*
X112868796Y-78129400D02*
X112725939Y-78200828D01*
X112725939Y-78200828D02*
X112440225Y-78200828D01*
X112440225Y-78200828D02*
X112297368Y-78129400D01*
X112297368Y-78129400D02*
X112154510Y-77986542D01*
X112154510Y-77986542D02*
X112083082Y-77700828D01*
X112083082Y-77700828D02*
X112083082Y-77200828D01*
X112083082Y-77200828D02*
X112154510Y-76915114D01*
X112154510Y-76915114D02*
X112297368Y-76772257D01*
X112297368Y-76772257D02*
X112440225Y-76700828D01*
X113725939Y-76700828D02*
X113725939Y-77915114D01*
X113725939Y-77915114D02*
X113797368Y-78057971D01*
X113797368Y-78057971D02*
X113868797Y-78129400D01*
X113868797Y-78129400D02*
X114011654Y-78200828D01*
X114011654Y-78200828D02*
X114297368Y-78200828D01*
X114297368Y-78200828D02*
X114440225Y-78129400D01*
X114440225Y-78129400D02*
X114511654Y-78057971D01*
X114511654Y-78057971D02*
X114583082Y-77915114D01*
X114583082Y-77915114D02*
X114583082Y-76700828D01*
X115083083Y-76700828D02*
X115940226Y-76700828D01*
X115511654Y-78200828D02*
X115511654Y-76700828D01*
D12*
X120866666Y-70104819D02*
X120866666Y-70819104D01*
X120866666Y-70819104D02*
X120819047Y-70961961D01*
X120819047Y-70961961D02*
X120723809Y-71057200D01*
X120723809Y-71057200D02*
X120580952Y-71104819D01*
X120580952Y-71104819D02*
X120485714Y-71104819D01*
X121866666Y-71104819D02*
X121295238Y-71104819D01*
X121580952Y-71104819D02*
X121580952Y-70104819D01*
X121580952Y-70104819D02*
X121485714Y-70247676D01*
X121485714Y-70247676D02*
X121390476Y-70342914D01*
X121390476Y-70342914D02*
X121295238Y-70390533D01*
X98333333Y-88954819D02*
X98000000Y-88478628D01*
X97761905Y-88954819D02*
X97761905Y-87954819D01*
X97761905Y-87954819D02*
X98142857Y-87954819D01*
X98142857Y-87954819D02*
X98238095Y-88002438D01*
X98238095Y-88002438D02*
X98285714Y-88050057D01*
X98285714Y-88050057D02*
X98333333Y-88145295D01*
X98333333Y-88145295D02*
X98333333Y-88288152D01*
X98333333Y-88288152D02*
X98285714Y-88383390D01*
X98285714Y-88383390D02*
X98238095Y-88431009D01*
X98238095Y-88431009D02*
X98142857Y-88478628D01*
X98142857Y-88478628D02*
X97761905Y-88478628D01*
X98714286Y-88050057D02*
X98761905Y-88002438D01*
X98761905Y-88002438D02*
X98857143Y-87954819D01*
X98857143Y-87954819D02*
X99095238Y-87954819D01*
X99095238Y-87954819D02*
X99190476Y-88002438D01*
X99190476Y-88002438D02*
X99238095Y-88050057D01*
X99238095Y-88050057D02*
X99285714Y-88145295D01*
X99285714Y-88145295D02*
X99285714Y-88240533D01*
X99285714Y-88240533D02*
X99238095Y-88383390D01*
X99238095Y-88383390D02*
X98666667Y-88954819D01*
X98666667Y-88954819D02*
X99285714Y-88954819D01*
X125261905Y-85954819D02*
X125261905Y-84954819D01*
X125261905Y-84954819D02*
X125500000Y-84954819D01*
X125500000Y-84954819D02*
X125642857Y-85002438D01*
X125642857Y-85002438D02*
X125738095Y-85097676D01*
X125738095Y-85097676D02*
X125785714Y-85192914D01*
X125785714Y-85192914D02*
X125833333Y-85383390D01*
X125833333Y-85383390D02*
X125833333Y-85526247D01*
X125833333Y-85526247D02*
X125785714Y-85716723D01*
X125785714Y-85716723D02*
X125738095Y-85811961D01*
X125738095Y-85811961D02*
X125642857Y-85907200D01*
X125642857Y-85907200D02*
X125500000Y-85954819D01*
X125500000Y-85954819D02*
X125261905Y-85954819D01*
X126214286Y-85050057D02*
X126261905Y-85002438D01*
X126261905Y-85002438D02*
X126357143Y-84954819D01*
X126357143Y-84954819D02*
X126595238Y-84954819D01*
X126595238Y-84954819D02*
X126690476Y-85002438D01*
X126690476Y-85002438D02*
X126738095Y-85050057D01*
X126738095Y-85050057D02*
X126785714Y-85145295D01*
X126785714Y-85145295D02*
X126785714Y-85240533D01*
X126785714Y-85240533D02*
X126738095Y-85383390D01*
X126738095Y-85383390D02*
X126166667Y-85954819D01*
X126166667Y-85954819D02*
X126785714Y-85954819D01*
X125261905Y-116454819D02*
X125261905Y-115454819D01*
X125261905Y-115454819D02*
X125500000Y-115454819D01*
X125500000Y-115454819D02*
X125642857Y-115502438D01*
X125642857Y-115502438D02*
X125738095Y-115597676D01*
X125738095Y-115597676D02*
X125785714Y-115692914D01*
X125785714Y-115692914D02*
X125833333Y-115883390D01*
X125833333Y-115883390D02*
X125833333Y-116026247D01*
X125833333Y-116026247D02*
X125785714Y-116216723D01*
X125785714Y-116216723D02*
X125738095Y-116311961D01*
X125738095Y-116311961D02*
X125642857Y-116407200D01*
X125642857Y-116407200D02*
X125500000Y-116454819D01*
X125500000Y-116454819D02*
X125261905Y-116454819D01*
X126738095Y-115454819D02*
X126261905Y-115454819D01*
X126261905Y-115454819D02*
X126214286Y-115931009D01*
X126214286Y-115931009D02*
X126261905Y-115883390D01*
X126261905Y-115883390D02*
X126357143Y-115835771D01*
X126357143Y-115835771D02*
X126595238Y-115835771D01*
X126595238Y-115835771D02*
X126690476Y-115883390D01*
X126690476Y-115883390D02*
X126738095Y-115931009D01*
X126738095Y-115931009D02*
X126785714Y-116026247D01*
X126785714Y-116026247D02*
X126785714Y-116264342D01*
X126785714Y-116264342D02*
X126738095Y-116359580D01*
X126738095Y-116359580D02*
X126690476Y-116407200D01*
X126690476Y-116407200D02*
X126595238Y-116454819D01*
X126595238Y-116454819D02*
X126357143Y-116454819D01*
X126357143Y-116454819D02*
X126261905Y-116407200D01*
X126261905Y-116407200D02*
X126214286Y-116359580D01*
X108580952Y-84454819D02*
X108247619Y-83978628D01*
X108009524Y-84454819D02*
X108009524Y-83454819D01*
X108009524Y-83454819D02*
X108390476Y-83454819D01*
X108390476Y-83454819D02*
X108485714Y-83502438D01*
X108485714Y-83502438D02*
X108533333Y-83550057D01*
X108533333Y-83550057D02*
X108580952Y-83645295D01*
X108580952Y-83645295D02*
X108580952Y-83788152D01*
X108580952Y-83788152D02*
X108533333Y-83883390D01*
X108533333Y-83883390D02*
X108485714Y-83931009D01*
X108485714Y-83931009D02*
X108390476Y-83978628D01*
X108390476Y-83978628D02*
X108009524Y-83978628D01*
X109009524Y-84454819D02*
X109009524Y-83454819D01*
X109961904Y-84454819D02*
X109485714Y-84454819D01*
X109485714Y-84454819D02*
X109485714Y-83454819D01*
X110295238Y-84454819D02*
X110295238Y-83454819D01*
X110771428Y-84454819D02*
X110771428Y-83454819D01*
X110771428Y-83454819D02*
X111104761Y-84169104D01*
X111104761Y-84169104D02*
X111438094Y-83454819D01*
X111438094Y-83454819D02*
X111438094Y-84454819D01*
X112342856Y-83788152D02*
X112342856Y-84454819D01*
X112104761Y-83407200D02*
X111866666Y-84121485D01*
X111866666Y-84121485D02*
X112485713Y-84121485D01*
X125761905Y-93754819D02*
X125761905Y-92754819D01*
X125761905Y-92754819D02*
X126000000Y-92754819D01*
X126000000Y-92754819D02*
X126142857Y-92802438D01*
X126142857Y-92802438D02*
X126238095Y-92897676D01*
X126238095Y-92897676D02*
X126285714Y-92992914D01*
X126285714Y-92992914D02*
X126333333Y-93183390D01*
X126333333Y-93183390D02*
X126333333Y-93326247D01*
X126333333Y-93326247D02*
X126285714Y-93516723D01*
X126285714Y-93516723D02*
X126238095Y-93611961D01*
X126238095Y-93611961D02*
X126142857Y-93707200D01*
X126142857Y-93707200D02*
X126000000Y-93754819D01*
X126000000Y-93754819D02*
X125761905Y-93754819D01*
X126666667Y-92754819D02*
X127285714Y-92754819D01*
X127285714Y-92754819D02*
X126952381Y-93135771D01*
X126952381Y-93135771D02*
X127095238Y-93135771D01*
X127095238Y-93135771D02*
X127190476Y-93183390D01*
X127190476Y-93183390D02*
X127238095Y-93231009D01*
X127238095Y-93231009D02*
X127285714Y-93326247D01*
X127285714Y-93326247D02*
X127285714Y-93564342D01*
X127285714Y-93564342D02*
X127238095Y-93659580D01*
X127238095Y-93659580D02*
X127190476Y-93707200D01*
X127190476Y-93707200D02*
X127095238Y-93754819D01*
X127095238Y-93754819D02*
X126809524Y-93754819D01*
X126809524Y-93754819D02*
X126714286Y-93707200D01*
X126714286Y-93707200D02*
X126666667Y-93659580D01*
X99523809Y-77938485D02*
X99447619Y-77900390D01*
X99447619Y-77900390D02*
X99371428Y-77824200D01*
X99371428Y-77824200D02*
X99257142Y-77709914D01*
X99257142Y-77709914D02*
X99180952Y-77671819D01*
X99180952Y-77671819D02*
X99104761Y-77671819D01*
X99142857Y-77862295D02*
X99066666Y-77824200D01*
X99066666Y-77824200D02*
X98990476Y-77748009D01*
X98990476Y-77748009D02*
X98952380Y-77595628D01*
X98952380Y-77595628D02*
X98952380Y-77328961D01*
X98952380Y-77328961D02*
X98990476Y-77176580D01*
X98990476Y-77176580D02*
X99066666Y-77100390D01*
X99066666Y-77100390D02*
X99142857Y-77062295D01*
X99142857Y-77062295D02*
X99295238Y-77062295D01*
X99295238Y-77062295D02*
X99371428Y-77100390D01*
X99371428Y-77100390D02*
X99447619Y-77176580D01*
X99447619Y-77176580D02*
X99485714Y-77328961D01*
X99485714Y-77328961D02*
X99485714Y-77595628D01*
X99485714Y-77595628D02*
X99447619Y-77748009D01*
X99447619Y-77748009D02*
X99371428Y-77824200D01*
X99371428Y-77824200D02*
X99295238Y-77862295D01*
X99295238Y-77862295D02*
X99142857Y-77862295D01*
X100247618Y-77862295D02*
X99790475Y-77862295D01*
X100019047Y-77862295D02*
X100019047Y-77062295D01*
X100019047Y-77062295D02*
X99942856Y-77176580D01*
X99942856Y-77176580D02*
X99866666Y-77252771D01*
X99866666Y-77252771D02*
X99790475Y-77290866D01*
X114376190Y-88054819D02*
X114042857Y-87578628D01*
X113804762Y-88054819D02*
X113804762Y-87054819D01*
X113804762Y-87054819D02*
X114185714Y-87054819D01*
X114185714Y-87054819D02*
X114280952Y-87102438D01*
X114280952Y-87102438D02*
X114328571Y-87150057D01*
X114328571Y-87150057D02*
X114376190Y-87245295D01*
X114376190Y-87245295D02*
X114376190Y-87388152D01*
X114376190Y-87388152D02*
X114328571Y-87483390D01*
X114328571Y-87483390D02*
X114280952Y-87531009D01*
X114280952Y-87531009D02*
X114185714Y-87578628D01*
X114185714Y-87578628D02*
X113804762Y-87578628D01*
X114804762Y-88054819D02*
X114804762Y-87054819D01*
X115280952Y-88054819D02*
X115280952Y-87054819D01*
X115280952Y-87054819D02*
X115614285Y-87769104D01*
X115614285Y-87769104D02*
X115947618Y-87054819D01*
X115947618Y-87054819D02*
X115947618Y-88054819D01*
X116614285Y-87054819D02*
X116804761Y-87054819D01*
X116804761Y-87054819D02*
X116899999Y-87102438D01*
X116899999Y-87102438D02*
X116995237Y-87197676D01*
X116995237Y-87197676D02*
X117042856Y-87388152D01*
X117042856Y-87388152D02*
X117042856Y-87721485D01*
X117042856Y-87721485D02*
X116995237Y-87911961D01*
X116995237Y-87911961D02*
X116899999Y-88007200D01*
X116899999Y-88007200D02*
X116804761Y-88054819D01*
X116804761Y-88054819D02*
X116614285Y-88054819D01*
X116614285Y-88054819D02*
X116519047Y-88007200D01*
X116519047Y-88007200D02*
X116423809Y-87911961D01*
X116423809Y-87911961D02*
X116376190Y-87721485D01*
X116376190Y-87721485D02*
X116376190Y-87388152D01*
X116376190Y-87388152D02*
X116423809Y-87197676D01*
X116423809Y-87197676D02*
X116519047Y-87102438D01*
X116519047Y-87102438D02*
X116614285Y-87054819D01*
X117471428Y-88054819D02*
X117471428Y-87054819D01*
X117471428Y-87054819D02*
X118042856Y-88054819D01*
X118042856Y-88054819D02*
X118042856Y-87054819D01*
X119042856Y-88054819D02*
X118471428Y-88054819D01*
X118757142Y-88054819D02*
X118757142Y-87054819D01*
X118757142Y-87054819D02*
X118661904Y-87197676D01*
X118661904Y-87197676D02*
X118566666Y-87292914D01*
X118566666Y-87292914D02*
X118471428Y-87340533D01*
X105557142Y-84959580D02*
X105509523Y-85007200D01*
X105509523Y-85007200D02*
X105366666Y-85054819D01*
X105366666Y-85054819D02*
X105271428Y-85054819D01*
X105271428Y-85054819D02*
X105128571Y-85007200D01*
X105128571Y-85007200D02*
X105033333Y-84911961D01*
X105033333Y-84911961D02*
X104985714Y-84816723D01*
X104985714Y-84816723D02*
X104938095Y-84626247D01*
X104938095Y-84626247D02*
X104938095Y-84483390D01*
X104938095Y-84483390D02*
X104985714Y-84292914D01*
X104985714Y-84292914D02*
X105033333Y-84197676D01*
X105033333Y-84197676D02*
X105128571Y-84102438D01*
X105128571Y-84102438D02*
X105271428Y-84054819D01*
X105271428Y-84054819D02*
X105366666Y-84054819D01*
X105366666Y-84054819D02*
X105509523Y-84102438D01*
X105509523Y-84102438D02*
X105557142Y-84150057D01*
X106509523Y-85054819D02*
X105938095Y-85054819D01*
X106223809Y-85054819D02*
X106223809Y-84054819D01*
X106223809Y-84054819D02*
X106128571Y-84197676D01*
X106128571Y-84197676D02*
X106033333Y-84292914D01*
X106033333Y-84292914D02*
X105938095Y-84340533D01*
X107461904Y-85054819D02*
X106890476Y-85054819D01*
X107176190Y-85054819D02*
X107176190Y-84054819D01*
X107176190Y-84054819D02*
X107080952Y-84197676D01*
X107080952Y-84197676D02*
X106985714Y-84292914D01*
X106985714Y-84292914D02*
X106890476Y-84340533D01*
X123833333Y-111454819D02*
X123500000Y-110978628D01*
X123261905Y-111454819D02*
X123261905Y-110454819D01*
X123261905Y-110454819D02*
X123642857Y-110454819D01*
X123642857Y-110454819D02*
X123738095Y-110502438D01*
X123738095Y-110502438D02*
X123785714Y-110550057D01*
X123785714Y-110550057D02*
X123833333Y-110645295D01*
X123833333Y-110645295D02*
X123833333Y-110788152D01*
X123833333Y-110788152D02*
X123785714Y-110883390D01*
X123785714Y-110883390D02*
X123738095Y-110931009D01*
X123738095Y-110931009D02*
X123642857Y-110978628D01*
X123642857Y-110978628D02*
X123261905Y-110978628D01*
X124166667Y-110454819D02*
X124833333Y-110454819D01*
X124833333Y-110454819D02*
X124404762Y-111454819D01*
X102157142Y-101639580D02*
X102109523Y-101687200D01*
X102109523Y-101687200D02*
X101966666Y-101734819D01*
X101966666Y-101734819D02*
X101871428Y-101734819D01*
X101871428Y-101734819D02*
X101728571Y-101687200D01*
X101728571Y-101687200D02*
X101633333Y-101591961D01*
X101633333Y-101591961D02*
X101585714Y-101496723D01*
X101585714Y-101496723D02*
X101538095Y-101306247D01*
X101538095Y-101306247D02*
X101538095Y-101163390D01*
X101538095Y-101163390D02*
X101585714Y-100972914D01*
X101585714Y-100972914D02*
X101633333Y-100877676D01*
X101633333Y-100877676D02*
X101728571Y-100782438D01*
X101728571Y-100782438D02*
X101871428Y-100734819D01*
X101871428Y-100734819D02*
X101966666Y-100734819D01*
X101966666Y-100734819D02*
X102109523Y-100782438D01*
X102109523Y-100782438D02*
X102157142Y-100830057D01*
X103109523Y-101734819D02*
X102538095Y-101734819D01*
X102823809Y-101734819D02*
X102823809Y-100734819D01*
X102823809Y-100734819D02*
X102728571Y-100877676D01*
X102728571Y-100877676D02*
X102633333Y-100972914D01*
X102633333Y-100972914D02*
X102538095Y-101020533D01*
X104014285Y-100734819D02*
X103538095Y-100734819D01*
X103538095Y-100734819D02*
X103490476Y-101211009D01*
X103490476Y-101211009D02*
X103538095Y-101163390D01*
X103538095Y-101163390D02*
X103633333Y-101115771D01*
X103633333Y-101115771D02*
X103871428Y-101115771D01*
X103871428Y-101115771D02*
X103966666Y-101163390D01*
X103966666Y-101163390D02*
X104014285Y-101211009D01*
X104014285Y-101211009D02*
X104061904Y-101306247D01*
X104061904Y-101306247D02*
X104061904Y-101544342D01*
X104061904Y-101544342D02*
X104014285Y-101639580D01*
X104014285Y-101639580D02*
X103966666Y-101687200D01*
X103966666Y-101687200D02*
X103871428Y-101734819D01*
X103871428Y-101734819D02*
X103633333Y-101734819D01*
X103633333Y-101734819D02*
X103538095Y-101687200D01*
X103538095Y-101687200D02*
X103490476Y-101639580D01*
X94170833Y-77479580D02*
X94123214Y-77527200D01*
X94123214Y-77527200D02*
X93980357Y-77574819D01*
X93980357Y-77574819D02*
X93885119Y-77574819D01*
X93885119Y-77574819D02*
X93742262Y-77527200D01*
X93742262Y-77527200D02*
X93647024Y-77431961D01*
X93647024Y-77431961D02*
X93599405Y-77336723D01*
X93599405Y-77336723D02*
X93551786Y-77146247D01*
X93551786Y-77146247D02*
X93551786Y-77003390D01*
X93551786Y-77003390D02*
X93599405Y-76812914D01*
X93599405Y-76812914D02*
X93647024Y-76717676D01*
X93647024Y-76717676D02*
X93742262Y-76622438D01*
X93742262Y-76622438D02*
X93885119Y-76574819D01*
X93885119Y-76574819D02*
X93980357Y-76574819D01*
X93980357Y-76574819D02*
X94123214Y-76622438D01*
X94123214Y-76622438D02*
X94170833Y-76670057D01*
X95123214Y-77574819D02*
X94551786Y-77574819D01*
X94837500Y-77574819D02*
X94837500Y-76574819D01*
X94837500Y-76574819D02*
X94742262Y-76717676D01*
X94742262Y-76717676D02*
X94647024Y-76812914D01*
X94647024Y-76812914D02*
X94551786Y-76860533D01*
X108413095Y-76319819D02*
X108413095Y-77129342D01*
X108413095Y-77129342D02*
X108460714Y-77224580D01*
X108460714Y-77224580D02*
X108508333Y-77272200D01*
X108508333Y-77272200D02*
X108603571Y-77319819D01*
X108603571Y-77319819D02*
X108794047Y-77319819D01*
X108794047Y-77319819D02*
X108889285Y-77272200D01*
X108889285Y-77272200D02*
X108936904Y-77224580D01*
X108936904Y-77224580D02*
X108984523Y-77129342D01*
X108984523Y-77129342D02*
X108984523Y-76319819D01*
X109365476Y-76319819D02*
X110032142Y-76319819D01*
X110032142Y-76319819D02*
X109603571Y-77319819D01*
X120380952Y-116454819D02*
X120047619Y-115978628D01*
X119809524Y-116454819D02*
X119809524Y-115454819D01*
X119809524Y-115454819D02*
X120190476Y-115454819D01*
X120190476Y-115454819D02*
X120285714Y-115502438D01*
X120285714Y-115502438D02*
X120333333Y-115550057D01*
X120333333Y-115550057D02*
X120380952Y-115645295D01*
X120380952Y-115645295D02*
X120380952Y-115788152D01*
X120380952Y-115788152D02*
X120333333Y-115883390D01*
X120333333Y-115883390D02*
X120285714Y-115931009D01*
X120285714Y-115931009D02*
X120190476Y-115978628D01*
X120190476Y-115978628D02*
X119809524Y-115978628D01*
X120809524Y-116454819D02*
X120809524Y-115454819D01*
X121761904Y-116454819D02*
X121285714Y-116454819D01*
X121285714Y-116454819D02*
X121285714Y-115454819D01*
X122095238Y-116454819D02*
X122095238Y-115454819D01*
X122571428Y-116454819D02*
X122571428Y-115454819D01*
X122571428Y-115454819D02*
X122904761Y-116169104D01*
X122904761Y-116169104D02*
X123238094Y-115454819D01*
X123238094Y-115454819D02*
X123238094Y-116454819D01*
X123619047Y-115454819D02*
X124238094Y-115454819D01*
X124238094Y-115454819D02*
X123904761Y-115835771D01*
X123904761Y-115835771D02*
X124047618Y-115835771D01*
X124047618Y-115835771D02*
X124142856Y-115883390D01*
X124142856Y-115883390D02*
X124190475Y-115931009D01*
X124190475Y-115931009D02*
X124238094Y-116026247D01*
X124238094Y-116026247D02*
X124238094Y-116264342D01*
X124238094Y-116264342D02*
X124190475Y-116359580D01*
X124190475Y-116359580D02*
X124142856Y-116407200D01*
X124142856Y-116407200D02*
X124047618Y-116454819D01*
X124047618Y-116454819D02*
X123761904Y-116454819D01*
X123761904Y-116454819D02*
X123666666Y-116407200D01*
X123666666Y-116407200D02*
X123619047Y-116359580D01*
X112580952Y-99454819D02*
X112247619Y-98978628D01*
X112009524Y-99454819D02*
X112009524Y-98454819D01*
X112009524Y-98454819D02*
X112390476Y-98454819D01*
X112390476Y-98454819D02*
X112485714Y-98502438D01*
X112485714Y-98502438D02*
X112533333Y-98550057D01*
X112533333Y-98550057D02*
X112580952Y-98645295D01*
X112580952Y-98645295D02*
X112580952Y-98788152D01*
X112580952Y-98788152D02*
X112533333Y-98883390D01*
X112533333Y-98883390D02*
X112485714Y-98931009D01*
X112485714Y-98931009D02*
X112390476Y-98978628D01*
X112390476Y-98978628D02*
X112009524Y-98978628D01*
X113009524Y-99454819D02*
X113009524Y-98454819D01*
X113961904Y-99454819D02*
X113485714Y-99454819D01*
X113485714Y-99454819D02*
X113485714Y-98454819D01*
X114295238Y-99454819D02*
X114295238Y-98454819D01*
X114771428Y-99454819D02*
X114771428Y-98454819D01*
X114771428Y-98454819D02*
X115104761Y-99169104D01*
X115104761Y-99169104D02*
X115438094Y-98454819D01*
X115438094Y-98454819D02*
X115438094Y-99454819D01*
X116438094Y-99454819D02*
X115866666Y-99454819D01*
X116152380Y-99454819D02*
X116152380Y-98454819D01*
X116152380Y-98454819D02*
X116057142Y-98597676D01*
X116057142Y-98597676D02*
X115961904Y-98692914D01*
X115961904Y-98692914D02*
X115866666Y-98740533D01*
X107738095Y-99654819D02*
X107738095Y-100464342D01*
X107738095Y-100464342D02*
X107785714Y-100559580D01*
X107785714Y-100559580D02*
X107833333Y-100607200D01*
X107833333Y-100607200D02*
X107928571Y-100654819D01*
X107928571Y-100654819D02*
X108119047Y-100654819D01*
X108119047Y-100654819D02*
X108214285Y-100607200D01*
X108214285Y-100607200D02*
X108261904Y-100559580D01*
X108261904Y-100559580D02*
X108309523Y-100464342D01*
X108309523Y-100464342D02*
X108309523Y-99654819D01*
X108738095Y-99750057D02*
X108785714Y-99702438D01*
X108785714Y-99702438D02*
X108880952Y-99654819D01*
X108880952Y-99654819D02*
X109119047Y-99654819D01*
X109119047Y-99654819D02*
X109214285Y-99702438D01*
X109214285Y-99702438D02*
X109261904Y-99750057D01*
X109261904Y-99750057D02*
X109309523Y-99845295D01*
X109309523Y-99845295D02*
X109309523Y-99940533D01*
X109309523Y-99940533D02*
X109261904Y-100083390D01*
X109261904Y-100083390D02*
X108690476Y-100654819D01*
X108690476Y-100654819D02*
X109309523Y-100654819D01*
X107238095Y-109954819D02*
X107238095Y-110764342D01*
X107238095Y-110764342D02*
X107285714Y-110859580D01*
X107285714Y-110859580D02*
X107333333Y-110907200D01*
X107333333Y-110907200D02*
X107428571Y-110954819D01*
X107428571Y-110954819D02*
X107619047Y-110954819D01*
X107619047Y-110954819D02*
X107714285Y-110907200D01*
X107714285Y-110907200D02*
X107761904Y-110859580D01*
X107761904Y-110859580D02*
X107809523Y-110764342D01*
X107809523Y-110764342D02*
X107809523Y-109954819D01*
X108190476Y-109954819D02*
X108809523Y-109954819D01*
X108809523Y-109954819D02*
X108476190Y-110335771D01*
X108476190Y-110335771D02*
X108619047Y-110335771D01*
X108619047Y-110335771D02*
X108714285Y-110383390D01*
X108714285Y-110383390D02*
X108761904Y-110431009D01*
X108761904Y-110431009D02*
X108809523Y-110526247D01*
X108809523Y-110526247D02*
X108809523Y-110764342D01*
X108809523Y-110764342D02*
X108761904Y-110859580D01*
X108761904Y-110859580D02*
X108714285Y-110907200D01*
X108714285Y-110907200D02*
X108619047Y-110954819D01*
X108619047Y-110954819D02*
X108333333Y-110954819D01*
X108333333Y-110954819D02*
X108238095Y-110907200D01*
X108238095Y-110907200D02*
X108190476Y-110859580D01*
X112180952Y-109854819D02*
X111847619Y-109378628D01*
X111609524Y-109854819D02*
X111609524Y-108854819D01*
X111609524Y-108854819D02*
X111990476Y-108854819D01*
X111990476Y-108854819D02*
X112085714Y-108902438D01*
X112085714Y-108902438D02*
X112133333Y-108950057D01*
X112133333Y-108950057D02*
X112180952Y-109045295D01*
X112180952Y-109045295D02*
X112180952Y-109188152D01*
X112180952Y-109188152D02*
X112133333Y-109283390D01*
X112133333Y-109283390D02*
X112085714Y-109331009D01*
X112085714Y-109331009D02*
X111990476Y-109378628D01*
X111990476Y-109378628D02*
X111609524Y-109378628D01*
X112609524Y-109854819D02*
X112609524Y-108854819D01*
X113561904Y-109854819D02*
X113085714Y-109854819D01*
X113085714Y-109854819D02*
X113085714Y-108854819D01*
X113895238Y-109854819D02*
X113895238Y-108854819D01*
X114371428Y-109854819D02*
X114371428Y-108854819D01*
X114371428Y-108854819D02*
X114704761Y-109569104D01*
X114704761Y-109569104D02*
X115038094Y-108854819D01*
X115038094Y-108854819D02*
X115038094Y-109854819D01*
X115466666Y-108950057D02*
X115514285Y-108902438D01*
X115514285Y-108902438D02*
X115609523Y-108854819D01*
X115609523Y-108854819D02*
X115847618Y-108854819D01*
X115847618Y-108854819D02*
X115942856Y-108902438D01*
X115942856Y-108902438D02*
X115990475Y-108950057D01*
X115990475Y-108950057D02*
X116038094Y-109045295D01*
X116038094Y-109045295D02*
X116038094Y-109140533D01*
X116038094Y-109140533D02*
X115990475Y-109283390D01*
X115990475Y-109283390D02*
X115419047Y-109854819D01*
X115419047Y-109854819D02*
X116038094Y-109854819D01*
X108038095Y-89454819D02*
X108038095Y-90264342D01*
X108038095Y-90264342D02*
X108085714Y-90359580D01*
X108085714Y-90359580D02*
X108133333Y-90407200D01*
X108133333Y-90407200D02*
X108228571Y-90454819D01*
X108228571Y-90454819D02*
X108419047Y-90454819D01*
X108419047Y-90454819D02*
X108514285Y-90407200D01*
X108514285Y-90407200D02*
X108561904Y-90359580D01*
X108561904Y-90359580D02*
X108609523Y-90264342D01*
X108609523Y-90264342D02*
X108609523Y-89454819D01*
X109609523Y-90454819D02*
X109038095Y-90454819D01*
X109323809Y-90454819D02*
X109323809Y-89454819D01*
X109323809Y-89454819D02*
X109228571Y-89597676D01*
X109228571Y-89597676D02*
X109133333Y-89692914D01*
X109133333Y-89692914D02*
X109038095Y-89740533D01*
X125661905Y-105554819D02*
X125661905Y-104554819D01*
X125661905Y-104554819D02*
X125900000Y-104554819D01*
X125900000Y-104554819D02*
X126042857Y-104602438D01*
X126042857Y-104602438D02*
X126138095Y-104697676D01*
X126138095Y-104697676D02*
X126185714Y-104792914D01*
X126185714Y-104792914D02*
X126233333Y-104983390D01*
X126233333Y-104983390D02*
X126233333Y-105126247D01*
X126233333Y-105126247D02*
X126185714Y-105316723D01*
X126185714Y-105316723D02*
X126138095Y-105411961D01*
X126138095Y-105411961D02*
X126042857Y-105507200D01*
X126042857Y-105507200D02*
X125900000Y-105554819D01*
X125900000Y-105554819D02*
X125661905Y-105554819D01*
X127090476Y-104888152D02*
X127090476Y-105554819D01*
X126852381Y-104507200D02*
X126614286Y-105221485D01*
X126614286Y-105221485D02*
X127233333Y-105221485D01*
X94333333Y-88954819D02*
X94000000Y-88478628D01*
X93761905Y-88954819D02*
X93761905Y-87954819D01*
X93761905Y-87954819D02*
X94142857Y-87954819D01*
X94142857Y-87954819D02*
X94238095Y-88002438D01*
X94238095Y-88002438D02*
X94285714Y-88050057D01*
X94285714Y-88050057D02*
X94333333Y-88145295D01*
X94333333Y-88145295D02*
X94333333Y-88288152D01*
X94333333Y-88288152D02*
X94285714Y-88383390D01*
X94285714Y-88383390D02*
X94238095Y-88431009D01*
X94238095Y-88431009D02*
X94142857Y-88478628D01*
X94142857Y-88478628D02*
X93761905Y-88478628D01*
X95285714Y-88954819D02*
X94714286Y-88954819D01*
X95000000Y-88954819D02*
X95000000Y-87954819D01*
X95000000Y-87954819D02*
X94904762Y-88097676D01*
X94904762Y-88097676D02*
X94809524Y-88192914D01*
X94809524Y-88192914D02*
X94714286Y-88240533D01*
X102333333Y-88954819D02*
X102000000Y-88478628D01*
X101761905Y-88954819D02*
X101761905Y-87954819D01*
X101761905Y-87954819D02*
X102142857Y-87954819D01*
X102142857Y-87954819D02*
X102238095Y-88002438D01*
X102238095Y-88002438D02*
X102285714Y-88050057D01*
X102285714Y-88050057D02*
X102333333Y-88145295D01*
X102333333Y-88145295D02*
X102333333Y-88288152D01*
X102333333Y-88288152D02*
X102285714Y-88383390D01*
X102285714Y-88383390D02*
X102238095Y-88431009D01*
X102238095Y-88431009D02*
X102142857Y-88478628D01*
X102142857Y-88478628D02*
X101761905Y-88478628D01*
X102666667Y-87954819D02*
X103285714Y-87954819D01*
X103285714Y-87954819D02*
X102952381Y-88335771D01*
X102952381Y-88335771D02*
X103095238Y-88335771D01*
X103095238Y-88335771D02*
X103190476Y-88383390D01*
X103190476Y-88383390D02*
X103238095Y-88431009D01*
X103238095Y-88431009D02*
X103285714Y-88526247D01*
X103285714Y-88526247D02*
X103285714Y-88764342D01*
X103285714Y-88764342D02*
X103238095Y-88859580D01*
X103238095Y-88859580D02*
X103190476Y-88907200D01*
X103190476Y-88907200D02*
X103095238Y-88954819D01*
X103095238Y-88954819D02*
X102809524Y-88954819D01*
X102809524Y-88954819D02*
X102714286Y-88907200D01*
X102714286Y-88907200D02*
X102666667Y-88859580D01*
X94461905Y-72054819D02*
X94461905Y-71054819D01*
X94461905Y-71054819D02*
X94700000Y-71054819D01*
X94700000Y-71054819D02*
X94842857Y-71102438D01*
X94842857Y-71102438D02*
X94938095Y-71197676D01*
X94938095Y-71197676D02*
X94985714Y-71292914D01*
X94985714Y-71292914D02*
X95033333Y-71483390D01*
X95033333Y-71483390D02*
X95033333Y-71626247D01*
X95033333Y-71626247D02*
X94985714Y-71816723D01*
X94985714Y-71816723D02*
X94938095Y-71911961D01*
X94938095Y-71911961D02*
X94842857Y-72007200D01*
X94842857Y-72007200D02*
X94700000Y-72054819D01*
X94700000Y-72054819D02*
X94461905Y-72054819D01*
X95985714Y-72054819D02*
X95414286Y-72054819D01*
X95700000Y-72054819D02*
X95700000Y-71054819D01*
X95700000Y-71054819D02*
X95604762Y-71197676D01*
X95604762Y-71197676D02*
X95509524Y-71292914D01*
X95509524Y-71292914D02*
X95414286Y-71340533D01*
X123833333Y-100967319D02*
X123500000Y-100491128D01*
X123261905Y-100967319D02*
X123261905Y-99967319D01*
X123261905Y-99967319D02*
X123642857Y-99967319D01*
X123642857Y-99967319D02*
X123738095Y-100014938D01*
X123738095Y-100014938D02*
X123785714Y-100062557D01*
X123785714Y-100062557D02*
X123833333Y-100157795D01*
X123833333Y-100157795D02*
X123833333Y-100300652D01*
X123833333Y-100300652D02*
X123785714Y-100395890D01*
X123785714Y-100395890D02*
X123738095Y-100443509D01*
X123738095Y-100443509D02*
X123642857Y-100491128D01*
X123642857Y-100491128D02*
X123261905Y-100491128D01*
X124690476Y-99967319D02*
X124500000Y-99967319D01*
X124500000Y-99967319D02*
X124404762Y-100014938D01*
X124404762Y-100014938D02*
X124357143Y-100062557D01*
X124357143Y-100062557D02*
X124261905Y-100205414D01*
X124261905Y-100205414D02*
X124214286Y-100395890D01*
X124214286Y-100395890D02*
X124214286Y-100776842D01*
X124214286Y-100776842D02*
X124261905Y-100872080D01*
X124261905Y-100872080D02*
X124309524Y-100919700D01*
X124309524Y-100919700D02*
X124404762Y-100967319D01*
X124404762Y-100967319D02*
X124595238Y-100967319D01*
X124595238Y-100967319D02*
X124690476Y-100919700D01*
X124690476Y-100919700D02*
X124738095Y-100872080D01*
X124738095Y-100872080D02*
X124785714Y-100776842D01*
X124785714Y-100776842D02*
X124785714Y-100538747D01*
X124785714Y-100538747D02*
X124738095Y-100443509D01*
X124738095Y-100443509D02*
X124690476Y-100395890D01*
X124690476Y-100395890D02*
X124595238Y-100348271D01*
X124595238Y-100348271D02*
X124404762Y-100348271D01*
X124404762Y-100348271D02*
X124309524Y-100395890D01*
X124309524Y-100395890D02*
X124261905Y-100443509D01*
X124261905Y-100443509D02*
X124214286Y-100538747D01*
X114957142Y-80479580D02*
X114909523Y-80527200D01*
X114909523Y-80527200D02*
X114766666Y-80574819D01*
X114766666Y-80574819D02*
X114671428Y-80574819D01*
X114671428Y-80574819D02*
X114528571Y-80527200D01*
X114528571Y-80527200D02*
X114433333Y-80431961D01*
X114433333Y-80431961D02*
X114385714Y-80336723D01*
X114385714Y-80336723D02*
X114338095Y-80146247D01*
X114338095Y-80146247D02*
X114338095Y-80003390D01*
X114338095Y-80003390D02*
X114385714Y-79812914D01*
X114385714Y-79812914D02*
X114433333Y-79717676D01*
X114433333Y-79717676D02*
X114528571Y-79622438D01*
X114528571Y-79622438D02*
X114671428Y-79574819D01*
X114671428Y-79574819D02*
X114766666Y-79574819D01*
X114766666Y-79574819D02*
X114909523Y-79622438D01*
X114909523Y-79622438D02*
X114957142Y-79670057D01*
X115909523Y-80574819D02*
X115338095Y-80574819D01*
X115623809Y-80574819D02*
X115623809Y-79574819D01*
X115623809Y-79574819D02*
X115528571Y-79717676D01*
X115528571Y-79717676D02*
X115433333Y-79812914D01*
X115433333Y-79812914D02*
X115338095Y-79860533D01*
X116528571Y-79574819D02*
X116623809Y-79574819D01*
X116623809Y-79574819D02*
X116719047Y-79622438D01*
X116719047Y-79622438D02*
X116766666Y-79670057D01*
X116766666Y-79670057D02*
X116814285Y-79765295D01*
X116814285Y-79765295D02*
X116861904Y-79955771D01*
X116861904Y-79955771D02*
X116861904Y-80193866D01*
X116861904Y-80193866D02*
X116814285Y-80384342D01*
X116814285Y-80384342D02*
X116766666Y-80479580D01*
X116766666Y-80479580D02*
X116719047Y-80527200D01*
X116719047Y-80527200D02*
X116623809Y-80574819D01*
X116623809Y-80574819D02*
X116528571Y-80574819D01*
X116528571Y-80574819D02*
X116433333Y-80527200D01*
X116433333Y-80527200D02*
X116385714Y-80479580D01*
X116385714Y-80479580D02*
X116338095Y-80384342D01*
X116338095Y-80384342D02*
X116290476Y-80193866D01*
X116290476Y-80193866D02*
X116290476Y-79955771D01*
X116290476Y-79955771D02*
X116338095Y-79765295D01*
X116338095Y-79765295D02*
X116385714Y-79670057D01*
X116385714Y-79670057D02*
X116433333Y-79622438D01*
X116433333Y-79622438D02*
X116528571Y-79574819D01*
X123833333Y-94804819D02*
X123500000Y-94328628D01*
X123261905Y-94804819D02*
X123261905Y-93804819D01*
X123261905Y-93804819D02*
X123642857Y-93804819D01*
X123642857Y-93804819D02*
X123738095Y-93852438D01*
X123738095Y-93852438D02*
X123785714Y-93900057D01*
X123785714Y-93900057D02*
X123833333Y-93995295D01*
X123833333Y-93995295D02*
X123833333Y-94138152D01*
X123833333Y-94138152D02*
X123785714Y-94233390D01*
X123785714Y-94233390D02*
X123738095Y-94281009D01*
X123738095Y-94281009D02*
X123642857Y-94328628D01*
X123642857Y-94328628D02*
X123261905Y-94328628D01*
X124738095Y-93804819D02*
X124261905Y-93804819D01*
X124261905Y-93804819D02*
X124214286Y-94281009D01*
X124214286Y-94281009D02*
X124261905Y-94233390D01*
X124261905Y-94233390D02*
X124357143Y-94185771D01*
X124357143Y-94185771D02*
X124595238Y-94185771D01*
X124595238Y-94185771D02*
X124690476Y-94233390D01*
X124690476Y-94233390D02*
X124738095Y-94281009D01*
X124738095Y-94281009D02*
X124785714Y-94376247D01*
X124785714Y-94376247D02*
X124785714Y-94614342D01*
X124785714Y-94614342D02*
X124738095Y-94709580D01*
X124738095Y-94709580D02*
X124690476Y-94757200D01*
X124690476Y-94757200D02*
X124595238Y-94804819D01*
X124595238Y-94804819D02*
X124357143Y-94804819D01*
X124357143Y-94804819D02*
X124261905Y-94757200D01*
X124261905Y-94757200D02*
X124214286Y-94709580D01*
X94467047Y-85344885D02*
X94406095Y-85306790D01*
X94406095Y-85306790D02*
X94345142Y-85230600D01*
X94345142Y-85230600D02*
X94253714Y-85116314D01*
X94253714Y-85116314D02*
X94192761Y-85078219D01*
X94192761Y-85078219D02*
X94131809Y-85078219D01*
X94162285Y-85268695D02*
X94101333Y-85230600D01*
X94101333Y-85230600D02*
X94040380Y-85154409D01*
X94040380Y-85154409D02*
X94009904Y-85002028D01*
X94009904Y-85002028D02*
X94009904Y-84735361D01*
X94009904Y-84735361D02*
X94040380Y-84582980D01*
X94040380Y-84582980D02*
X94101333Y-84506790D01*
X94101333Y-84506790D02*
X94162285Y-84468695D01*
X94162285Y-84468695D02*
X94284190Y-84468695D01*
X94284190Y-84468695D02*
X94345142Y-84506790D01*
X94345142Y-84506790D02*
X94406095Y-84582980D01*
X94406095Y-84582980D02*
X94436571Y-84735361D01*
X94436571Y-84735361D02*
X94436571Y-85002028D01*
X94436571Y-85002028D02*
X94406095Y-85154409D01*
X94406095Y-85154409D02*
X94345142Y-85230600D01*
X94345142Y-85230600D02*
X94284190Y-85268695D01*
X94284190Y-85268695D02*
X94162285Y-85268695D01*
X94680380Y-84544885D02*
X94710856Y-84506790D01*
X94710856Y-84506790D02*
X94771809Y-84468695D01*
X94771809Y-84468695D02*
X94924190Y-84468695D01*
X94924190Y-84468695D02*
X94985142Y-84506790D01*
X94985142Y-84506790D02*
X95015618Y-84544885D01*
X95015618Y-84544885D02*
X95046095Y-84621076D01*
X95046095Y-84621076D02*
X95046095Y-84697266D01*
X95046095Y-84697266D02*
X95015618Y-84811552D01*
X95015618Y-84811552D02*
X94649904Y-85268695D01*
X94649904Y-85268695D02*
X95046095Y-85268695D01*
X124733333Y-81004819D02*
X124400000Y-80528628D01*
X124161905Y-81004819D02*
X124161905Y-80004819D01*
X124161905Y-80004819D02*
X124542857Y-80004819D01*
X124542857Y-80004819D02*
X124638095Y-80052438D01*
X124638095Y-80052438D02*
X124685714Y-80100057D01*
X124685714Y-80100057D02*
X124733333Y-80195295D01*
X124733333Y-80195295D02*
X124733333Y-80338152D01*
X124733333Y-80338152D02*
X124685714Y-80433390D01*
X124685714Y-80433390D02*
X124638095Y-80481009D01*
X124638095Y-80481009D02*
X124542857Y-80528628D01*
X124542857Y-80528628D02*
X124161905Y-80528628D01*
X125590476Y-80338152D02*
X125590476Y-81004819D01*
X125352381Y-79957200D02*
X125114286Y-80671485D01*
X125114286Y-80671485D02*
X125733333Y-80671485D01*
D13*
%TO.C,R2*%
X98272936Y-85765000D02*
X98727064Y-85765000D01*
X98272936Y-87235000D02*
X98727064Y-87235000D01*
%TO.C,D2*%
X127565000Y-81837500D02*
X127565000Y-88997500D01*
X127565000Y-88997500D02*
X131435000Y-88997500D01*
X131435000Y-88997500D02*
X131435000Y-81837500D01*
%TO.C,D5*%
X127565000Y-110862500D02*
X127565000Y-118022500D01*
X127565000Y-118022500D02*
X131435000Y-118022500D01*
X131435000Y-118022500D02*
X131435000Y-110862500D01*
%TO.C,RILIM4*%
X109265000Y-87727064D02*
X109265000Y-87272936D01*
X110735000Y-87727064D02*
X110735000Y-87272936D01*
%TO.C,D3*%
X127565000Y-91837500D02*
X127565000Y-98997500D01*
X127565000Y-98997500D02*
X131435000Y-98997500D01*
X131435000Y-98997500D02*
X131435000Y-91837500D01*
D14*
%TO.C,Q1*%
X100725000Y-79815000D02*
X100725000Y-76515000D01*
X104025000Y-79815000D02*
X104025000Y-76515000D01*
D15*
X101075000Y-80515000D02*
G75*
G02*
X100875000Y-80515000I-100000J0D01*
G01*
X100875000Y-80515000D02*
G75*
G02*
X101075000Y-80515000I100000J0D01*
G01*
D13*
%TO.C,RIMON1*%
X111765000Y-87272936D02*
X111765000Y-87727064D01*
X113235000Y-87272936D02*
X113235000Y-87727064D01*
%TO.C,C11*%
X106765000Y-87201248D02*
X106765000Y-87723752D01*
X108235000Y-87201248D02*
X108235000Y-87723752D01*
%TO.C,R7*%
X123892936Y-111790000D02*
X124347064Y-111790000D01*
X123892936Y-113260000D02*
X124347064Y-113260000D01*
%TO.C,C15*%
X103061252Y-98865000D02*
X102538748Y-98865000D01*
X103061252Y-100335000D02*
X102538748Y-100335000D01*
%TO.C,C1*%
X94076248Y-78065000D02*
X94598752Y-78065000D01*
X94076248Y-79535000D02*
X94598752Y-79535000D01*
D14*
%TO.C,U7*%
X107000000Y-78500000D02*
X107000000Y-78795000D01*
X107000000Y-78500000D02*
X107295000Y-78500000D01*
X107000000Y-82500000D02*
X107000000Y-82205000D01*
X107000000Y-82500000D02*
X107295000Y-82500000D01*
X111000000Y-78500000D02*
X110705000Y-78500000D01*
X111000000Y-78500000D02*
X111000000Y-78795000D01*
X111000000Y-82500000D02*
X110705000Y-82500000D01*
X111000000Y-82500000D02*
X111000000Y-82205000D01*
D15*
X106125000Y-79250000D02*
G75*
G02*
X105925000Y-79250000I-100000J0D01*
G01*
X105925000Y-79250000D02*
G75*
G02*
X106125000Y-79250000I100000J0D01*
G01*
D13*
%TO.C,RILIM3*%
X117765000Y-116072936D02*
X117765000Y-116527064D01*
X119235000Y-116072936D02*
X119235000Y-116527064D01*
%TO.C,RILIM1*%
X109665000Y-99227064D02*
X109665000Y-98772936D01*
X111135000Y-99227064D02*
X111135000Y-98772936D01*
D14*
%TO.C,U2*%
X106587500Y-101762500D02*
X106587500Y-102057500D01*
X106587500Y-101762500D02*
X106882500Y-101762500D01*
X106587500Y-105762500D02*
X106587500Y-105467500D01*
X106587500Y-105762500D02*
X106882500Y-105762500D01*
X110587500Y-101762500D02*
X110292500Y-101762500D01*
X110587500Y-101762500D02*
X110587500Y-102057500D01*
X110587500Y-105762500D02*
X110292500Y-105762500D01*
X110587500Y-105762500D02*
X110587500Y-105467500D01*
D15*
X105712500Y-102512500D02*
G75*
G02*
X105512500Y-102512500I-100000J0D01*
G01*
X105512500Y-102512500D02*
G75*
G02*
X105712500Y-102512500I100000J0D01*
G01*
D14*
%TO.C,U3*%
X106587500Y-112250000D02*
X106587500Y-112545000D01*
X106587500Y-112250000D02*
X106882500Y-112250000D01*
X106587500Y-116250000D02*
X106587500Y-115955000D01*
X106587500Y-116250000D02*
X106882500Y-116250000D01*
X110587500Y-112250000D02*
X110292500Y-112250000D01*
X110587500Y-112250000D02*
X110587500Y-112545000D01*
X110587500Y-116250000D02*
X110292500Y-116250000D01*
X110587500Y-116250000D02*
X110587500Y-115955000D01*
D15*
X105712500Y-113000000D02*
G75*
G02*
X105512500Y-113000000I-100000J0D01*
G01*
X105512500Y-113000000D02*
G75*
G02*
X105712500Y-113000000I100000J0D01*
G01*
D13*
%TO.C,RILIM2*%
X109465000Y-109627064D02*
X109465000Y-109172936D01*
X110935000Y-109627064D02*
X110935000Y-109172936D01*
D14*
%TO.C,U1*%
X106687500Y-91150000D02*
X106687500Y-91445000D01*
X106687500Y-91150000D02*
X106982500Y-91150000D01*
X106687500Y-95150000D02*
X106687500Y-94855000D01*
X106687500Y-95150000D02*
X106982500Y-95150000D01*
X110687500Y-91150000D02*
X110392500Y-91150000D01*
X110687500Y-91150000D02*
X110687500Y-91445000D01*
X110687500Y-95150000D02*
X110392500Y-95150000D01*
X110687500Y-95150000D02*
X110687500Y-94855000D01*
D15*
X105812500Y-91900000D02*
G75*
G02*
X105612500Y-91900000I-100000J0D01*
G01*
X105612500Y-91900000D02*
G75*
G02*
X105812500Y-91900000I100000J0D01*
G01*
D13*
%TO.C,D4*%
X127565000Y-101850000D02*
X127565000Y-109010000D01*
X127565000Y-109010000D02*
X131435000Y-109010000D01*
X131435000Y-109010000D02*
X131435000Y-101850000D01*
%TO.C,R1*%
X94272936Y-85765000D02*
X94727064Y-85765000D01*
X94272936Y-87235000D02*
X94727064Y-87235000D01*
%TO.C,R3*%
X102272936Y-85765000D02*
X102727064Y-85765000D01*
X102272936Y-87235000D02*
X102727064Y-87235000D01*
D14*
%TO.C,D1*%
X97802500Y-69847500D02*
X97802500Y-70920000D01*
X97802500Y-75752500D02*
X97802500Y-74680000D01*
X97802500Y-75752500D02*
X104657500Y-75752500D01*
X104657500Y-69847500D02*
X97802500Y-69847500D01*
X104657500Y-70920000D02*
X104657500Y-69847500D01*
X104657500Y-75752500D02*
X104657500Y-74680000D01*
D13*
%TO.C,R6*%
X123772936Y-101277500D02*
X124227064Y-101277500D01*
X123772936Y-102747500D02*
X124227064Y-102747500D01*
%TO.C,C10*%
X115338748Y-81065000D02*
X115861252Y-81065000D01*
X115338748Y-82535000D02*
X115861252Y-82535000D01*
%TO.C,R5*%
X123772936Y-95265000D02*
X124227064Y-95265000D01*
X123772936Y-96735000D02*
X124227064Y-96735000D01*
D14*
%TO.C,Q2*%
X93910000Y-80930000D02*
X93910000Y-81880000D01*
X93910000Y-84070000D02*
X93910000Y-83120000D01*
X95210000Y-80930000D02*
X93910000Y-80930000D01*
X95210000Y-84070000D02*
X93910000Y-84070000D01*
D15*
X96910000Y-83800000D02*
G75*
G02*
X96710000Y-83800000I-100000J0D01*
G01*
X96710000Y-83800000D02*
G75*
G02*
X96910000Y-83800000I100000J0D01*
G01*
D13*
%TO.C,R4*%
X124672936Y-81465000D02*
X125127064Y-81465000D01*
X124672936Y-82935000D02*
X125127064Y-82935000D01*
%TD*%
M02*
