M48
; DRILL file {KiCad 8.0.6} date 2024-11-22T22:30:20-0500
; FORMAT={-:-/ absolute / inch / decimal}
; #@! TF.CreationDate,2024-11-22T22:30:20-05:00
; #@! TF.GenerationSoftware,Kicad,Pcbnew,8.0.6
; #@! TF.FileFunction,Plated,1,2,PTH
FMAT,2
INCH
; #@! TA.AperFunction,Plated,PTH,ComponentDrill
T1C0.0079
; #@! TA.AperFunction,Plated,PTH,ViaDrill
T2C0.0118
; #@! TA.AperFunction,Plated,PTH,ComponentDrill
T3C0.0827
%
G90
G05
T1
X4.2318Y-4.0851
X4.2318Y-4.498
X4.2357Y-3.6673
X4.248Y-3.1693
X4.2751Y-4.0418
X4.2751Y-4.0851
X4.2751Y-4.1284
X4.2751Y-4.4547
X4.2751Y-4.498
X4.2751Y-4.5413
X4.279Y-3.624
X4.279Y-3.6673
X4.279Y-3.7106
X4.2913Y-3.126
X4.2913Y-3.1693
X4.2913Y-3.2126
X4.3184Y-4.0851
X4.3184Y-4.498
X4.3223Y-3.6673
X4.3346Y-3.1693
T2
X3.7392Y-3.5092
X3.7402Y-3.1181
X3.7421Y-3.0854
X3.748Y-3.1496
X3.7677Y-3.1169
X3.7685Y-3.0862
X3.7901Y-3.2361
X3.7953Y-3.7165
X3.7953Y-4.1575
X3.7996Y-3.4067
X3.811Y-2.811
X3.811Y-2.8504
X3.811Y-2.8898
X3.811Y-2.9213
X3.8173Y-3.6846
X3.8199Y-4.1047
X3.83Y-3.3081
X3.8346Y-3.6378
X3.8425Y-4.0709
X3.8504Y-2.811
X3.8504Y-2.8504
X3.8504Y-2.8898
X3.8504Y-2.9213
X3.8583Y-3.6142
X3.874Y-4.0472
X3.8898Y-2.811
X3.8898Y-2.8504
X3.8898Y-2.8898
X3.8898Y-2.9213
X3.9949Y-3.9063
X4.0012Y-3.4004
X4.0154Y-3.9335
X4.0638Y-3.3906
X4.0866Y-3.4189
X4.0945Y-3.1604
X4.1331Y-3.663
X4.1339Y-4.0719
X4.1362Y-3.6939
X4.1539Y-4.1528
X4.1541Y-4.1803
X4.1575Y-3.7795
X4.163Y-4.1228
X4.1638Y-3.6472
X4.1638Y-3.726
X4.1652Y-3.3021
X4.1654Y-4.0878
X4.1669Y-3.239
X4.1689Y-3.2748
X4.1801Y-4.2441
X4.1811Y-3.8031
X4.1855Y-3.184
X4.1858Y-3.1496
X4.189Y-3.3307
X4.2126Y-3.4724
X4.2126Y-4.5984
X4.2441Y-3.4961
X4.2626Y-4.6008
X4.315Y-3.3937
X4.3228Y-4.252
X4.3303Y-3.848
X4.3386Y-3.4173
X4.3386Y-4.1811
X4.3492Y-4.5835
X4.3543Y-4.2756
X4.3573Y-3.2835
X4.3606Y-3.8677
X4.378Y-3.7717
X4.3783Y-4.0697
X4.3819Y-4.1465
X4.3858Y-4.4882
X4.4016Y-3.1575
X4.4016Y-3.2283
X4.4016Y-3.7165
X4.4173Y-3.4724
X4.4252Y-3.6614
X4.4409Y-3.4961
X4.4488Y-3.4016
X4.5827Y-3.2047
X4.5984Y-3.2362
X4.6484Y-4.6075
X4.6693Y-3.4094
X4.6693Y-3.7165
X4.6693Y-4.1335
X4.6791Y-4.6283
X4.8268Y-3.7795
X4.8319Y-4.0248
X4.8346Y-4.4327
X4.874Y-3.2362
X5.0476Y-4.5913
X5.0476Y-4.6217
X5.0528Y-3.4484
X5.0528Y-3.4787
X5.0528Y-3.8421
X5.0528Y-3.8724
X5.0528Y-4.2358
X5.0528Y-4.2661
X5.0961Y-4.6047
X5.1012Y-3.4618
X5.1012Y-3.8555
X5.1012Y-4.2492
X5.1445Y-4.6232
X5.1457Y-4.589
X5.1496Y-3.4803
X5.1496Y-3.874
X5.1496Y-4.2677
X5.1508Y-3.4461
X5.1508Y-3.8398
X5.1508Y-4.2335
T3
X4.4646Y-2.9055
X4.7717Y-2.9055
X5.0787Y-2.9055
M30
