M48
; DRILL file {KiCad 8.0.6} date 2024-11-22T14:46:38-0500
; FORMAT={-:-/ absolute / inch / decimal}
; #@! TF.CreationDate,2024-11-22T14:46:38-05:00
; #@! TF.GenerationSoftware,Kicad,Pcbnew,8.0.6
; #@! TF.FileFunction,Plated,1,2,PTH
FMAT,2
INCH
; #@! TA.AperFunction,Plated,PTH,ViaDrill
T1C0.0039
; #@! TA.AperFunction,Plated,PTH,ComponentDrill
T2C0.0079
; #@! TA.AperFunction,Plated,PTH,ComponentDrill
T3C0.0827
%
G90
G05
T1
X3.685Y-3.3307
X3.7402Y-3.0866
X3.7402Y-3.1181
X3.7638Y-3.0866
X3.7638Y-3.1181
X3.7638Y-3.2047
X3.7638Y-3.2835
X3.7992Y-3.4055
X3.811Y-2.8189
X3.811Y-2.8504
X3.811Y-2.874
X3.811Y-2.9055
X3.8189Y-3.6831
X3.8189Y-4.1102
X3.8189Y-4.2283
X3.8346Y-2.8189
X3.8346Y-2.8504
X3.8346Y-2.874
X3.8346Y-2.9055
X3.8425Y-4.0945
X3.8425Y-4.2126
X3.8455Y-3.6791
X3.8583Y-2.8189
X3.8583Y-2.8504
X3.8583Y-2.874
X3.8583Y-2.9055
X3.874Y-3.6063
X3.874Y-4.0758
X3.8819Y-2.8189
X3.8819Y-2.8504
X3.8819Y-2.874
X3.8819Y-2.9055
X3.9843Y-3.126
X3.9843Y-3.1417
X4.0Y-3.4016
X4.0157Y-3.126
X4.0157Y-3.1417
X4.0394Y-3.126
X4.0394Y-3.1417
X4.063Y-3.3858
X4.063Y-3.4173
X4.063Y-3.9134
X4.063Y-3.9449
X4.0709Y-3.1339
X4.0866Y-3.3858
X4.0866Y-3.4173
X4.0866Y-3.9134
X4.0866Y-3.9449
X4.1654Y-3.6535
X4.1654Y-3.6772
X4.189Y-4.0748
X4.189Y-4.0945
X4.189Y-4.1142
X4.189Y-4.1339
X4.189Y-4.5079
X4.189Y-4.5276
X4.189Y-4.5512
X4.1969Y-3.7008
X4.1969Y-3.7165
X4.2047Y-3.1575
X4.2047Y-3.1811
X4.2047Y-3.1969
X4.2047Y-3.2205
X4.2126Y-3.4724
X4.2126Y-3.4961
X4.2224Y-4.5689
X4.2244Y-4.1614
X4.2283Y-3.748
X4.2441Y-3.2441
X4.2441Y-3.4724
X4.2441Y-3.4961
X4.2677Y-3.7402
X4.2677Y-4.1575
X4.2677Y-4.5748
X4.2835Y-3.2441
X4.315Y-3.3937
X4.315Y-3.4173
X4.3228Y-4.1654
X4.3228Y-4.252
X4.3228Y-4.2756
X4.3228Y-4.5748
X4.3307Y-3.748
X4.3307Y-3.8425
X4.3307Y-3.8661
X4.3386Y-3.2441
X4.3465Y-3.3937
X4.3465Y-3.4173
X4.3504Y-4.4882
X4.3543Y-4.0748
X4.3543Y-4.1339
X4.3543Y-4.252
X4.3543Y-4.2756
X4.3622Y-3.6614
X4.3622Y-3.7165
X4.3622Y-3.8425
X4.3622Y-3.8661
X4.3701Y-3.1575
X4.3701Y-3.2205
X4.4173Y-3.4724
X4.4173Y-3.4961
X4.4409Y-3.4016
X4.4409Y-3.4724
X4.4409Y-3.4961
X4.5748Y-3.4094
X4.5748Y-3.7165
X4.5748Y-4.1339
X4.5827Y-3.2047
X4.5827Y-3.2362
X4.6063Y-3.2047
X4.6063Y-3.2362
X4.6457Y-4.6063
X4.6457Y-4.6299
X4.6772Y-4.6063
X4.6772Y-4.6299
X4.8268Y-3.7795
X4.8307Y-4.0236
X4.8346Y-4.4331
X4.878Y-3.2362
X5.0472Y-3.8425
X5.0472Y-3.874
X5.0472Y-4.2362
X5.0472Y-4.2677
X5.0472Y-4.5906
X5.0472Y-4.622
X5.0551Y-3.4488
X5.0551Y-3.4803
X5.0945Y-3.8583
X5.0945Y-4.252
X5.0945Y-4.6063
X5.1024Y-3.4646
X5.1417Y-3.8425
X5.1417Y-3.874
X5.1417Y-4.2362
X5.1417Y-4.2677
X5.1417Y-4.5906
X5.1417Y-4.622
X5.1496Y-3.4488
X5.1496Y-3.4803
T2
X4.2318Y-4.0851
X4.2318Y-4.498
X4.2357Y-3.6673
X4.248Y-3.1693
X4.2751Y-4.0418
X4.2751Y-4.0851
X4.2751Y-4.1284
X4.2751Y-4.4547
X4.2751Y-4.498
X4.2751Y-4.5413
X4.279Y-3.624
X4.279Y-3.6673
X4.279Y-3.7106
X4.2913Y-3.126
X4.2913Y-3.1693
X4.2913Y-3.2126
X4.3184Y-4.0851
X4.3184Y-4.498
X4.3223Y-3.6673
X4.3346Y-3.1693
T3
X4.4646Y-2.9055
X4.7717Y-2.9055
X5.0787Y-2.9055
M30
