%TF.GenerationSoftware,KiCad,Pcbnew,8.0.6*%
%TF.CreationDate,2024-11-22T22:30:15-05:00*%
%TF.ProjectId,EFUSE2024,45465553-4532-4303-9234-2e6b69636164,rev?*%
%TF.SameCoordinates,Original*%
%TF.FileFunction,Drillmap*%
%TF.FilePolarity,Positive*%
%FSLAX45Y45*%
G04 Gerber Fmt 4.5, Leading zero omitted, Abs format (unit mm)*
G04 Created by KiCad (PCBNEW 8.0.6) date 2024-11-22 22:30:15*
%MOMM*%
%LPD*%
G01*
G04 APERTURE LIST*
%ADD10C,0.200000*%
%ADD11C,0.100000*%
%ADD12C,0.210000*%
G04 APERTURE END LIST*
D10*
X9200000Y-6950000D02*
X13200000Y-6950000D01*
X13200000Y-11950000D01*
X9200000Y-11950000D01*
X9200000Y-6950000D01*
D11*
X10738750Y-10366250D02*
X10758750Y-10386250D01*
X10758750Y-10366250D02*
X10738750Y-10386250D01*
X10738750Y-11415000D02*
X10758750Y-11435000D01*
X10758750Y-11415000D02*
X10738750Y-11435000D01*
X10748750Y-9305000D02*
X10768750Y-9325000D01*
X10768750Y-9305000D02*
X10748750Y-9325000D01*
X10780000Y-8040000D02*
X10800000Y-8060000D01*
X10800000Y-8040000D02*
X10780000Y-8060000D01*
X10848750Y-10256250D02*
X10868750Y-10276250D01*
X10868750Y-10256250D02*
X10848750Y-10276250D01*
X10848750Y-10366250D02*
X10868750Y-10386250D01*
X10868750Y-10366250D02*
X10848750Y-10386250D01*
X10848750Y-10476250D02*
X10868750Y-10496250D01*
X10868750Y-10476250D02*
X10848750Y-10496250D01*
X10848750Y-11305000D02*
X10868750Y-11325000D01*
X10868750Y-11305000D02*
X10848750Y-11325000D01*
X10848750Y-11415000D02*
X10868750Y-11435000D01*
X10868750Y-11415000D02*
X10848750Y-11435000D01*
X10848750Y-11525000D02*
X10868750Y-11545000D01*
X10868750Y-11525000D02*
X10848750Y-11545000D01*
X10858750Y-9195000D02*
X10878750Y-9215000D01*
X10878750Y-9195000D02*
X10858750Y-9215000D01*
X10858750Y-9305000D02*
X10878750Y-9325000D01*
X10878750Y-9305000D02*
X10858750Y-9325000D01*
X10858750Y-9415000D02*
X10878750Y-9435000D01*
X10878750Y-9415000D02*
X10858750Y-9435000D01*
X10890000Y-7930000D02*
X10910000Y-7950000D01*
X10910000Y-7930000D02*
X10890000Y-7950000D01*
X10890000Y-8040000D02*
X10910000Y-8060000D01*
X10910000Y-8040000D02*
X10890000Y-8060000D01*
X10890000Y-8150000D02*
X10910000Y-8170000D01*
X10910000Y-8150000D02*
X10890000Y-8170000D01*
X10958750Y-10366250D02*
X10978750Y-10386250D01*
X10978750Y-10366250D02*
X10958750Y-10386250D01*
X10958750Y-11415000D02*
X10978750Y-11435000D01*
X10978750Y-11415000D02*
X10958750Y-11435000D01*
X10968750Y-9305000D02*
X10988750Y-9325000D01*
X10988750Y-9305000D02*
X10968750Y-9325000D01*
X11000000Y-8040000D02*
X11020000Y-8060000D01*
X11020000Y-8040000D02*
X11000000Y-8060000D01*
X9512500Y-8913484D02*
G75*
G02*
X9482500Y-8913484I-15000J0D01*
G01*
X9482500Y-8913484D02*
G75*
G02*
X9512500Y-8913484I15000J0D01*
G01*
X9515000Y-7920000D02*
G75*
G02*
X9485000Y-7920000I-15000J0D01*
G01*
X9485000Y-7920000D02*
G75*
G02*
X9515000Y-7920000I15000J0D01*
G01*
X9520000Y-7837000D02*
G75*
G02*
X9490000Y-7837000I-15000J0D01*
G01*
X9490000Y-7837000D02*
G75*
G02*
X9520000Y-7837000I15000J0D01*
G01*
X9535000Y-8000000D02*
G75*
G02*
X9505000Y-8000000I-15000J0D01*
G01*
X9505000Y-8000000D02*
G75*
G02*
X9535000Y-8000000I15000J0D01*
G01*
X9585000Y-7917000D02*
G75*
G02*
X9555000Y-7917000I-15000J0D01*
G01*
X9555000Y-7917000D02*
G75*
G02*
X9585000Y-7917000I15000J0D01*
G01*
X9587000Y-7839000D02*
G75*
G02*
X9557000Y-7839000I-15000J0D01*
G01*
X9557000Y-7839000D02*
G75*
G02*
X9587000Y-7839000I15000J0D01*
G01*
X9641750Y-8219750D02*
G75*
G02*
X9611750Y-8219750I-15000J0D01*
G01*
X9611750Y-8219750D02*
G75*
G02*
X9641750Y-8219750I15000J0D01*
G01*
X9655000Y-9440000D02*
G75*
G02*
X9625000Y-9440000I-15000J0D01*
G01*
X9625000Y-9440000D02*
G75*
G02*
X9655000Y-9440000I15000J0D01*
G01*
X9655000Y-10560000D02*
G75*
G02*
X9625000Y-10560000I-15000J0D01*
G01*
X9625000Y-10560000D02*
G75*
G02*
X9655000Y-10560000I15000J0D01*
G01*
X9666000Y-8652900D02*
G75*
G02*
X9636000Y-8652900I-15000J0D01*
G01*
X9636000Y-8652900D02*
G75*
G02*
X9666000Y-8652900I15000J0D01*
G01*
X9695000Y-7140000D02*
G75*
G02*
X9665000Y-7140000I-15000J0D01*
G01*
X9665000Y-7140000D02*
G75*
G02*
X9695000Y-7140000I15000J0D01*
G01*
X9695000Y-7240000D02*
G75*
G02*
X9665000Y-7240000I-15000J0D01*
G01*
X9665000Y-7240000D02*
G75*
G02*
X9695000Y-7240000I15000J0D01*
G01*
X9695000Y-7340000D02*
G75*
G02*
X9665000Y-7340000I-15000J0D01*
G01*
X9665000Y-7340000D02*
G75*
G02*
X9695000Y-7340000I15000J0D01*
G01*
X9695000Y-7420000D02*
G75*
G02*
X9665000Y-7420000I-15000J0D01*
G01*
X9665000Y-7420000D02*
G75*
G02*
X9695000Y-7420000I15000J0D01*
G01*
X9711000Y-9359000D02*
G75*
G02*
X9681000Y-9359000I-15000J0D01*
G01*
X9681000Y-9359000D02*
G75*
G02*
X9711000Y-9359000I15000J0D01*
G01*
X9717500Y-10425817D02*
G75*
G02*
X9687500Y-10425817I-15000J0D01*
G01*
X9687500Y-10425817D02*
G75*
G02*
X9717500Y-10425817I15000J0D01*
G01*
X9743183Y-8402500D02*
G75*
G02*
X9713183Y-8402500I-15000J0D01*
G01*
X9713183Y-8402500D02*
G75*
G02*
X9743183Y-8402500I15000J0D01*
G01*
X9755000Y-9240000D02*
G75*
G02*
X9725000Y-9240000I-15000J0D01*
G01*
X9725000Y-9240000D02*
G75*
G02*
X9755000Y-9240000I15000J0D01*
G01*
X9775000Y-10340000D02*
G75*
G02*
X9745000Y-10340000I-15000J0D01*
G01*
X9745000Y-10340000D02*
G75*
G02*
X9775000Y-10340000I15000J0D01*
G01*
X9795000Y-7140000D02*
G75*
G02*
X9765000Y-7140000I-15000J0D01*
G01*
X9765000Y-7140000D02*
G75*
G02*
X9795000Y-7140000I15000J0D01*
G01*
X9795000Y-7240000D02*
G75*
G02*
X9765000Y-7240000I-15000J0D01*
G01*
X9765000Y-7240000D02*
G75*
G02*
X9795000Y-7240000I15000J0D01*
G01*
X9795000Y-7340000D02*
G75*
G02*
X9765000Y-7340000I-15000J0D01*
G01*
X9765000Y-7340000D02*
G75*
G02*
X9795000Y-7340000I15000J0D01*
G01*
X9795000Y-7420000D02*
G75*
G02*
X9765000Y-7420000I-15000J0D01*
G01*
X9765000Y-7420000D02*
G75*
G02*
X9795000Y-7420000I15000J0D01*
G01*
X9815000Y-9180000D02*
G75*
G02*
X9785000Y-9180000I-15000J0D01*
G01*
X9785000Y-9180000D02*
G75*
G02*
X9815000Y-9180000I15000J0D01*
G01*
X9855000Y-10280000D02*
G75*
G02*
X9825000Y-10280000I-15000J0D01*
G01*
X9825000Y-10280000D02*
G75*
G02*
X9855000Y-10280000I15000J0D01*
G01*
X9895000Y-7140000D02*
G75*
G02*
X9865000Y-7140000I-15000J0D01*
G01*
X9865000Y-7140000D02*
G75*
G02*
X9895000Y-7140000I15000J0D01*
G01*
X9895000Y-7240000D02*
G75*
G02*
X9865000Y-7240000I-15000J0D01*
G01*
X9865000Y-7240000D02*
G75*
G02*
X9895000Y-7240000I15000J0D01*
G01*
X9895000Y-7340000D02*
G75*
G02*
X9865000Y-7340000I-15000J0D01*
G01*
X9865000Y-7340000D02*
G75*
G02*
X9895000Y-7340000I15000J0D01*
G01*
X9895000Y-7420000D02*
G75*
G02*
X9865000Y-7420000I-15000J0D01*
G01*
X9865000Y-7420000D02*
G75*
G02*
X9895000Y-7420000I15000J0D01*
G01*
X10162000Y-9922000D02*
G75*
G02*
X10132000Y-9922000I-15000J0D01*
G01*
X10132000Y-9922000D02*
G75*
G02*
X10162000Y-9922000I15000J0D01*
G01*
X10178000Y-8637000D02*
G75*
G02*
X10148000Y-8637000I-15000J0D01*
G01*
X10148000Y-8637000D02*
G75*
G02*
X10178000Y-8637000I15000J0D01*
G01*
X10214000Y-9991000D02*
G75*
G02*
X10184000Y-9991000I-15000J0D01*
G01*
X10184000Y-9991000D02*
G75*
G02*
X10214000Y-9991000I15000J0D01*
G01*
X10337000Y-8612000D02*
G75*
G02*
X10307000Y-8612000I-15000J0D01*
G01*
X10307000Y-8612000D02*
G75*
G02*
X10337000Y-8612000I15000J0D01*
G01*
X10395000Y-8684000D02*
G75*
G02*
X10365000Y-8684000I-15000J0D01*
G01*
X10365000Y-8684000D02*
G75*
G02*
X10395000Y-8684000I15000J0D01*
G01*
X10415000Y-8027500D02*
G75*
G02*
X10385000Y-8027500I-15000J0D01*
G01*
X10385000Y-8027500D02*
G75*
G02*
X10415000Y-8027500I15000J0D01*
G01*
X10513000Y-9304000D02*
G75*
G02*
X10483000Y-9304000I-15000J0D01*
G01*
X10483000Y-9304000D02*
G75*
G02*
X10513000Y-9304000I15000J0D01*
G01*
X10515000Y-10342500D02*
G75*
G02*
X10485000Y-10342500I-15000J0D01*
G01*
X10485000Y-10342500D02*
G75*
G02*
X10515000Y-10342500I15000J0D01*
G01*
X10521000Y-9382500D02*
G75*
G02*
X10491000Y-9382500I-15000J0D01*
G01*
X10491000Y-9382500D02*
G75*
G02*
X10521000Y-9382500I15000J0D01*
G01*
X10566000Y-10548000D02*
G75*
G02*
X10536000Y-10548000I-15000J0D01*
G01*
X10536000Y-10548000D02*
G75*
G02*
X10566000Y-10548000I15000J0D01*
G01*
X10566456Y-10617999D02*
G75*
G02*
X10536456Y-10617999I-15000J0D01*
G01*
X10536456Y-10617999D02*
G75*
G02*
X10566456Y-10617999I15000J0D01*
G01*
X10575000Y-9600000D02*
G75*
G02*
X10545000Y-9600000I-15000J0D01*
G01*
X10545000Y-9600000D02*
G75*
G02*
X10575000Y-9600000I15000J0D01*
G01*
X10589000Y-10472000D02*
G75*
G02*
X10559000Y-10472000I-15000J0D01*
G01*
X10559000Y-10472000D02*
G75*
G02*
X10589000Y-10472000I15000J0D01*
G01*
X10591000Y-9264000D02*
G75*
G02*
X10561000Y-9264000I-15000J0D01*
G01*
X10561000Y-9264000D02*
G75*
G02*
X10591000Y-9264000I15000J0D01*
G01*
X10591000Y-9464000D02*
G75*
G02*
X10561000Y-9464000I-15000J0D01*
G01*
X10561000Y-9464000D02*
G75*
G02*
X10591000Y-9464000I15000J0D01*
G01*
X10594542Y-8387358D02*
G75*
G02*
X10564542Y-8387358I-15000J0D01*
G01*
X10564542Y-8387358D02*
G75*
G02*
X10594542Y-8387358I15000J0D01*
G01*
X10595000Y-10383000D02*
G75*
G02*
X10565000Y-10383000I-15000J0D01*
G01*
X10565000Y-10383000D02*
G75*
G02*
X10595000Y-10383000I15000J0D01*
G01*
X10599000Y-8227000D02*
G75*
G02*
X10569000Y-8227000I-15000J0D01*
G01*
X10569000Y-8227000D02*
G75*
G02*
X10599000Y-8227000I15000J0D01*
G01*
X10604000Y-8318000D02*
G75*
G02*
X10574000Y-8318000I-15000J0D01*
G01*
X10574000Y-8318000D02*
G75*
G02*
X10604000Y-8318000I15000J0D01*
G01*
X10632500Y-10780000D02*
G75*
G02*
X10602500Y-10780000I-15000J0D01*
G01*
X10602500Y-10780000D02*
G75*
G02*
X10632500Y-10780000I15000J0D01*
G01*
X10635000Y-9660000D02*
G75*
G02*
X10605000Y-9660000I-15000J0D01*
G01*
X10605000Y-9660000D02*
G75*
G02*
X10635000Y-9660000I15000J0D01*
G01*
X10646229Y-8087256D02*
G75*
G02*
X10616229Y-8087256I-15000J0D01*
G01*
X10616229Y-8087256D02*
G75*
G02*
X10646229Y-8087256I15000J0D01*
G01*
X10647000Y-8000000D02*
G75*
G02*
X10617000Y-8000000I-15000J0D01*
G01*
X10617000Y-8000000D02*
G75*
G02*
X10647000Y-8000000I15000J0D01*
G01*
X10655000Y-8460000D02*
G75*
G02*
X10625000Y-8460000I-15000J0D01*
G01*
X10625000Y-8460000D02*
G75*
G02*
X10655000Y-8460000I15000J0D01*
G01*
X10715000Y-8820000D02*
G75*
G02*
X10685000Y-8820000I-15000J0D01*
G01*
X10685000Y-8820000D02*
G75*
G02*
X10715000Y-8820000I15000J0D01*
G01*
X10715000Y-11680000D02*
G75*
G02*
X10685000Y-11680000I-15000J0D01*
G01*
X10685000Y-11680000D02*
G75*
G02*
X10715000Y-11680000I15000J0D01*
G01*
X10795000Y-8880000D02*
G75*
G02*
X10765000Y-8880000I-15000J0D01*
G01*
X10765000Y-8880000D02*
G75*
G02*
X10795000Y-8880000I15000J0D01*
G01*
X10842000Y-11686000D02*
G75*
G02*
X10812000Y-11686000I-15000J0D01*
G01*
X10812000Y-11686000D02*
G75*
G02*
X10842000Y-11686000I15000J0D01*
G01*
X10975000Y-8620000D02*
G75*
G02*
X10945000Y-8620000I-15000J0D01*
G01*
X10945000Y-8620000D02*
G75*
G02*
X10975000Y-8620000I15000J0D01*
G01*
X10995000Y-10800000D02*
G75*
G02*
X10965000Y-10800000I-15000J0D01*
G01*
X10965000Y-10800000D02*
G75*
G02*
X10995000Y-10800000I15000J0D01*
G01*
X11014000Y-9774000D02*
G75*
G02*
X10984000Y-9774000I-15000J0D01*
G01*
X10984000Y-9774000D02*
G75*
G02*
X11014000Y-9774000I15000J0D01*
G01*
X11035000Y-8680000D02*
G75*
G02*
X11005000Y-8680000I-15000J0D01*
G01*
X11005000Y-8680000D02*
G75*
G02*
X11035000Y-8680000I15000J0D01*
G01*
X11035000Y-10620000D02*
G75*
G02*
X11005000Y-10620000I-15000J0D01*
G01*
X11005000Y-10620000D02*
G75*
G02*
X11035000Y-10620000I15000J0D01*
G01*
X11062000Y-11642000D02*
G75*
G02*
X11032000Y-11642000I-15000J0D01*
G01*
X11032000Y-11642000D02*
G75*
G02*
X11062000Y-11642000I15000J0D01*
G01*
X11075000Y-10860000D02*
G75*
G02*
X11045000Y-10860000I-15000J0D01*
G01*
X11045000Y-10860000D02*
G75*
G02*
X11075000Y-10860000I15000J0D01*
G01*
X11082500Y-8340000D02*
G75*
G02*
X11052500Y-8340000I-15000J0D01*
G01*
X11052500Y-8340000D02*
G75*
G02*
X11082500Y-8340000I15000J0D01*
G01*
X11091000Y-9824000D02*
G75*
G02*
X11061000Y-9824000I-15000J0D01*
G01*
X11061000Y-9824000D02*
G75*
G02*
X11091000Y-9824000I15000J0D01*
G01*
X11135000Y-9580000D02*
G75*
G02*
X11105000Y-9580000I-15000J0D01*
G01*
X11105000Y-9580000D02*
G75*
G02*
X11135000Y-9580000I15000J0D01*
G01*
X11136000Y-10337000D02*
G75*
G02*
X11106000Y-10337000I-15000J0D01*
G01*
X11106000Y-10337000D02*
G75*
G02*
X11136000Y-10337000I15000J0D01*
G01*
X11145000Y-10532000D02*
G75*
G02*
X11115000Y-10532000I-15000J0D01*
G01*
X11115000Y-10532000D02*
G75*
G02*
X11145000Y-10532000I15000J0D01*
G01*
X11155000Y-11400000D02*
G75*
G02*
X11125000Y-11400000I-15000J0D01*
G01*
X11125000Y-11400000D02*
G75*
G02*
X11155000Y-11400000I15000J0D01*
G01*
X11195000Y-8020000D02*
G75*
G02*
X11165000Y-8020000I-15000J0D01*
G01*
X11165000Y-8020000D02*
G75*
G02*
X11195000Y-8020000I15000J0D01*
G01*
X11195000Y-8200000D02*
G75*
G02*
X11165000Y-8200000I-15000J0D01*
G01*
X11165000Y-8200000D02*
G75*
G02*
X11195000Y-8200000I15000J0D01*
G01*
X11195000Y-9440000D02*
G75*
G02*
X11165000Y-9440000I-15000J0D01*
G01*
X11165000Y-9440000D02*
G75*
G02*
X11195000Y-9440000I15000J0D01*
G01*
X11235000Y-8820000D02*
G75*
G02*
X11205000Y-8820000I-15000J0D01*
G01*
X11205000Y-8820000D02*
G75*
G02*
X11235000Y-8820000I15000J0D01*
G01*
X11255000Y-9300000D02*
G75*
G02*
X11225000Y-9300000I-15000J0D01*
G01*
X11225000Y-9300000D02*
G75*
G02*
X11255000Y-9300000I15000J0D01*
G01*
X11295000Y-8880000D02*
G75*
G02*
X11265000Y-8880000I-15000J0D01*
G01*
X11265000Y-8880000D02*
G75*
G02*
X11295000Y-8880000I15000J0D01*
G01*
X11315000Y-8640000D02*
G75*
G02*
X11285000Y-8640000I-15000J0D01*
G01*
X11285000Y-8640000D02*
G75*
G02*
X11315000Y-8640000I15000J0D01*
G01*
X11655000Y-8140000D02*
G75*
G02*
X11625000Y-8140000I-15000J0D01*
G01*
X11625000Y-8140000D02*
G75*
G02*
X11655000Y-8140000I15000J0D01*
G01*
X11695000Y-8220000D02*
G75*
G02*
X11665000Y-8220000I-15000J0D01*
G01*
X11665000Y-8220000D02*
G75*
G02*
X11695000Y-8220000I15000J0D01*
G01*
X11822000Y-11703000D02*
G75*
G02*
X11792000Y-11703000I-15000J0D01*
G01*
X11792000Y-11703000D02*
G75*
G02*
X11822000Y-11703000I15000J0D01*
G01*
X11875000Y-8660000D02*
G75*
G02*
X11845000Y-8660000I-15000J0D01*
G01*
X11845000Y-8660000D02*
G75*
G02*
X11875000Y-8660000I15000J0D01*
G01*
X11875000Y-9440000D02*
G75*
G02*
X11845000Y-9440000I-15000J0D01*
G01*
X11845000Y-9440000D02*
G75*
G02*
X11875000Y-9440000I15000J0D01*
G01*
X11875000Y-10499000D02*
G75*
G02*
X11845000Y-10499000I-15000J0D01*
G01*
X11845000Y-10499000D02*
G75*
G02*
X11875000Y-10499000I15000J0D01*
G01*
X11900000Y-11756000D02*
G75*
G02*
X11870000Y-11756000I-15000J0D01*
G01*
X11870000Y-11756000D02*
G75*
G02*
X11900000Y-11756000I15000J0D01*
G01*
X12275000Y-9600000D02*
G75*
G02*
X12245000Y-9600000I-15000J0D01*
G01*
X12245000Y-9600000D02*
G75*
G02*
X12275000Y-9600000I15000J0D01*
G01*
X12288000Y-10223000D02*
G75*
G02*
X12258000Y-10223000I-15000J0D01*
G01*
X12258000Y-10223000D02*
G75*
G02*
X12288000Y-10223000I15000J0D01*
G01*
X12295000Y-11259000D02*
G75*
G02*
X12265000Y-11259000I-15000J0D01*
G01*
X12265000Y-11259000D02*
G75*
G02*
X12295000Y-11259000I15000J0D01*
G01*
X12395000Y-8220000D02*
G75*
G02*
X12365000Y-8220000I-15000J0D01*
G01*
X12365000Y-8220000D02*
G75*
G02*
X12395000Y-8220000I15000J0D01*
G01*
X12836000Y-11662000D02*
G75*
G02*
X12806000Y-11662000I-15000J0D01*
G01*
X12806000Y-11662000D02*
G75*
G02*
X12836000Y-11662000I15000J0D01*
G01*
X12836000Y-11739000D02*
G75*
G02*
X12806000Y-11739000I-15000J0D01*
G01*
X12806000Y-11739000D02*
G75*
G02*
X12836000Y-11739000I15000J0D01*
G01*
X12849000Y-8759000D02*
G75*
G02*
X12819000Y-8759000I-15000J0D01*
G01*
X12819000Y-8759000D02*
G75*
G02*
X12849000Y-8759000I15000J0D01*
G01*
X12849000Y-8836000D02*
G75*
G02*
X12819000Y-8836000I-15000J0D01*
G01*
X12819000Y-8836000D02*
G75*
G02*
X12849000Y-8836000I15000J0D01*
G01*
X12849000Y-9759000D02*
G75*
G02*
X12819000Y-9759000I-15000J0D01*
G01*
X12819000Y-9759000D02*
G75*
G02*
X12849000Y-9759000I15000J0D01*
G01*
X12849000Y-9836000D02*
G75*
G02*
X12819000Y-9836000I-15000J0D01*
G01*
X12819000Y-9836000D02*
G75*
G02*
X12849000Y-9836000I15000J0D01*
G01*
X12849000Y-10759000D02*
G75*
G02*
X12819000Y-10759000I-15000J0D01*
G01*
X12819000Y-10759000D02*
G75*
G02*
X12849000Y-10759000I15000J0D01*
G01*
X12849000Y-10836000D02*
G75*
G02*
X12819000Y-10836000I-15000J0D01*
G01*
X12819000Y-10836000D02*
G75*
G02*
X12849000Y-10836000I15000J0D01*
G01*
X12959000Y-11696000D02*
G75*
G02*
X12929000Y-11696000I-15000J0D01*
G01*
X12929000Y-11696000D02*
G75*
G02*
X12959000Y-11696000I15000J0D01*
G01*
X12972000Y-8793000D02*
G75*
G02*
X12942000Y-8793000I-15000J0D01*
G01*
X12942000Y-8793000D02*
G75*
G02*
X12972000Y-8793000I15000J0D01*
G01*
X12972000Y-9793000D02*
G75*
G02*
X12942000Y-9793000I-15000J0D01*
G01*
X12942000Y-9793000D02*
G75*
G02*
X12972000Y-9793000I15000J0D01*
G01*
X12972000Y-10793000D02*
G75*
G02*
X12942000Y-10793000I-15000J0D01*
G01*
X12942000Y-10793000D02*
G75*
G02*
X12972000Y-10793000I15000J0D01*
G01*
X13082000Y-11743000D02*
G75*
G02*
X13052000Y-11743000I-15000J0D01*
G01*
X13052000Y-11743000D02*
G75*
G02*
X13082000Y-11743000I15000J0D01*
G01*
X13085000Y-11656000D02*
G75*
G02*
X13055000Y-11656000I-15000J0D01*
G01*
X13055000Y-11656000D02*
G75*
G02*
X13085000Y-11656000I15000J0D01*
G01*
X13095000Y-8840000D02*
G75*
G02*
X13065000Y-8840000I-15000J0D01*
G01*
X13065000Y-8840000D02*
G75*
G02*
X13095000Y-8840000I15000J0D01*
G01*
X13095000Y-9840000D02*
G75*
G02*
X13065000Y-9840000I-15000J0D01*
G01*
X13065000Y-9840000D02*
G75*
G02*
X13095000Y-9840000I15000J0D01*
G01*
X13095000Y-10840000D02*
G75*
G02*
X13065000Y-10840000I-15000J0D01*
G01*
X13065000Y-10840000D02*
G75*
G02*
X13095000Y-10840000I15000J0D01*
G01*
X13098000Y-8753000D02*
G75*
G02*
X13068000Y-8753000I-15000J0D01*
G01*
X13068000Y-8753000D02*
G75*
G02*
X13098000Y-8753000I15000J0D01*
G01*
X13098000Y-9753000D02*
G75*
G02*
X13068000Y-9753000I-15000J0D01*
G01*
X13068000Y-9753000D02*
G75*
G02*
X13098000Y-9753000I15000J0D01*
G01*
X13098000Y-10753000D02*
G75*
G02*
X13068000Y-10753000I-15000J0D01*
G01*
X13068000Y-10753000D02*
G75*
G02*
X13098000Y-10753000I15000J0D01*
G01*
D12*
X11340000Y-7275000D02*
X11340000Y-7485000D01*
X11235000Y-7380000D02*
X11445000Y-7380000D01*
X12120000Y-7275000D02*
X12120000Y-7485000D01*
X12015000Y-7380000D02*
X12225000Y-7380000D01*
X12900000Y-7275000D02*
X12900000Y-7485000D01*
X12795000Y-7380000D02*
X13005000Y-7380000D01*
D10*
X9450777Y-12271484D02*
X9450777Y-12071484D01*
X9450777Y-12071484D02*
X9498396Y-12071484D01*
X9498396Y-12071484D02*
X9526967Y-12081008D01*
X9526967Y-12081008D02*
X9546015Y-12100055D01*
X9546015Y-12100055D02*
X9555539Y-12119103D01*
X9555539Y-12119103D02*
X9565063Y-12157198D01*
X9565063Y-12157198D02*
X9565063Y-12185769D01*
X9565063Y-12185769D02*
X9555539Y-12223865D01*
X9555539Y-12223865D02*
X9546015Y-12242912D01*
X9546015Y-12242912D02*
X9526967Y-12261960D01*
X9526967Y-12261960D02*
X9498396Y-12271484D01*
X9498396Y-12271484D02*
X9450777Y-12271484D01*
X9650777Y-12271484D02*
X9650777Y-12138150D01*
X9650777Y-12176246D02*
X9660301Y-12157198D01*
X9660301Y-12157198D02*
X9669824Y-12147674D01*
X9669824Y-12147674D02*
X9688872Y-12138150D01*
X9688872Y-12138150D02*
X9707920Y-12138150D01*
X9774586Y-12271484D02*
X9774586Y-12138150D01*
X9774586Y-12071484D02*
X9765063Y-12081008D01*
X9765063Y-12081008D02*
X9774586Y-12090531D01*
X9774586Y-12090531D02*
X9784110Y-12081008D01*
X9784110Y-12081008D02*
X9774586Y-12071484D01*
X9774586Y-12071484D02*
X9774586Y-12090531D01*
X9898396Y-12271484D02*
X9879348Y-12261960D01*
X9879348Y-12261960D02*
X9869824Y-12242912D01*
X9869824Y-12242912D02*
X9869824Y-12071484D01*
X10003158Y-12271484D02*
X9984110Y-12261960D01*
X9984110Y-12261960D02*
X9974586Y-12242912D01*
X9974586Y-12242912D02*
X9974586Y-12071484D01*
X10231729Y-12271484D02*
X10231729Y-12071484D01*
X10231729Y-12071484D02*
X10298396Y-12214341D01*
X10298396Y-12214341D02*
X10365063Y-12071484D01*
X10365063Y-12071484D02*
X10365063Y-12271484D01*
X10546015Y-12271484D02*
X10546015Y-12166722D01*
X10546015Y-12166722D02*
X10536491Y-12147674D01*
X10536491Y-12147674D02*
X10517444Y-12138150D01*
X10517444Y-12138150D02*
X10479348Y-12138150D01*
X10479348Y-12138150D02*
X10460301Y-12147674D01*
X10546015Y-12261960D02*
X10526967Y-12271484D01*
X10526967Y-12271484D02*
X10479348Y-12271484D01*
X10479348Y-12271484D02*
X10460301Y-12261960D01*
X10460301Y-12261960D02*
X10450777Y-12242912D01*
X10450777Y-12242912D02*
X10450777Y-12223865D01*
X10450777Y-12223865D02*
X10460301Y-12204817D01*
X10460301Y-12204817D02*
X10479348Y-12195293D01*
X10479348Y-12195293D02*
X10526967Y-12195293D01*
X10526967Y-12195293D02*
X10546015Y-12185769D01*
X10641253Y-12138150D02*
X10641253Y-12338150D01*
X10641253Y-12147674D02*
X10660301Y-12138150D01*
X10660301Y-12138150D02*
X10698396Y-12138150D01*
X10698396Y-12138150D02*
X10717444Y-12147674D01*
X10717444Y-12147674D02*
X10726967Y-12157198D01*
X10726967Y-12157198D02*
X10736491Y-12176246D01*
X10736491Y-12176246D02*
X10736491Y-12233388D01*
X10736491Y-12233388D02*
X10726967Y-12252436D01*
X10726967Y-12252436D02*
X10717444Y-12261960D01*
X10717444Y-12261960D02*
X10698396Y-12271484D01*
X10698396Y-12271484D02*
X10660301Y-12271484D01*
X10660301Y-12271484D02*
X10641253Y-12261960D01*
X10822205Y-12252436D02*
X10831729Y-12261960D01*
X10831729Y-12261960D02*
X10822205Y-12271484D01*
X10822205Y-12271484D02*
X10812682Y-12261960D01*
X10812682Y-12261960D02*
X10822205Y-12252436D01*
X10822205Y-12252436D02*
X10822205Y-12271484D01*
X10822205Y-12147674D02*
X10831729Y-12157198D01*
X10831729Y-12157198D02*
X10822205Y-12166722D01*
X10822205Y-12166722D02*
X10812682Y-12157198D01*
X10812682Y-12157198D02*
X10822205Y-12147674D01*
X10822205Y-12147674D02*
X10822205Y-12166722D01*
D11*
X9170000Y-12590000D02*
X9190000Y-12610000D01*
X9190000Y-12590000D02*
X9170000Y-12610000D01*
D10*
X9488872Y-12491484D02*
X9507920Y-12491484D01*
X9507920Y-12491484D02*
X9526967Y-12501008D01*
X9526967Y-12501008D02*
X9536491Y-12510531D01*
X9536491Y-12510531D02*
X9546015Y-12529579D01*
X9546015Y-12529579D02*
X9555539Y-12567674D01*
X9555539Y-12567674D02*
X9555539Y-12615293D01*
X9555539Y-12615293D02*
X9546015Y-12653388D01*
X9546015Y-12653388D02*
X9536491Y-12672436D01*
X9536491Y-12672436D02*
X9526967Y-12681960D01*
X9526967Y-12681960D02*
X9507920Y-12691484D01*
X9507920Y-12691484D02*
X9488872Y-12691484D01*
X9488872Y-12691484D02*
X9469824Y-12681960D01*
X9469824Y-12681960D02*
X9460301Y-12672436D01*
X9460301Y-12672436D02*
X9450777Y-12653388D01*
X9450777Y-12653388D02*
X9441253Y-12615293D01*
X9441253Y-12615293D02*
X9441253Y-12567674D01*
X9441253Y-12567674D02*
X9450777Y-12529579D01*
X9450777Y-12529579D02*
X9460301Y-12510531D01*
X9460301Y-12510531D02*
X9469824Y-12501008D01*
X9469824Y-12501008D02*
X9488872Y-12491484D01*
X9641253Y-12672436D02*
X9650777Y-12681960D01*
X9650777Y-12681960D02*
X9641253Y-12691484D01*
X9641253Y-12691484D02*
X9631729Y-12681960D01*
X9631729Y-12681960D02*
X9641253Y-12672436D01*
X9641253Y-12672436D02*
X9641253Y-12691484D01*
X9726967Y-12510531D02*
X9736491Y-12501008D01*
X9736491Y-12501008D02*
X9755539Y-12491484D01*
X9755539Y-12491484D02*
X9803158Y-12491484D01*
X9803158Y-12491484D02*
X9822205Y-12501008D01*
X9822205Y-12501008D02*
X9831729Y-12510531D01*
X9831729Y-12510531D02*
X9841253Y-12529579D01*
X9841253Y-12529579D02*
X9841253Y-12548627D01*
X9841253Y-12548627D02*
X9831729Y-12577198D01*
X9831729Y-12577198D02*
X9717444Y-12691484D01*
X9717444Y-12691484D02*
X9841253Y-12691484D01*
X9965063Y-12491484D02*
X9984110Y-12491484D01*
X9984110Y-12491484D02*
X10003158Y-12501008D01*
X10003158Y-12501008D02*
X10012682Y-12510531D01*
X10012682Y-12510531D02*
X10022205Y-12529579D01*
X10022205Y-12529579D02*
X10031729Y-12567674D01*
X10031729Y-12567674D02*
X10031729Y-12615293D01*
X10031729Y-12615293D02*
X10022205Y-12653388D01*
X10022205Y-12653388D02*
X10012682Y-12672436D01*
X10012682Y-12672436D02*
X10003158Y-12681960D01*
X10003158Y-12681960D02*
X9984110Y-12691484D01*
X9984110Y-12691484D02*
X9965063Y-12691484D01*
X9965063Y-12691484D02*
X9946015Y-12681960D01*
X9946015Y-12681960D02*
X9936491Y-12672436D01*
X9936491Y-12672436D02*
X9926967Y-12653388D01*
X9926967Y-12653388D02*
X9917444Y-12615293D01*
X9917444Y-12615293D02*
X9917444Y-12567674D01*
X9917444Y-12567674D02*
X9926967Y-12529579D01*
X9926967Y-12529579D02*
X9936491Y-12510531D01*
X9936491Y-12510531D02*
X9946015Y-12501008D01*
X9946015Y-12501008D02*
X9965063Y-12491484D01*
X10155539Y-12491484D02*
X10174586Y-12491484D01*
X10174586Y-12491484D02*
X10193634Y-12501008D01*
X10193634Y-12501008D02*
X10203158Y-12510531D01*
X10203158Y-12510531D02*
X10212682Y-12529579D01*
X10212682Y-12529579D02*
X10222205Y-12567674D01*
X10222205Y-12567674D02*
X10222205Y-12615293D01*
X10222205Y-12615293D02*
X10212682Y-12653388D01*
X10212682Y-12653388D02*
X10203158Y-12672436D01*
X10203158Y-12672436D02*
X10193634Y-12681960D01*
X10193634Y-12681960D02*
X10174586Y-12691484D01*
X10174586Y-12691484D02*
X10155539Y-12691484D01*
X10155539Y-12691484D02*
X10136491Y-12681960D01*
X10136491Y-12681960D02*
X10126967Y-12672436D01*
X10126967Y-12672436D02*
X10117444Y-12653388D01*
X10117444Y-12653388D02*
X10107920Y-12615293D01*
X10107920Y-12615293D02*
X10107920Y-12567674D01*
X10107920Y-12567674D02*
X10117444Y-12529579D01*
X10117444Y-12529579D02*
X10126967Y-12510531D01*
X10126967Y-12510531D02*
X10136491Y-12501008D01*
X10136491Y-12501008D02*
X10155539Y-12491484D01*
X10307920Y-12691484D02*
X10307920Y-12558150D01*
X10307920Y-12577198D02*
X10317444Y-12567674D01*
X10317444Y-12567674D02*
X10336491Y-12558150D01*
X10336491Y-12558150D02*
X10365063Y-12558150D01*
X10365063Y-12558150D02*
X10384110Y-12567674D01*
X10384110Y-12567674D02*
X10393634Y-12586722D01*
X10393634Y-12586722D02*
X10393634Y-12691484D01*
X10393634Y-12586722D02*
X10403158Y-12567674D01*
X10403158Y-12567674D02*
X10422205Y-12558150D01*
X10422205Y-12558150D02*
X10450777Y-12558150D01*
X10450777Y-12558150D02*
X10469825Y-12567674D01*
X10469825Y-12567674D02*
X10479348Y-12586722D01*
X10479348Y-12586722D02*
X10479348Y-12691484D01*
X10574586Y-12691484D02*
X10574586Y-12558150D01*
X10574586Y-12577198D02*
X10584110Y-12567674D01*
X10584110Y-12567674D02*
X10603158Y-12558150D01*
X10603158Y-12558150D02*
X10631729Y-12558150D01*
X10631729Y-12558150D02*
X10650777Y-12567674D01*
X10650777Y-12567674D02*
X10660301Y-12586722D01*
X10660301Y-12586722D02*
X10660301Y-12691484D01*
X10660301Y-12586722D02*
X10669825Y-12567674D01*
X10669825Y-12567674D02*
X10688872Y-12558150D01*
X10688872Y-12558150D02*
X10717444Y-12558150D01*
X10717444Y-12558150D02*
X10736491Y-12567674D01*
X10736491Y-12567674D02*
X10746015Y-12586722D01*
X10746015Y-12586722D02*
X10746015Y-12691484D01*
X11136491Y-12481960D02*
X10965063Y-12739103D01*
X11393634Y-12491484D02*
X11412682Y-12491484D01*
X11412682Y-12491484D02*
X11431729Y-12501008D01*
X11431729Y-12501008D02*
X11441253Y-12510531D01*
X11441253Y-12510531D02*
X11450777Y-12529579D01*
X11450777Y-12529579D02*
X11460301Y-12567674D01*
X11460301Y-12567674D02*
X11460301Y-12615293D01*
X11460301Y-12615293D02*
X11450777Y-12653388D01*
X11450777Y-12653388D02*
X11441253Y-12672436D01*
X11441253Y-12672436D02*
X11431729Y-12681960D01*
X11431729Y-12681960D02*
X11412682Y-12691484D01*
X11412682Y-12691484D02*
X11393634Y-12691484D01*
X11393634Y-12691484D02*
X11374586Y-12681960D01*
X11374586Y-12681960D02*
X11365063Y-12672436D01*
X11365063Y-12672436D02*
X11355539Y-12653388D01*
X11355539Y-12653388D02*
X11346015Y-12615293D01*
X11346015Y-12615293D02*
X11346015Y-12567674D01*
X11346015Y-12567674D02*
X11355539Y-12529579D01*
X11355539Y-12529579D02*
X11365063Y-12510531D01*
X11365063Y-12510531D02*
X11374586Y-12501008D01*
X11374586Y-12501008D02*
X11393634Y-12491484D01*
X11546015Y-12672436D02*
X11555539Y-12681960D01*
X11555539Y-12681960D02*
X11546015Y-12691484D01*
X11546015Y-12691484D02*
X11536491Y-12681960D01*
X11536491Y-12681960D02*
X11546015Y-12672436D01*
X11546015Y-12672436D02*
X11546015Y-12691484D01*
X11679348Y-12491484D02*
X11698396Y-12491484D01*
X11698396Y-12491484D02*
X11717444Y-12501008D01*
X11717444Y-12501008D02*
X11726967Y-12510531D01*
X11726967Y-12510531D02*
X11736491Y-12529579D01*
X11736491Y-12529579D02*
X11746015Y-12567674D01*
X11746015Y-12567674D02*
X11746015Y-12615293D01*
X11746015Y-12615293D02*
X11736491Y-12653388D01*
X11736491Y-12653388D02*
X11726967Y-12672436D01*
X11726967Y-12672436D02*
X11717444Y-12681960D01*
X11717444Y-12681960D02*
X11698396Y-12691484D01*
X11698396Y-12691484D02*
X11679348Y-12691484D01*
X11679348Y-12691484D02*
X11660301Y-12681960D01*
X11660301Y-12681960D02*
X11650777Y-12672436D01*
X11650777Y-12672436D02*
X11641253Y-12653388D01*
X11641253Y-12653388D02*
X11631729Y-12615293D01*
X11631729Y-12615293D02*
X11631729Y-12567674D01*
X11631729Y-12567674D02*
X11641253Y-12529579D01*
X11641253Y-12529579D02*
X11650777Y-12510531D01*
X11650777Y-12510531D02*
X11660301Y-12501008D01*
X11660301Y-12501008D02*
X11679348Y-12491484D01*
X11869825Y-12491484D02*
X11888872Y-12491484D01*
X11888872Y-12491484D02*
X11907920Y-12501008D01*
X11907920Y-12501008D02*
X11917444Y-12510531D01*
X11917444Y-12510531D02*
X11926967Y-12529579D01*
X11926967Y-12529579D02*
X11936491Y-12567674D01*
X11936491Y-12567674D02*
X11936491Y-12615293D01*
X11936491Y-12615293D02*
X11926967Y-12653388D01*
X11926967Y-12653388D02*
X11917444Y-12672436D01*
X11917444Y-12672436D02*
X11907920Y-12681960D01*
X11907920Y-12681960D02*
X11888872Y-12691484D01*
X11888872Y-12691484D02*
X11869825Y-12691484D01*
X11869825Y-12691484D02*
X11850777Y-12681960D01*
X11850777Y-12681960D02*
X11841253Y-12672436D01*
X11841253Y-12672436D02*
X11831729Y-12653388D01*
X11831729Y-12653388D02*
X11822206Y-12615293D01*
X11822206Y-12615293D02*
X11822206Y-12567674D01*
X11822206Y-12567674D02*
X11831729Y-12529579D01*
X11831729Y-12529579D02*
X11841253Y-12510531D01*
X11841253Y-12510531D02*
X11850777Y-12501008D01*
X11850777Y-12501008D02*
X11869825Y-12491484D01*
X12003158Y-12491484D02*
X12136491Y-12491484D01*
X12136491Y-12491484D02*
X12050777Y-12691484D01*
X12222206Y-12691484D02*
X12260301Y-12691484D01*
X12260301Y-12691484D02*
X12279348Y-12681960D01*
X12279348Y-12681960D02*
X12288872Y-12672436D01*
X12288872Y-12672436D02*
X12307920Y-12643865D01*
X12307920Y-12643865D02*
X12317444Y-12605769D01*
X12317444Y-12605769D02*
X12317444Y-12529579D01*
X12317444Y-12529579D02*
X12307920Y-12510531D01*
X12307920Y-12510531D02*
X12298396Y-12501008D01*
X12298396Y-12501008D02*
X12279348Y-12491484D01*
X12279348Y-12491484D02*
X12241253Y-12491484D01*
X12241253Y-12491484D02*
X12222206Y-12501008D01*
X12222206Y-12501008D02*
X12212682Y-12510531D01*
X12212682Y-12510531D02*
X12203158Y-12529579D01*
X12203158Y-12529579D02*
X12203158Y-12577198D01*
X12203158Y-12577198D02*
X12212682Y-12596246D01*
X12212682Y-12596246D02*
X12222206Y-12605769D01*
X12222206Y-12605769D02*
X12241253Y-12615293D01*
X12241253Y-12615293D02*
X12279348Y-12615293D01*
X12279348Y-12615293D02*
X12298396Y-12605769D01*
X12298396Y-12605769D02*
X12307920Y-12596246D01*
X12307920Y-12596246D02*
X12317444Y-12577198D01*
X12393634Y-12491484D02*
X12393634Y-12529579D01*
X12469825Y-12491484D02*
X12469825Y-12529579D01*
X12765063Y-12767674D02*
X12755539Y-12758150D01*
X12755539Y-12758150D02*
X12736491Y-12729579D01*
X12736491Y-12729579D02*
X12726968Y-12710531D01*
X12726968Y-12710531D02*
X12717444Y-12681960D01*
X12717444Y-12681960D02*
X12707920Y-12634341D01*
X12707920Y-12634341D02*
X12707920Y-12596246D01*
X12707920Y-12596246D02*
X12717444Y-12548627D01*
X12717444Y-12548627D02*
X12726968Y-12520055D01*
X12726968Y-12520055D02*
X12736491Y-12501008D01*
X12736491Y-12501008D02*
X12755539Y-12472436D01*
X12755539Y-12472436D02*
X12765063Y-12462912D01*
X12831729Y-12510531D02*
X12841253Y-12501008D01*
X12841253Y-12501008D02*
X12860301Y-12491484D01*
X12860301Y-12491484D02*
X12907920Y-12491484D01*
X12907920Y-12491484D02*
X12926968Y-12501008D01*
X12926968Y-12501008D02*
X12936491Y-12510531D01*
X12936491Y-12510531D02*
X12946015Y-12529579D01*
X12946015Y-12529579D02*
X12946015Y-12548627D01*
X12946015Y-12548627D02*
X12936491Y-12577198D01*
X12936491Y-12577198D02*
X12822206Y-12691484D01*
X12822206Y-12691484D02*
X12946015Y-12691484D01*
X13069825Y-12491484D02*
X13088872Y-12491484D01*
X13088872Y-12491484D02*
X13107920Y-12501008D01*
X13107920Y-12501008D02*
X13117444Y-12510531D01*
X13117444Y-12510531D02*
X13126968Y-12529579D01*
X13126968Y-12529579D02*
X13136491Y-12567674D01*
X13136491Y-12567674D02*
X13136491Y-12615293D01*
X13136491Y-12615293D02*
X13126968Y-12653388D01*
X13126968Y-12653388D02*
X13117444Y-12672436D01*
X13117444Y-12672436D02*
X13107920Y-12681960D01*
X13107920Y-12681960D02*
X13088872Y-12691484D01*
X13088872Y-12691484D02*
X13069825Y-12691484D01*
X13069825Y-12691484D02*
X13050777Y-12681960D01*
X13050777Y-12681960D02*
X13041253Y-12672436D01*
X13041253Y-12672436D02*
X13031729Y-12653388D01*
X13031729Y-12653388D02*
X13022206Y-12615293D01*
X13022206Y-12615293D02*
X13022206Y-12567674D01*
X13022206Y-12567674D02*
X13031729Y-12529579D01*
X13031729Y-12529579D02*
X13041253Y-12510531D01*
X13041253Y-12510531D02*
X13050777Y-12501008D01*
X13050777Y-12501008D02*
X13069825Y-12491484D01*
X13374587Y-12691484D02*
X13374587Y-12491484D01*
X13460301Y-12691484D02*
X13460301Y-12586722D01*
X13460301Y-12586722D02*
X13450777Y-12567674D01*
X13450777Y-12567674D02*
X13431730Y-12558150D01*
X13431730Y-12558150D02*
X13403158Y-12558150D01*
X13403158Y-12558150D02*
X13384110Y-12567674D01*
X13384110Y-12567674D02*
X13374587Y-12577198D01*
X13584110Y-12691484D02*
X13565063Y-12681960D01*
X13565063Y-12681960D02*
X13555539Y-12672436D01*
X13555539Y-12672436D02*
X13546015Y-12653388D01*
X13546015Y-12653388D02*
X13546015Y-12596246D01*
X13546015Y-12596246D02*
X13555539Y-12577198D01*
X13555539Y-12577198D02*
X13565063Y-12567674D01*
X13565063Y-12567674D02*
X13584110Y-12558150D01*
X13584110Y-12558150D02*
X13612682Y-12558150D01*
X13612682Y-12558150D02*
X13631730Y-12567674D01*
X13631730Y-12567674D02*
X13641253Y-12577198D01*
X13641253Y-12577198D02*
X13650777Y-12596246D01*
X13650777Y-12596246D02*
X13650777Y-12653388D01*
X13650777Y-12653388D02*
X13641253Y-12672436D01*
X13641253Y-12672436D02*
X13631730Y-12681960D01*
X13631730Y-12681960D02*
X13612682Y-12691484D01*
X13612682Y-12691484D02*
X13584110Y-12691484D01*
X13765063Y-12691484D02*
X13746015Y-12681960D01*
X13746015Y-12681960D02*
X13736491Y-12662912D01*
X13736491Y-12662912D02*
X13736491Y-12491484D01*
X13917444Y-12681960D02*
X13898396Y-12691484D01*
X13898396Y-12691484D02*
X13860301Y-12691484D01*
X13860301Y-12691484D02*
X13841253Y-12681960D01*
X13841253Y-12681960D02*
X13831730Y-12662912D01*
X13831730Y-12662912D02*
X13831730Y-12586722D01*
X13831730Y-12586722D02*
X13841253Y-12567674D01*
X13841253Y-12567674D02*
X13860301Y-12558150D01*
X13860301Y-12558150D02*
X13898396Y-12558150D01*
X13898396Y-12558150D02*
X13917444Y-12567674D01*
X13917444Y-12567674D02*
X13926968Y-12586722D01*
X13926968Y-12586722D02*
X13926968Y-12605769D01*
X13926968Y-12605769D02*
X13831730Y-12624817D01*
X14003158Y-12681960D02*
X14022206Y-12691484D01*
X14022206Y-12691484D02*
X14060301Y-12691484D01*
X14060301Y-12691484D02*
X14079349Y-12681960D01*
X14079349Y-12681960D02*
X14088872Y-12662912D01*
X14088872Y-12662912D02*
X14088872Y-12653388D01*
X14088872Y-12653388D02*
X14079349Y-12634341D01*
X14079349Y-12634341D02*
X14060301Y-12624817D01*
X14060301Y-12624817D02*
X14031730Y-12624817D01*
X14031730Y-12624817D02*
X14012682Y-12615293D01*
X14012682Y-12615293D02*
X14003158Y-12596246D01*
X14003158Y-12596246D02*
X14003158Y-12586722D01*
X14003158Y-12586722D02*
X14012682Y-12567674D01*
X14012682Y-12567674D02*
X14031730Y-12558150D01*
X14031730Y-12558150D02*
X14060301Y-12558150D01*
X14060301Y-12558150D02*
X14079349Y-12567674D01*
X14155539Y-12767674D02*
X14165063Y-12758150D01*
X14165063Y-12758150D02*
X14184111Y-12729579D01*
X14184111Y-12729579D02*
X14193634Y-12710531D01*
X14193634Y-12710531D02*
X14203158Y-12681960D01*
X14203158Y-12681960D02*
X14212682Y-12634341D01*
X14212682Y-12634341D02*
X14212682Y-12596246D01*
X14212682Y-12596246D02*
X14203158Y-12548627D01*
X14203158Y-12548627D02*
X14193634Y-12520055D01*
X14193634Y-12520055D02*
X14184111Y-12501008D01*
X14184111Y-12501008D02*
X14165063Y-12472436D01*
X14165063Y-12472436D02*
X14155539Y-12462912D01*
D11*
X9190000Y-12864000D02*
G75*
G02*
X9160000Y-12864000I-15000J0D01*
G01*
X9160000Y-12864000D02*
G75*
G02*
X9190000Y-12864000I15000J0D01*
G01*
D10*
X9488872Y-12755484D02*
X9507920Y-12755484D01*
X9507920Y-12755484D02*
X9526967Y-12765008D01*
X9526967Y-12765008D02*
X9536491Y-12774531D01*
X9536491Y-12774531D02*
X9546015Y-12793579D01*
X9546015Y-12793579D02*
X9555539Y-12831674D01*
X9555539Y-12831674D02*
X9555539Y-12879293D01*
X9555539Y-12879293D02*
X9546015Y-12917388D01*
X9546015Y-12917388D02*
X9536491Y-12936436D01*
X9536491Y-12936436D02*
X9526967Y-12945960D01*
X9526967Y-12945960D02*
X9507920Y-12955484D01*
X9507920Y-12955484D02*
X9488872Y-12955484D01*
X9488872Y-12955484D02*
X9469824Y-12945960D01*
X9469824Y-12945960D02*
X9460301Y-12936436D01*
X9460301Y-12936436D02*
X9450777Y-12917388D01*
X9450777Y-12917388D02*
X9441253Y-12879293D01*
X9441253Y-12879293D02*
X9441253Y-12831674D01*
X9441253Y-12831674D02*
X9450777Y-12793579D01*
X9450777Y-12793579D02*
X9460301Y-12774531D01*
X9460301Y-12774531D02*
X9469824Y-12765008D01*
X9469824Y-12765008D02*
X9488872Y-12755484D01*
X9641253Y-12936436D02*
X9650777Y-12945960D01*
X9650777Y-12945960D02*
X9641253Y-12955484D01*
X9641253Y-12955484D02*
X9631729Y-12945960D01*
X9631729Y-12945960D02*
X9641253Y-12936436D01*
X9641253Y-12936436D02*
X9641253Y-12955484D01*
X9717444Y-12755484D02*
X9841253Y-12755484D01*
X9841253Y-12755484D02*
X9774586Y-12831674D01*
X9774586Y-12831674D02*
X9803158Y-12831674D01*
X9803158Y-12831674D02*
X9822205Y-12841198D01*
X9822205Y-12841198D02*
X9831729Y-12850722D01*
X9831729Y-12850722D02*
X9841253Y-12869769D01*
X9841253Y-12869769D02*
X9841253Y-12917388D01*
X9841253Y-12917388D02*
X9831729Y-12936436D01*
X9831729Y-12936436D02*
X9822205Y-12945960D01*
X9822205Y-12945960D02*
X9803158Y-12955484D01*
X9803158Y-12955484D02*
X9746015Y-12955484D01*
X9746015Y-12955484D02*
X9726967Y-12945960D01*
X9726967Y-12945960D02*
X9717444Y-12936436D01*
X9965063Y-12755484D02*
X9984110Y-12755484D01*
X9984110Y-12755484D02*
X10003158Y-12765008D01*
X10003158Y-12765008D02*
X10012682Y-12774531D01*
X10012682Y-12774531D02*
X10022205Y-12793579D01*
X10022205Y-12793579D02*
X10031729Y-12831674D01*
X10031729Y-12831674D02*
X10031729Y-12879293D01*
X10031729Y-12879293D02*
X10022205Y-12917388D01*
X10022205Y-12917388D02*
X10012682Y-12936436D01*
X10012682Y-12936436D02*
X10003158Y-12945960D01*
X10003158Y-12945960D02*
X9984110Y-12955484D01*
X9984110Y-12955484D02*
X9965063Y-12955484D01*
X9965063Y-12955484D02*
X9946015Y-12945960D01*
X9946015Y-12945960D02*
X9936491Y-12936436D01*
X9936491Y-12936436D02*
X9926967Y-12917388D01*
X9926967Y-12917388D02*
X9917444Y-12879293D01*
X9917444Y-12879293D02*
X9917444Y-12831674D01*
X9917444Y-12831674D02*
X9926967Y-12793579D01*
X9926967Y-12793579D02*
X9936491Y-12774531D01*
X9936491Y-12774531D02*
X9946015Y-12765008D01*
X9946015Y-12765008D02*
X9965063Y-12755484D01*
X10155539Y-12755484D02*
X10174586Y-12755484D01*
X10174586Y-12755484D02*
X10193634Y-12765008D01*
X10193634Y-12765008D02*
X10203158Y-12774531D01*
X10203158Y-12774531D02*
X10212682Y-12793579D01*
X10212682Y-12793579D02*
X10222205Y-12831674D01*
X10222205Y-12831674D02*
X10222205Y-12879293D01*
X10222205Y-12879293D02*
X10212682Y-12917388D01*
X10212682Y-12917388D02*
X10203158Y-12936436D01*
X10203158Y-12936436D02*
X10193634Y-12945960D01*
X10193634Y-12945960D02*
X10174586Y-12955484D01*
X10174586Y-12955484D02*
X10155539Y-12955484D01*
X10155539Y-12955484D02*
X10136491Y-12945960D01*
X10136491Y-12945960D02*
X10126967Y-12936436D01*
X10126967Y-12936436D02*
X10117444Y-12917388D01*
X10117444Y-12917388D02*
X10107920Y-12879293D01*
X10107920Y-12879293D02*
X10107920Y-12831674D01*
X10107920Y-12831674D02*
X10117444Y-12793579D01*
X10117444Y-12793579D02*
X10126967Y-12774531D01*
X10126967Y-12774531D02*
X10136491Y-12765008D01*
X10136491Y-12765008D02*
X10155539Y-12755484D01*
X10307920Y-12955484D02*
X10307920Y-12822150D01*
X10307920Y-12841198D02*
X10317444Y-12831674D01*
X10317444Y-12831674D02*
X10336491Y-12822150D01*
X10336491Y-12822150D02*
X10365063Y-12822150D01*
X10365063Y-12822150D02*
X10384110Y-12831674D01*
X10384110Y-12831674D02*
X10393634Y-12850722D01*
X10393634Y-12850722D02*
X10393634Y-12955484D01*
X10393634Y-12850722D02*
X10403158Y-12831674D01*
X10403158Y-12831674D02*
X10422205Y-12822150D01*
X10422205Y-12822150D02*
X10450777Y-12822150D01*
X10450777Y-12822150D02*
X10469825Y-12831674D01*
X10469825Y-12831674D02*
X10479348Y-12850722D01*
X10479348Y-12850722D02*
X10479348Y-12955484D01*
X10574586Y-12955484D02*
X10574586Y-12822150D01*
X10574586Y-12841198D02*
X10584110Y-12831674D01*
X10584110Y-12831674D02*
X10603158Y-12822150D01*
X10603158Y-12822150D02*
X10631729Y-12822150D01*
X10631729Y-12822150D02*
X10650777Y-12831674D01*
X10650777Y-12831674D02*
X10660301Y-12850722D01*
X10660301Y-12850722D02*
X10660301Y-12955484D01*
X10660301Y-12850722D02*
X10669825Y-12831674D01*
X10669825Y-12831674D02*
X10688872Y-12822150D01*
X10688872Y-12822150D02*
X10717444Y-12822150D01*
X10717444Y-12822150D02*
X10736491Y-12831674D01*
X10736491Y-12831674D02*
X10746015Y-12850722D01*
X10746015Y-12850722D02*
X10746015Y-12955484D01*
X11136491Y-12745960D02*
X10965063Y-13003103D01*
X11393634Y-12755484D02*
X11412682Y-12755484D01*
X11412682Y-12755484D02*
X11431729Y-12765008D01*
X11431729Y-12765008D02*
X11441253Y-12774531D01*
X11441253Y-12774531D02*
X11450777Y-12793579D01*
X11450777Y-12793579D02*
X11460301Y-12831674D01*
X11460301Y-12831674D02*
X11460301Y-12879293D01*
X11460301Y-12879293D02*
X11450777Y-12917388D01*
X11450777Y-12917388D02*
X11441253Y-12936436D01*
X11441253Y-12936436D02*
X11431729Y-12945960D01*
X11431729Y-12945960D02*
X11412682Y-12955484D01*
X11412682Y-12955484D02*
X11393634Y-12955484D01*
X11393634Y-12955484D02*
X11374586Y-12945960D01*
X11374586Y-12945960D02*
X11365063Y-12936436D01*
X11365063Y-12936436D02*
X11355539Y-12917388D01*
X11355539Y-12917388D02*
X11346015Y-12879293D01*
X11346015Y-12879293D02*
X11346015Y-12831674D01*
X11346015Y-12831674D02*
X11355539Y-12793579D01*
X11355539Y-12793579D02*
X11365063Y-12774531D01*
X11365063Y-12774531D02*
X11374586Y-12765008D01*
X11374586Y-12765008D02*
X11393634Y-12755484D01*
X11546015Y-12936436D02*
X11555539Y-12945960D01*
X11555539Y-12945960D02*
X11546015Y-12955484D01*
X11546015Y-12955484D02*
X11536491Y-12945960D01*
X11536491Y-12945960D02*
X11546015Y-12936436D01*
X11546015Y-12936436D02*
X11546015Y-12955484D01*
X11679348Y-12755484D02*
X11698396Y-12755484D01*
X11698396Y-12755484D02*
X11717444Y-12765008D01*
X11717444Y-12765008D02*
X11726967Y-12774531D01*
X11726967Y-12774531D02*
X11736491Y-12793579D01*
X11736491Y-12793579D02*
X11746015Y-12831674D01*
X11746015Y-12831674D02*
X11746015Y-12879293D01*
X11746015Y-12879293D02*
X11736491Y-12917388D01*
X11736491Y-12917388D02*
X11726967Y-12936436D01*
X11726967Y-12936436D02*
X11717444Y-12945960D01*
X11717444Y-12945960D02*
X11698396Y-12955484D01*
X11698396Y-12955484D02*
X11679348Y-12955484D01*
X11679348Y-12955484D02*
X11660301Y-12945960D01*
X11660301Y-12945960D02*
X11650777Y-12936436D01*
X11650777Y-12936436D02*
X11641253Y-12917388D01*
X11641253Y-12917388D02*
X11631729Y-12879293D01*
X11631729Y-12879293D02*
X11631729Y-12831674D01*
X11631729Y-12831674D02*
X11641253Y-12793579D01*
X11641253Y-12793579D02*
X11650777Y-12774531D01*
X11650777Y-12774531D02*
X11660301Y-12765008D01*
X11660301Y-12765008D02*
X11679348Y-12755484D01*
X11936491Y-12955484D02*
X11822206Y-12955484D01*
X11879348Y-12955484D02*
X11879348Y-12755484D01*
X11879348Y-12755484D02*
X11860301Y-12784055D01*
X11860301Y-12784055D02*
X11841253Y-12803103D01*
X11841253Y-12803103D02*
X11822206Y-12812627D01*
X12126967Y-12955484D02*
X12012682Y-12955484D01*
X12069825Y-12955484D02*
X12069825Y-12755484D01*
X12069825Y-12755484D02*
X12050777Y-12784055D01*
X12050777Y-12784055D02*
X12031729Y-12803103D01*
X12031729Y-12803103D02*
X12012682Y-12812627D01*
X12241253Y-12841198D02*
X12222206Y-12831674D01*
X12222206Y-12831674D02*
X12212682Y-12822150D01*
X12212682Y-12822150D02*
X12203158Y-12803103D01*
X12203158Y-12803103D02*
X12203158Y-12793579D01*
X12203158Y-12793579D02*
X12212682Y-12774531D01*
X12212682Y-12774531D02*
X12222206Y-12765008D01*
X12222206Y-12765008D02*
X12241253Y-12755484D01*
X12241253Y-12755484D02*
X12279348Y-12755484D01*
X12279348Y-12755484D02*
X12298396Y-12765008D01*
X12298396Y-12765008D02*
X12307920Y-12774531D01*
X12307920Y-12774531D02*
X12317444Y-12793579D01*
X12317444Y-12793579D02*
X12317444Y-12803103D01*
X12317444Y-12803103D02*
X12307920Y-12822150D01*
X12307920Y-12822150D02*
X12298396Y-12831674D01*
X12298396Y-12831674D02*
X12279348Y-12841198D01*
X12279348Y-12841198D02*
X12241253Y-12841198D01*
X12241253Y-12841198D02*
X12222206Y-12850722D01*
X12222206Y-12850722D02*
X12212682Y-12860246D01*
X12212682Y-12860246D02*
X12203158Y-12879293D01*
X12203158Y-12879293D02*
X12203158Y-12917388D01*
X12203158Y-12917388D02*
X12212682Y-12936436D01*
X12212682Y-12936436D02*
X12222206Y-12945960D01*
X12222206Y-12945960D02*
X12241253Y-12955484D01*
X12241253Y-12955484D02*
X12279348Y-12955484D01*
X12279348Y-12955484D02*
X12298396Y-12945960D01*
X12298396Y-12945960D02*
X12307920Y-12936436D01*
X12307920Y-12936436D02*
X12317444Y-12917388D01*
X12317444Y-12917388D02*
X12317444Y-12879293D01*
X12317444Y-12879293D02*
X12307920Y-12860246D01*
X12307920Y-12860246D02*
X12298396Y-12850722D01*
X12298396Y-12850722D02*
X12279348Y-12841198D01*
X12393634Y-12755484D02*
X12393634Y-12793579D01*
X12469825Y-12755484D02*
X12469825Y-12793579D01*
X12765063Y-13031674D02*
X12755539Y-13022150D01*
X12755539Y-13022150D02*
X12736491Y-12993579D01*
X12736491Y-12993579D02*
X12726968Y-12974531D01*
X12726968Y-12974531D02*
X12717444Y-12945960D01*
X12717444Y-12945960D02*
X12707920Y-12898341D01*
X12707920Y-12898341D02*
X12707920Y-12860246D01*
X12707920Y-12860246D02*
X12717444Y-12812627D01*
X12717444Y-12812627D02*
X12726968Y-12784055D01*
X12726968Y-12784055D02*
X12736491Y-12765008D01*
X12736491Y-12765008D02*
X12755539Y-12736436D01*
X12755539Y-12736436D02*
X12765063Y-12726912D01*
X12946015Y-12955484D02*
X12831729Y-12955484D01*
X12888872Y-12955484D02*
X12888872Y-12755484D01*
X12888872Y-12755484D02*
X12869825Y-12784055D01*
X12869825Y-12784055D02*
X12850777Y-12803103D01*
X12850777Y-12803103D02*
X12831729Y-12812627D01*
X13069825Y-12755484D02*
X13088872Y-12755484D01*
X13088872Y-12755484D02*
X13107920Y-12765008D01*
X13107920Y-12765008D02*
X13117444Y-12774531D01*
X13117444Y-12774531D02*
X13126968Y-12793579D01*
X13126968Y-12793579D02*
X13136491Y-12831674D01*
X13136491Y-12831674D02*
X13136491Y-12879293D01*
X13136491Y-12879293D02*
X13126968Y-12917388D01*
X13126968Y-12917388D02*
X13117444Y-12936436D01*
X13117444Y-12936436D02*
X13107920Y-12945960D01*
X13107920Y-12945960D02*
X13088872Y-12955484D01*
X13088872Y-12955484D02*
X13069825Y-12955484D01*
X13069825Y-12955484D02*
X13050777Y-12945960D01*
X13050777Y-12945960D02*
X13041253Y-12936436D01*
X13041253Y-12936436D02*
X13031729Y-12917388D01*
X13031729Y-12917388D02*
X13022206Y-12879293D01*
X13022206Y-12879293D02*
X13022206Y-12831674D01*
X13022206Y-12831674D02*
X13031729Y-12793579D01*
X13031729Y-12793579D02*
X13041253Y-12774531D01*
X13041253Y-12774531D02*
X13050777Y-12765008D01*
X13050777Y-12765008D02*
X13069825Y-12755484D01*
X13250777Y-12841198D02*
X13231729Y-12831674D01*
X13231729Y-12831674D02*
X13222206Y-12822150D01*
X13222206Y-12822150D02*
X13212682Y-12803103D01*
X13212682Y-12803103D02*
X13212682Y-12793579D01*
X13212682Y-12793579D02*
X13222206Y-12774531D01*
X13222206Y-12774531D02*
X13231729Y-12765008D01*
X13231729Y-12765008D02*
X13250777Y-12755484D01*
X13250777Y-12755484D02*
X13288872Y-12755484D01*
X13288872Y-12755484D02*
X13307920Y-12765008D01*
X13307920Y-12765008D02*
X13317444Y-12774531D01*
X13317444Y-12774531D02*
X13326968Y-12793579D01*
X13326968Y-12793579D02*
X13326968Y-12803103D01*
X13326968Y-12803103D02*
X13317444Y-12822150D01*
X13317444Y-12822150D02*
X13307920Y-12831674D01*
X13307920Y-12831674D02*
X13288872Y-12841198D01*
X13288872Y-12841198D02*
X13250777Y-12841198D01*
X13250777Y-12841198D02*
X13231729Y-12850722D01*
X13231729Y-12850722D02*
X13222206Y-12860246D01*
X13222206Y-12860246D02*
X13212682Y-12879293D01*
X13212682Y-12879293D02*
X13212682Y-12917388D01*
X13212682Y-12917388D02*
X13222206Y-12936436D01*
X13222206Y-12936436D02*
X13231729Y-12945960D01*
X13231729Y-12945960D02*
X13250777Y-12955484D01*
X13250777Y-12955484D02*
X13288872Y-12955484D01*
X13288872Y-12955484D02*
X13307920Y-12945960D01*
X13307920Y-12945960D02*
X13317444Y-12936436D01*
X13317444Y-12936436D02*
X13326968Y-12917388D01*
X13326968Y-12917388D02*
X13326968Y-12879293D01*
X13326968Y-12879293D02*
X13317444Y-12860246D01*
X13317444Y-12860246D02*
X13307920Y-12850722D01*
X13307920Y-12850722D02*
X13288872Y-12841198D01*
X13565063Y-12955484D02*
X13565063Y-12755484D01*
X13650777Y-12955484D02*
X13650777Y-12850722D01*
X13650777Y-12850722D02*
X13641253Y-12831674D01*
X13641253Y-12831674D02*
X13622206Y-12822150D01*
X13622206Y-12822150D02*
X13593634Y-12822150D01*
X13593634Y-12822150D02*
X13574587Y-12831674D01*
X13574587Y-12831674D02*
X13565063Y-12841198D01*
X13774587Y-12955484D02*
X13755539Y-12945960D01*
X13755539Y-12945960D02*
X13746015Y-12936436D01*
X13746015Y-12936436D02*
X13736491Y-12917388D01*
X13736491Y-12917388D02*
X13736491Y-12860246D01*
X13736491Y-12860246D02*
X13746015Y-12841198D01*
X13746015Y-12841198D02*
X13755539Y-12831674D01*
X13755539Y-12831674D02*
X13774587Y-12822150D01*
X13774587Y-12822150D02*
X13803158Y-12822150D01*
X13803158Y-12822150D02*
X13822206Y-12831674D01*
X13822206Y-12831674D02*
X13831730Y-12841198D01*
X13831730Y-12841198D02*
X13841253Y-12860246D01*
X13841253Y-12860246D02*
X13841253Y-12917388D01*
X13841253Y-12917388D02*
X13831730Y-12936436D01*
X13831730Y-12936436D02*
X13822206Y-12945960D01*
X13822206Y-12945960D02*
X13803158Y-12955484D01*
X13803158Y-12955484D02*
X13774587Y-12955484D01*
X13955539Y-12955484D02*
X13936491Y-12945960D01*
X13936491Y-12945960D02*
X13926968Y-12926912D01*
X13926968Y-12926912D02*
X13926968Y-12755484D01*
X14107920Y-12945960D02*
X14088872Y-12955484D01*
X14088872Y-12955484D02*
X14050777Y-12955484D01*
X14050777Y-12955484D02*
X14031730Y-12945960D01*
X14031730Y-12945960D02*
X14022206Y-12926912D01*
X14022206Y-12926912D02*
X14022206Y-12850722D01*
X14022206Y-12850722D02*
X14031730Y-12831674D01*
X14031730Y-12831674D02*
X14050777Y-12822150D01*
X14050777Y-12822150D02*
X14088872Y-12822150D01*
X14088872Y-12822150D02*
X14107920Y-12831674D01*
X14107920Y-12831674D02*
X14117444Y-12850722D01*
X14117444Y-12850722D02*
X14117444Y-12869769D01*
X14117444Y-12869769D02*
X14022206Y-12888817D01*
X14193634Y-12945960D02*
X14212682Y-12955484D01*
X14212682Y-12955484D02*
X14250777Y-12955484D01*
X14250777Y-12955484D02*
X14269825Y-12945960D01*
X14269825Y-12945960D02*
X14279349Y-12926912D01*
X14279349Y-12926912D02*
X14279349Y-12917388D01*
X14279349Y-12917388D02*
X14269825Y-12898341D01*
X14269825Y-12898341D02*
X14250777Y-12888817D01*
X14250777Y-12888817D02*
X14222206Y-12888817D01*
X14222206Y-12888817D02*
X14203158Y-12879293D01*
X14203158Y-12879293D02*
X14193634Y-12860246D01*
X14193634Y-12860246D02*
X14193634Y-12850722D01*
X14193634Y-12850722D02*
X14203158Y-12831674D01*
X14203158Y-12831674D02*
X14222206Y-12822150D01*
X14222206Y-12822150D02*
X14250777Y-12822150D01*
X14250777Y-12822150D02*
X14269825Y-12831674D01*
X14346015Y-13031674D02*
X14355539Y-13022150D01*
X14355539Y-13022150D02*
X14374587Y-12993579D01*
X14374587Y-12993579D02*
X14384111Y-12974531D01*
X14384111Y-12974531D02*
X14393634Y-12945960D01*
X14393634Y-12945960D02*
X14403158Y-12898341D01*
X14403158Y-12898341D02*
X14403158Y-12860246D01*
X14403158Y-12860246D02*
X14393634Y-12812627D01*
X14393634Y-12812627D02*
X14384111Y-12784055D01*
X14384111Y-12784055D02*
X14374587Y-12765008D01*
X14374587Y-12765008D02*
X14355539Y-12736436D01*
X14355539Y-12736436D02*
X14346015Y-12726912D01*
X9090000Y-13028000D02*
X9090000Y-13228000D01*
X8990000Y-13128000D02*
X9190000Y-13128000D01*
X9441253Y-13038531D02*
X9450777Y-13029008D01*
X9450777Y-13029008D02*
X9469824Y-13019484D01*
X9469824Y-13019484D02*
X9517444Y-13019484D01*
X9517444Y-13019484D02*
X9536491Y-13029008D01*
X9536491Y-13029008D02*
X9546015Y-13038531D01*
X9546015Y-13038531D02*
X9555539Y-13057579D01*
X9555539Y-13057579D02*
X9555539Y-13076627D01*
X9555539Y-13076627D02*
X9546015Y-13105198D01*
X9546015Y-13105198D02*
X9431729Y-13219484D01*
X9431729Y-13219484D02*
X9555539Y-13219484D01*
X9641253Y-13200436D02*
X9650777Y-13209960D01*
X9650777Y-13209960D02*
X9641253Y-13219484D01*
X9641253Y-13219484D02*
X9631729Y-13209960D01*
X9631729Y-13209960D02*
X9641253Y-13200436D01*
X9641253Y-13200436D02*
X9641253Y-13219484D01*
X9841253Y-13219484D02*
X9726967Y-13219484D01*
X9784110Y-13219484D02*
X9784110Y-13019484D01*
X9784110Y-13019484D02*
X9765063Y-13048055D01*
X9765063Y-13048055D02*
X9746015Y-13067103D01*
X9746015Y-13067103D02*
X9726967Y-13076627D01*
X9965063Y-13019484D02*
X9984110Y-13019484D01*
X9984110Y-13019484D02*
X10003158Y-13029008D01*
X10003158Y-13029008D02*
X10012682Y-13038531D01*
X10012682Y-13038531D02*
X10022205Y-13057579D01*
X10022205Y-13057579D02*
X10031729Y-13095674D01*
X10031729Y-13095674D02*
X10031729Y-13143293D01*
X10031729Y-13143293D02*
X10022205Y-13181388D01*
X10022205Y-13181388D02*
X10012682Y-13200436D01*
X10012682Y-13200436D02*
X10003158Y-13209960D01*
X10003158Y-13209960D02*
X9984110Y-13219484D01*
X9984110Y-13219484D02*
X9965063Y-13219484D01*
X9965063Y-13219484D02*
X9946015Y-13209960D01*
X9946015Y-13209960D02*
X9936491Y-13200436D01*
X9936491Y-13200436D02*
X9926967Y-13181388D01*
X9926967Y-13181388D02*
X9917444Y-13143293D01*
X9917444Y-13143293D02*
X9917444Y-13095674D01*
X9917444Y-13095674D02*
X9926967Y-13057579D01*
X9926967Y-13057579D02*
X9936491Y-13038531D01*
X9936491Y-13038531D02*
X9946015Y-13029008D01*
X9946015Y-13029008D02*
X9965063Y-13019484D01*
X10155539Y-13019484D02*
X10174586Y-13019484D01*
X10174586Y-13019484D02*
X10193634Y-13029008D01*
X10193634Y-13029008D02*
X10203158Y-13038531D01*
X10203158Y-13038531D02*
X10212682Y-13057579D01*
X10212682Y-13057579D02*
X10222205Y-13095674D01*
X10222205Y-13095674D02*
X10222205Y-13143293D01*
X10222205Y-13143293D02*
X10212682Y-13181388D01*
X10212682Y-13181388D02*
X10203158Y-13200436D01*
X10203158Y-13200436D02*
X10193634Y-13209960D01*
X10193634Y-13209960D02*
X10174586Y-13219484D01*
X10174586Y-13219484D02*
X10155539Y-13219484D01*
X10155539Y-13219484D02*
X10136491Y-13209960D01*
X10136491Y-13209960D02*
X10126967Y-13200436D01*
X10126967Y-13200436D02*
X10117444Y-13181388D01*
X10117444Y-13181388D02*
X10107920Y-13143293D01*
X10107920Y-13143293D02*
X10107920Y-13095674D01*
X10107920Y-13095674D02*
X10117444Y-13057579D01*
X10117444Y-13057579D02*
X10126967Y-13038531D01*
X10126967Y-13038531D02*
X10136491Y-13029008D01*
X10136491Y-13029008D02*
X10155539Y-13019484D01*
X10307920Y-13219484D02*
X10307920Y-13086150D01*
X10307920Y-13105198D02*
X10317444Y-13095674D01*
X10317444Y-13095674D02*
X10336491Y-13086150D01*
X10336491Y-13086150D02*
X10365063Y-13086150D01*
X10365063Y-13086150D02*
X10384110Y-13095674D01*
X10384110Y-13095674D02*
X10393634Y-13114722D01*
X10393634Y-13114722D02*
X10393634Y-13219484D01*
X10393634Y-13114722D02*
X10403158Y-13095674D01*
X10403158Y-13095674D02*
X10422205Y-13086150D01*
X10422205Y-13086150D02*
X10450777Y-13086150D01*
X10450777Y-13086150D02*
X10469825Y-13095674D01*
X10469825Y-13095674D02*
X10479348Y-13114722D01*
X10479348Y-13114722D02*
X10479348Y-13219484D01*
X10574586Y-13219484D02*
X10574586Y-13086150D01*
X10574586Y-13105198D02*
X10584110Y-13095674D01*
X10584110Y-13095674D02*
X10603158Y-13086150D01*
X10603158Y-13086150D02*
X10631729Y-13086150D01*
X10631729Y-13086150D02*
X10650777Y-13095674D01*
X10650777Y-13095674D02*
X10660301Y-13114722D01*
X10660301Y-13114722D02*
X10660301Y-13219484D01*
X10660301Y-13114722D02*
X10669825Y-13095674D01*
X10669825Y-13095674D02*
X10688872Y-13086150D01*
X10688872Y-13086150D02*
X10717444Y-13086150D01*
X10717444Y-13086150D02*
X10736491Y-13095674D01*
X10736491Y-13095674D02*
X10746015Y-13114722D01*
X10746015Y-13114722D02*
X10746015Y-13219484D01*
X11136491Y-13009960D02*
X10965063Y-13267103D01*
X11393634Y-13019484D02*
X11412682Y-13019484D01*
X11412682Y-13019484D02*
X11431729Y-13029008D01*
X11431729Y-13029008D02*
X11441253Y-13038531D01*
X11441253Y-13038531D02*
X11450777Y-13057579D01*
X11450777Y-13057579D02*
X11460301Y-13095674D01*
X11460301Y-13095674D02*
X11460301Y-13143293D01*
X11460301Y-13143293D02*
X11450777Y-13181388D01*
X11450777Y-13181388D02*
X11441253Y-13200436D01*
X11441253Y-13200436D02*
X11431729Y-13209960D01*
X11431729Y-13209960D02*
X11412682Y-13219484D01*
X11412682Y-13219484D02*
X11393634Y-13219484D01*
X11393634Y-13219484D02*
X11374586Y-13209960D01*
X11374586Y-13209960D02*
X11365063Y-13200436D01*
X11365063Y-13200436D02*
X11355539Y-13181388D01*
X11355539Y-13181388D02*
X11346015Y-13143293D01*
X11346015Y-13143293D02*
X11346015Y-13095674D01*
X11346015Y-13095674D02*
X11355539Y-13057579D01*
X11355539Y-13057579D02*
X11365063Y-13038531D01*
X11365063Y-13038531D02*
X11374586Y-13029008D01*
X11374586Y-13029008D02*
X11393634Y-13019484D01*
X11546015Y-13200436D02*
X11555539Y-13209960D01*
X11555539Y-13209960D02*
X11546015Y-13219484D01*
X11546015Y-13219484D02*
X11536491Y-13209960D01*
X11536491Y-13209960D02*
X11546015Y-13200436D01*
X11546015Y-13200436D02*
X11546015Y-13219484D01*
X11679348Y-13019484D02*
X11698396Y-13019484D01*
X11698396Y-13019484D02*
X11717444Y-13029008D01*
X11717444Y-13029008D02*
X11726967Y-13038531D01*
X11726967Y-13038531D02*
X11736491Y-13057579D01*
X11736491Y-13057579D02*
X11746015Y-13095674D01*
X11746015Y-13095674D02*
X11746015Y-13143293D01*
X11746015Y-13143293D02*
X11736491Y-13181388D01*
X11736491Y-13181388D02*
X11726967Y-13200436D01*
X11726967Y-13200436D02*
X11717444Y-13209960D01*
X11717444Y-13209960D02*
X11698396Y-13219484D01*
X11698396Y-13219484D02*
X11679348Y-13219484D01*
X11679348Y-13219484D02*
X11660301Y-13209960D01*
X11660301Y-13209960D02*
X11650777Y-13200436D01*
X11650777Y-13200436D02*
X11641253Y-13181388D01*
X11641253Y-13181388D02*
X11631729Y-13143293D01*
X11631729Y-13143293D02*
X11631729Y-13095674D01*
X11631729Y-13095674D02*
X11641253Y-13057579D01*
X11641253Y-13057579D02*
X11650777Y-13038531D01*
X11650777Y-13038531D02*
X11660301Y-13029008D01*
X11660301Y-13029008D02*
X11679348Y-13019484D01*
X11860301Y-13105198D02*
X11841253Y-13095674D01*
X11841253Y-13095674D02*
X11831729Y-13086150D01*
X11831729Y-13086150D02*
X11822206Y-13067103D01*
X11822206Y-13067103D02*
X11822206Y-13057579D01*
X11822206Y-13057579D02*
X11831729Y-13038531D01*
X11831729Y-13038531D02*
X11841253Y-13029008D01*
X11841253Y-13029008D02*
X11860301Y-13019484D01*
X11860301Y-13019484D02*
X11898396Y-13019484D01*
X11898396Y-13019484D02*
X11917444Y-13029008D01*
X11917444Y-13029008D02*
X11926967Y-13038531D01*
X11926967Y-13038531D02*
X11936491Y-13057579D01*
X11936491Y-13057579D02*
X11936491Y-13067103D01*
X11936491Y-13067103D02*
X11926967Y-13086150D01*
X11926967Y-13086150D02*
X11917444Y-13095674D01*
X11917444Y-13095674D02*
X11898396Y-13105198D01*
X11898396Y-13105198D02*
X11860301Y-13105198D01*
X11860301Y-13105198D02*
X11841253Y-13114722D01*
X11841253Y-13114722D02*
X11831729Y-13124246D01*
X11831729Y-13124246D02*
X11822206Y-13143293D01*
X11822206Y-13143293D02*
X11822206Y-13181388D01*
X11822206Y-13181388D02*
X11831729Y-13200436D01*
X11831729Y-13200436D02*
X11841253Y-13209960D01*
X11841253Y-13209960D02*
X11860301Y-13219484D01*
X11860301Y-13219484D02*
X11898396Y-13219484D01*
X11898396Y-13219484D02*
X11917444Y-13209960D01*
X11917444Y-13209960D02*
X11926967Y-13200436D01*
X11926967Y-13200436D02*
X11936491Y-13181388D01*
X11936491Y-13181388D02*
X11936491Y-13143293D01*
X11936491Y-13143293D02*
X11926967Y-13124246D01*
X11926967Y-13124246D02*
X11917444Y-13114722D01*
X11917444Y-13114722D02*
X11898396Y-13105198D01*
X12012682Y-13038531D02*
X12022206Y-13029008D01*
X12022206Y-13029008D02*
X12041253Y-13019484D01*
X12041253Y-13019484D02*
X12088872Y-13019484D01*
X12088872Y-13019484D02*
X12107920Y-13029008D01*
X12107920Y-13029008D02*
X12117444Y-13038531D01*
X12117444Y-13038531D02*
X12126967Y-13057579D01*
X12126967Y-13057579D02*
X12126967Y-13076627D01*
X12126967Y-13076627D02*
X12117444Y-13105198D01*
X12117444Y-13105198D02*
X12003158Y-13219484D01*
X12003158Y-13219484D02*
X12126967Y-13219484D01*
X12193634Y-13019484D02*
X12326967Y-13019484D01*
X12326967Y-13019484D02*
X12241253Y-13219484D01*
X12393634Y-13019484D02*
X12393634Y-13057579D01*
X12469825Y-13019484D02*
X12469825Y-13057579D01*
X12765063Y-13295674D02*
X12755539Y-13286150D01*
X12755539Y-13286150D02*
X12736491Y-13257579D01*
X12736491Y-13257579D02*
X12726968Y-13238531D01*
X12726968Y-13238531D02*
X12717444Y-13209960D01*
X12717444Y-13209960D02*
X12707920Y-13162341D01*
X12707920Y-13162341D02*
X12707920Y-13124246D01*
X12707920Y-13124246D02*
X12717444Y-13076627D01*
X12717444Y-13076627D02*
X12726968Y-13048055D01*
X12726968Y-13048055D02*
X12736491Y-13029008D01*
X12736491Y-13029008D02*
X12755539Y-13000436D01*
X12755539Y-13000436D02*
X12765063Y-12990912D01*
X12822206Y-13019484D02*
X12946015Y-13019484D01*
X12946015Y-13019484D02*
X12879348Y-13095674D01*
X12879348Y-13095674D02*
X12907920Y-13095674D01*
X12907920Y-13095674D02*
X12926968Y-13105198D01*
X12926968Y-13105198D02*
X12936491Y-13114722D01*
X12936491Y-13114722D02*
X12946015Y-13133769D01*
X12946015Y-13133769D02*
X12946015Y-13181388D01*
X12946015Y-13181388D02*
X12936491Y-13200436D01*
X12936491Y-13200436D02*
X12926968Y-13209960D01*
X12926968Y-13209960D02*
X12907920Y-13219484D01*
X12907920Y-13219484D02*
X12850777Y-13219484D01*
X12850777Y-13219484D02*
X12831729Y-13209960D01*
X12831729Y-13209960D02*
X12822206Y-13200436D01*
X13184110Y-13219484D02*
X13184110Y-13019484D01*
X13269825Y-13219484D02*
X13269825Y-13114722D01*
X13269825Y-13114722D02*
X13260301Y-13095674D01*
X13260301Y-13095674D02*
X13241253Y-13086150D01*
X13241253Y-13086150D02*
X13212682Y-13086150D01*
X13212682Y-13086150D02*
X13193634Y-13095674D01*
X13193634Y-13095674D02*
X13184110Y-13105198D01*
X13393634Y-13219484D02*
X13374587Y-13209960D01*
X13374587Y-13209960D02*
X13365063Y-13200436D01*
X13365063Y-13200436D02*
X13355539Y-13181388D01*
X13355539Y-13181388D02*
X13355539Y-13124246D01*
X13355539Y-13124246D02*
X13365063Y-13105198D01*
X13365063Y-13105198D02*
X13374587Y-13095674D01*
X13374587Y-13095674D02*
X13393634Y-13086150D01*
X13393634Y-13086150D02*
X13422206Y-13086150D01*
X13422206Y-13086150D02*
X13441253Y-13095674D01*
X13441253Y-13095674D02*
X13450777Y-13105198D01*
X13450777Y-13105198D02*
X13460301Y-13124246D01*
X13460301Y-13124246D02*
X13460301Y-13181388D01*
X13460301Y-13181388D02*
X13450777Y-13200436D01*
X13450777Y-13200436D02*
X13441253Y-13209960D01*
X13441253Y-13209960D02*
X13422206Y-13219484D01*
X13422206Y-13219484D02*
X13393634Y-13219484D01*
X13574587Y-13219484D02*
X13555539Y-13209960D01*
X13555539Y-13209960D02*
X13546015Y-13190912D01*
X13546015Y-13190912D02*
X13546015Y-13019484D01*
X13726968Y-13209960D02*
X13707920Y-13219484D01*
X13707920Y-13219484D02*
X13669825Y-13219484D01*
X13669825Y-13219484D02*
X13650777Y-13209960D01*
X13650777Y-13209960D02*
X13641253Y-13190912D01*
X13641253Y-13190912D02*
X13641253Y-13114722D01*
X13641253Y-13114722D02*
X13650777Y-13095674D01*
X13650777Y-13095674D02*
X13669825Y-13086150D01*
X13669825Y-13086150D02*
X13707920Y-13086150D01*
X13707920Y-13086150D02*
X13726968Y-13095674D01*
X13726968Y-13095674D02*
X13736491Y-13114722D01*
X13736491Y-13114722D02*
X13736491Y-13133769D01*
X13736491Y-13133769D02*
X13641253Y-13152817D01*
X13812682Y-13209960D02*
X13831730Y-13219484D01*
X13831730Y-13219484D02*
X13869825Y-13219484D01*
X13869825Y-13219484D02*
X13888872Y-13209960D01*
X13888872Y-13209960D02*
X13898396Y-13190912D01*
X13898396Y-13190912D02*
X13898396Y-13181388D01*
X13898396Y-13181388D02*
X13888872Y-13162341D01*
X13888872Y-13162341D02*
X13869825Y-13152817D01*
X13869825Y-13152817D02*
X13841253Y-13152817D01*
X13841253Y-13152817D02*
X13822206Y-13143293D01*
X13822206Y-13143293D02*
X13812682Y-13124246D01*
X13812682Y-13124246D02*
X13812682Y-13114722D01*
X13812682Y-13114722D02*
X13822206Y-13095674D01*
X13822206Y-13095674D02*
X13841253Y-13086150D01*
X13841253Y-13086150D02*
X13869825Y-13086150D01*
X13869825Y-13086150D02*
X13888872Y-13095674D01*
X13965063Y-13295674D02*
X13974587Y-13286150D01*
X13974587Y-13286150D02*
X13993634Y-13257579D01*
X13993634Y-13257579D02*
X14003158Y-13238531D01*
X14003158Y-13238531D02*
X14012682Y-13209960D01*
X14012682Y-13209960D02*
X14022206Y-13162341D01*
X14022206Y-13162341D02*
X14022206Y-13124246D01*
X14022206Y-13124246D02*
X14012682Y-13076627D01*
X14012682Y-13076627D02*
X14003158Y-13048055D01*
X14003158Y-13048055D02*
X13993634Y-13029008D01*
X13993634Y-13029008D02*
X13974587Y-13000436D01*
X13974587Y-13000436D02*
X13965063Y-12990912D01*
M02*
